<?xml version="1.0" standalone="no"?>
<!DOCTYPE svg PUBLIC "-//W3C//DTD SVG 20010904//EN"
 "http://www.w3.org/TR/2001/REC-SVG-20010904/DTD/svg10.dtd">
<svg version="1.0" xmlns="http://www.w3.org/2000/svg"
 width="1280.000000pt" height="1162.000000pt" viewBox="0 0 1280.000000 1162.000000"
 preserveAspectRatio="xMidYMid meet">
<metadata>
Created by potrace 1.15, written by Peter Selinger 2001-2017
</metadata>
<g transform="translate(0.000000,1162.000000) scale(0.100000,-0.100000)"
fill="#000000" stroke="none">
<path d="M11329 8611 c-805 -825 -1465 -1498 -1467 -1497 -1 2 6 49 18 104 28
138 28 355 0 495 -21 105 -69 241 -100 280 -9 12 -39 54 -65 92 -27 39 -86
117 -131 175 -83 106 -108 128 -329 288 -82 60 -243 223 -298 302 -81 117
-210 273 -282 341 -165 157 -289 228 -506 290 -252 72 -510 194 -642 304 -173
143 -268 195 -397 216 -36 6 -162 14 -280 19 -118 5 -235 12 -260 16 -78 11
-185 -12 -310 -67 -138 -61 -184 -87 -270 -150 -61 -45 -300 -184 -380 -221
-19 -9 -69 -30 -110 -46 -371 -148 -693 -402 -855 -673 -47 -80 -176 -385
-190 -450 -31 -143 -154 -415 -250 -554 -72 -104 -194 -341 -230 -448 -20 -60
-55 -265 -55 -322 0 -7 -135 -166 -299 -353 l-299 -339 -71 -23 c-39 -12 -104
-45 -146 -72 -132 -87 -218 -213 -259 -380 l-22 -89 -227 -258 -227 -258 -5
-114 c-2 -63 -50 -1209 -105 -2548 -56 -1350 -97 -2437 -93 -2440 5 -3 14 -24
21 -46 16 -57 65 -128 110 -159 37 -25 44 -26 173 -26 127 0 136 1 171 25 83
56 139 190 119 283 -15 69 -25 92 -64 144 l-35 46 229 1093 c126 601 230 1094
232 1096 5 4 921 -39 926 -44 7 -5 20 -531 19 -768 0 -110 0 -226 0 -258 0
-93 59 -190 148 -244 17 -10 7 -24 -122 -155 -77 -78 -324 -332 -549 -563
-225 -231 -461 -473 -524 -537 l-116 -118 267 0 267 0 2589 2653 c1424 1458
2605 2666 2623 2683 19 17 74 57 122 89 109 72 188 156 247 262 42 74 184 222
1903 1982 l1857 1903 0 269 c0 148 -2 269 -4 269 -2 0 -663 -675 -1467 -1499z
m-7169 -2743 c1 -14 156 -131 297 -224 111 -73 170 -120 236 -188 48 -49 87
-93 87 -97 0 -4 -103 -105 -230 -223 l-229 -217 -368 101 c-203 55 -377 100
-388 100 -40 0 -565 104 -565 112 0 11 70 88 81 88 5 0 33 -16 63 -35 124 -79
291 -110 437 -81 131 27 219 74 315 170 137 136 192 282 181 474 -3 53 -9 106
-13 117 -4 11 16 -5 44 -35 28 -30 51 -58 52 -62z m1225 -1179 c128 -84 181
-105 368 -143 99 -21 147 -38 300 -110 100 -46 211 -93 247 -105 36 -11 108
-33 160 -50 52 -16 122 -34 155 -40 77 -14 312 -19 389 -8 l60 9 -180 -185
c-98 -102 -642 -660 -1209 -1240 -836 -857 -1032 -1052 -1039 -1039 -5 9 -26
35 -47 58 l-39 40 21 360 c11 197 25 367 31 378 9 18 54 673 46 681 -2 3 -303
42 -668 88 -532 66 -665 85 -668 97 -2 14 203 1009 210 1015 2 1 213 -24 470
-56 l467 -59 78 74 c43 40 184 172 312 293 l235 219 115 -116 c64 -63 148
-136 186 -161z"/>
</g>
</svg>
