<?xml version="1.0" encoding="utf-8"?>
<!-- Generator: Adobe Illustrator 16.0.0, SVG Export Plug-In . SVG Version: 6.00 Build 0)  -->
<!DOCTYPE svg PUBLIC "-//W3C//DTD SVG 1.1//EN" "http://www.w3.org/Graphics/SVG/1.1/DTD/svg11.dtd">
<svg version="1.1" id="Calque_1" xmlns="http://www.w3.org/2000/svg" xmlns:xlink="http://www.w3.org/1999/xlink" x="0px" y="0px"
	 width="432px" height="432px" viewBox="0 0 432 432" enable-background="new 0 0 432 432" xml:space="preserve">
<g>
	<path d="M299.868,245.807c0.362-2.227,0.691-4.033,0.945-5.851c1.154-8.257,3.4-16.154,7.782-23.323
		c2.419-3.957,5.441-7.325,9.67-9.479c1.617-0.822,3.321-1.217,5.077-1.352c2.569-0.195,4.864,1.365,6,4.006
		c1.325,3.076,1.826,6.318,1.569,9.644c-0.66,8.535-2.539,16.803-5.625,24.791c-2.661,6.892-5.652,13.638-9.126,20.158
		c-0.75,1.408-1.078,2.776-0.909,4.368c0.957,9.013,2.017,18.011,4.294,26.807c0.947,3.66,2.271,7.188,4.632,10.225
		c0.394,0.506,0.804,1.005,1.254,1.459c2.796,2.822,6.263,2.923,9.195,0.256c2.303-2.095,3.821-4.729,5.038-7.55
		c2.68-6.215,4.365-12.74,5.944-19.294c1.24-5.146,2.236-10.343,3.076-15.57c0.113-0.703,0.322-1.414,0.621-2.061
		c0.28-0.608,0.849-0.988,1.563-0.911c0.806,0.088,1.349,0.605,1.47,1.376c0.11,0.702,0.103,1.446,0.009,2.153
		c-1.054,7.948-1.866,15.938-3.81,23.743c-1.596,6.403-3.545,12.699-7.269,18.23c-2.525,3.75-5.806,6.584-10.49,7.463
		c-3.473,0.652-6.495-0.471-9.432-2.018c-5.022-2.645-8.779-6.64-11.903-11.311c-3.039-4.543-5.408-9.401-7.115-14.992
		c-1.204,1.455-2.226,2.639-3.193,3.865c-2.438,3.094-5.094,5.99-7.891,8.759c-1.832,1.814-3.824,3.426-6.083,4.689
		c-6.663,3.729-12.806,1.678-17.313-3.347c-4.328-4.827-6.968-10.53-8.135-16.912c-0.188-1.025-0.421-2.043-0.644-3.063
		c-0.033-0.152-0.124-0.291-0.238-0.548c-0.653,0.251-0.823,0.888-1.091,1.39c-2.45,4.604-4.874,9.221-7.313,13.831
		c-1.808,3.419-3.857,6.673-6.61,9.425c-4.408,4.406-9.039,4.687-13.934,0.766c-2.901-2.326-5.256-5.167-7.272-8.288
		c-0.737-1.143-1.493-2.273-2.354-3.582c-1.024,0.956-1.501,2.126-2.085,3.196c-2.897,5.318-6.375,10.203-10.688,14.472
		c-1.436,1.42-2.993,2.59-5.023,3.157c-3.777,1.057-6.876-0.161-9.379-2.828c-4.734-5.045-7.97-11.025-10.221-17.54
		c-3.177-9.191-4.497-18.672-4.392-28.379c0.056-5.204,0.01-10.409,0.01-15.709c-0.941-0.274-1.718,0.224-2.503,0.497
		c-3.116,1.088-6.278,1.943-9.589,2.177c-2.007,0.141-2,0.166-2.216,2.245c-0.739,7.118-1.897,14.165-4,21.014
		c-2.357,7.676-5.225,15.163-9.125,22.208c-1.599,2.887-3.517,5.562-5.961,7.817c-3.647,3.365-7.315,3.484-11.241,0.409
		c-3.652-2.862-5.92-6.698-7.725-10.867c-3.479-8.035-4.65-16.476-4.363-25.161c0.186-5.609,0.424-11.216,0.617-16.824
		c0.026-0.766,0.217-1.558-0.108-2.352c-0.907,0.138-1.12,0.916-1.508,1.465c-3.539,5.014-6.053,10.57-8.519,16.151
		c-2.239,5.068-3.777,10.403-5.919,15.509c-0.683,1.628-1.354,3.266-2.341,4.74c-1.748,2.611-4.187,3.188-6.858,1.554
		c-2.076-1.271-3.737-3.036-5.249-4.909c-4.514-5.595-7.357-11.931-8.816-19.001c-1.687-8.175-2.779-16.431-3.915-24.674
		c-0.908-0.337-1.401,0.312-1.924,0.746c-3.99,3.322-6.601,7.597-8.456,12.381c-0.086,0.223-0.093,0.475-0.174,0.7
		c-0.512,1.427-1.36,1.992-2.473,1.664c-1.073-0.316-1.527-1.293-1.222-2.76c0.13-0.626,0.316-1.251,0.563-1.84
		c2.509-5.99,5.896-11.397,10.721-15.813c3.961-3.626,8.36-3.594,12.536-0.176c2.275,1.861,3.582,4.279,4.676,6.883
		c2.128,5.063,3.067,10.448,4.208,15.775c1.313,6.131,1.909,12.357,2.303,18.602c0.153,2.417,0.722,4.742,1.142,7.074
		c0.887,0.159,0.991-0.533,1.217-0.983c1.083-2.16,1.757-4.479,2.501-6.766c3.94-12.114,9.374-23.529,16.012-34.386
		c0.836-1.367,1.666-2.742,2.55-4.079c2.777-4.192,7.554-4.506,11.011-0.896c2.268,2.368,2.981,5.278,3.337,8.32
		c0.495,4.228,0.335,8.471,0.157,12.724c-0.26,6.246-0.32,12.498-0.019,18.757c0.262,5.444,0.168,10.906,0.228,16.36
		c0.021,1.929,0.127,3.851,0.413,5.76c0.083,0.554,0.137,1.123,0.313,1.649c0.543,1.618,1.252,1.885,2.69,1.038
		c1.126-0.663,1.98-1.627,2.774-2.643c2.09-2.677,3.596-5.702,5.04-8.743c5.631-11.863,8.755-24.422,10.311-37.421
		c0.181-1.514-0.444-1.982-1.651-2.371c-6.971-2.245-13.431-13.367-12.317-21.101c0.255-1.768,0.697-3.469,1.624-5.001
		c2.597-4.289,7.359-4.922,10.991-1.447c1.59,1.521,2.673,3.391,3.461,5.44c1.566,4.075,2.362,8.322,2.802,12.643
		c0.138,1.354,0.139,2.725,0.172,4.088c0.064,2.585,0.053,2.56,2.73,2.35c3.639-0.285,7.058-1.442,10.5-2.532
		c0.783-0.247,1.19-0.711,1.405-1.47c0.35-1.234,0.747-2.454,1.135-3.678c1.059-3.339,4.022-5.384,7.296-5.041
		c3.005,0.314,5.327,3.091,5.755,6.499c0.773,6.148,0.649,12.306,0.576,18.478c-0.048,4.08,0.195,8.167,0.412,12.246
		c0.366,6.887,0.244,13.784,0.493,20.673c0.123,3.373,0.499,6.718,1.356,9.994c0.45,1.721,1.07,3.363,2.193,4.773
		c1.165,1.463,2.324,1.726,4.007,0.887c1.242-0.619,2.224-1.574,3.173-2.558c4.906-5.088,8.404-11.109,11.548-17.373
		c0.409-0.815,0.348-1.511,0.02-2.288c-3.291-7.798-4.337-16.037-4.98-24.391c-0.457-5.933-0.639-11.86-0.39-17.795
		c0.268-6.374,1.312-12.614,4.177-18.403c1.653-3.34,3.638-6.43,7.266-8.018c3.763-1.647,7.508-0.817,10.175,2.343
		c2.244,2.659,3.285,5.838,3.831,9.211c0.767,4.732,0.214,9.452-0.184,14.167c-0.747,8.862-2.887,17.409-6.25,25.621
		c-1.101,2.689-1.534,5.297-1.181,8.168c0.666,5.417,1.203,10.852,2.792,16.1c0.675,2.23,1.605,4.363,3.08,6.217
		c1.751,2.2,2.643,2.325,4.704,0.462c2.825-2.556,4.971-5.679,6.983-8.866c3.9-6.178,7.22-12.689,10.732-19.089
		c0.525-0.956,0.573-1.985,0.618-3.032c0.231-5.39,0.861-10.723,2.706-15.827c2.207-6.105,5.731-11.229,11.239-14.884
		c7.432-4.933,17.547-3.602,23.977,3.059C297.549,243.342,298.528,244.392,299.868,245.807z M299.362,263.266
		c0-2.297-0.009-5.022,0.008-7.748c0.004-0.598-0.216-1.102-0.523-1.57c-2.333-3.547-5.241-6.44-9.129-8.308
		c-4.281-2.057-7.649-0.133-9.667,2.323c-1.272,1.55-2.284,3.288-2.977,5.193c-2.105,5.794-2.986,11.822-2.981,17.933
		c0.005,6.006,0.185,12.022,0.827,18.009c0.301,2.809,0.775,5.562,2.189,8.061c1.35,2.387,2.833,2.92,5.418,1.953
		c1.593-0.597,3.002-1.512,4.342-2.545c5.195-4.005,9.319-9.017,13.325-14.141c0.458-0.587,0.732-1.171,0.56-1.984
		c-0.718-3.383-0.868-6.837-1.145-10.27C299.436,268.021,299.089,265.867,299.362,263.266z M315.028,256.865
		c0.177,0.025,0.353,0.051,0.528,0.076c4.384-9.029,7.782-18.409,9.923-28.236c0.823-3.78,1.185-7.597,0.94-11.465
		c-0.091-1.45-0.351-2.855-0.903-4.208c-0.401-0.98-0.864-0.956-1.577-0.271c-1.302,1.249-2.169,2.769-2.888,4.387
		c-1.479,3.325-2.102,6.88-2.766,10.424c-1.345,7.175-2.17,14.418-2.84,21.679C315.213,251.781,315.163,254.327,315.028,256.865z
		 M228.324,263.884c0.214-0.359,0.363-0.544,0.443-0.756c3.493-9.189,5.184-18.675,4.592-28.519c-0.12-2.002-0.48-3.978-1.11-5.896
		c-0.438-1.332-1.175-2.463-2.259-3.34c-0.924-0.747-1.354-0.656-1.786,0.458c-0.761,1.959-1.059,4.021-1.201,6.113
		c-0.283,4.167-0.202,8.333-0.012,12.501c0.257,5.604,0.506,11.209,0.76,16.813C227.79,262.114,227.926,262.944,228.324,263.884z
		 M159.333,247.232c0.51-0.304,0.465-0.646,0.458-0.946c-0.081-3.769-0.436-7.503-1.398-11.161
		c-0.488-1.857-0.957-3.721-1.964-5.389c-0.707-1.168-1.489-2.682-2.974-2.301c-1.321,0.34-1.376,1.998-1.483,3.273
		c-0.471,5.663,1.485,10.52,5.007,14.834C157.633,246.344,158.434,246.977,159.333,247.232z"/>
	<path d="M226.815,189.021c-0.052-2.039-0.039-3.559,0.225-5.072c0.129-0.744,0.384-1.394,0.978-1.868
		c0.68-0.542,1.436-0.775,2.206-0.222c0.755,0.542,0.934,1.271,0.447,2.104c-0.242,0.415-0.51,0.813-0.488,1.329
		c0.176,4.166,0.207,8.353,1.984,12.262c1.262,2.774,2.995,4.971,6.333,5.176c3.452,0.212,6.017-1.364,7.936-4.108
		c1.479-2.113,1.483-4.504,1.14-6.929c-0.756-5.325-3.072-10.076-5.449-14.809c-2.844-5.661-6.03-11.133-9.121-16.66
		c-1.879-3.36-3.051-7.015-4.067-10.753c-0.83-3.056-1.323-6.063-1.317-9.222c0.011-6.738,2.333-12.527,6.9-17.413
		c2.296-2.456,5.013-4.197,8.53-4.417c3.607-0.226,6.38,1.412,8.677,3.906c3.926,4.264,5.866,9.488,6.887,15.105
		c0.594,3.267,0.778,6.528-0.127,9.771c-0.192,0.692-0.428,1.387-0.755,2.022c-0.604,1.176-1.573,1.655-2.513,1.352
		c-0.992-0.321-1.502-1.183-1.259-2.531c0.431-2.396,0.407-4.795,0.15-7.188c-0.433-4.038-1.586-7.844-3.923-11.228
		c-0.831-1.201-1.817-2.249-3.051-3.032c-1.396-0.888-2.158-0.791-3.006,0.606c-1.657,2.735-2.375,5.761-2.243,8.945
		c0.291,6.978,2.999,13.203,6.115,19.296c3.466,6.777,7.075,13.493,9.792,20.618c1.662,4.36,2.779,8.884,2.402,13.609
		c-0.798,10.031-7.361,17.225-16.488,18.547c-7.961,1.153-14.431-3.405-16.055-11.344
		C227.089,194.112,226.961,191.309,226.815,189.021z"/>
	<path d="M312.943,174.214c-0.708-0.502-1.369-0.342-1.997-0.344c-0.887-0.003-1.761-0.059-2.627-0.265
		c-1.75-0.417-2.596-1.215-2.521-2.41c0.07-1.111,0.899-1.842,2.516-2.162c4.059-0.805,8.157-0.464,12.243-0.359
		c1.099,0.028,2.057,0.531,2.24,1.789c0.153,1.045-0.584,1.712-2.184,2.082c-0.156,0.036-0.32,0.05-0.47,0.104
		c-1.04,0.379-2.524-0.328-3.14,0.721c-0.524,0.896-0.386,2.176-0.556,3.283c-0.752,4.913-0.896,9.919-2.138,14.754
		c-0.921,3.582-2.095,7.069-4.49,10.015c-3.554,4.371-8.29,4.876-12.624,1.307c-3.703-3.05-6.67-6.649-8.729-11.029
		c-1.672-3.557-3.512-7.038-4.77-10.771c-1.522-4.515-2.145-9.24-2.479-13.938c-0.484-6.79-0.69-13.628,0.355-20.402
		c1.02-6.603,2.359-13.135,6.392-18.706c2.584-3.572,5.702-6.447,10.14-7.652c2.9-0.789,5.689-0.513,8.118,1.025
		c6.478,4.102,10.166,10.066,11.043,17.717c0.055,0.476,0.048,0.968-0.011,1.442c-0.16,1.282-0.871,2.065-1.907,2.12
		c-1.142,0.06-1.757-0.6-2.117-1.603c-0.434-1.205-0.83-2.43-1.348-3.599c-0.846-1.908-1.793-3.77-3.118-5.406
		c-0.761-0.939-1.577-1.831-2.619-2.459c-1.674-1.01-2.494-0.847-3.693,0.72c-1.24,1.618-1.907,3.52-2.525,5.425
		c-2.705,8.335-3.642,16.941-3.329,25.638c0.149,4.14,0.676,8.295,1.27,12.425c0.524,3.647,0.64,7.353,1.052,11.019
		c0.403,3.59,1.256,7.1,2.185,10.587c0.272,1.022,0.744,1.943,1.447,2.743c1.292,1.471,1.943,1.505,3.33,0.066
		c0.84-0.871,1.469-1.898,1.984-2.997c2.132-4.551,3.061-9.443,4.036-14.316C312.34,178.584,312.608,176.357,312.943,174.214z"/>
	<path d="M367.2,161.098c0.039,9.688-1.211,19.176-4.678,28.283c-1.349,3.542-3.186,6.82-5.841,9.591
		c-4.302,4.488-10.472,4.944-15.094,0.785c-5.47-4.921-9.422-10.887-11.284-18.104c-0.52-2.013-1.182-3.978-1.604-6.028
		c-1.802-8.728-1.301-17.341,0.836-25.939c0.796-3.205,1.857-6.298,3.229-9.288c2.104-4.585,4.91-8.656,9.162-11.506
		c2.831-1.896,5.951-2.652,9.394-1.86c2.077,0.478,3.678,1.517,4.847,3.258c0.4,0.598,0.752,1.202,1.35,1.663
		c4.853,3.746,7.147,8.999,8.221,14.786C366.612,151.463,367.083,156.267,367.2,161.098z M361.736,165.219
		c0.369-5.102,0.066-9.43-0.322-13.743c-0.324-3.601-1.035-7.124-2.522-10.477c-1.151-2.595-3.356-4.246-5.164-6.26
		c-0.377-0.42-0.848-0.376-1.332-0.337c-1.285,0.104-2.278,0.755-3.059,1.724c-1.261,1.564-2.348,3.223-3.06,5.138
		c-1.152,3.101-1.815,6.311-2.34,9.557c-1.076,6.659-1.641,13.353-1.448,20.111c0.138,4.821,0.732,9.588,1.427,14.347
		c0.405,2.778,0.849,5.567,2.194,8.087c2.072,3.878,4.576,4.174,7.467,0.938c2.238-2.504,3.539-5.515,4.697-8.606
		C360.839,178.848,361.907,171.749,361.736,165.219z"/>
	<path d="M192.229,197.393c1.346-0.601,2.088-1.568,2.737-2.548c4.353-6.578,8.229-13.395,10.205-21.124
		c0.5-1.955,1.019-2.545,2.117-2.401c1.166,0.151,1.587,1.102,1.375,3.12c-0.289,2.754-1.317,5.28-2.404,7.786
		c-1.983,4.569-4.322,8.958-6.817,13.262c-1.088,1.877-2.342,3.649-3.937,5.147c-2.471,2.32-5.423,2.368-7.986,0.132
		c-0.855-0.745-1.531-1.635-2.126-2.598c-2.947-4.763-4.825-9.945-5.905-15.41c-0.854-4.323-1.679-8.659-2.271-13.024
		c-0.472-3.485-0.639-7.02-0.808-10.538c-0.077-1.602-0.278-2.178-2.127-1.786c-2.346,0.496-4.754,0.753-7.174,0.662
		c-0.561-0.021-1.128-0.025-1.681-0.114c-1.328-0.215-2.183-1.101-2.165-2.179c0.019-1.081,0.896-1.979,2.219-2.142
		c1.512-0.186,3.034-0.279,4.551-0.43c1.357-0.135,2.712-0.289,4.068-0.439c2.066-0.229,2.183-0.235,2.103-2.315
		c-0.198-5.143,0.15-10.262,0.45-15.386c0.244-4.167,0.646-8.306,1.926-12.315c0.548-1.717,1.381-3.251,2.637-4.531
		c2.104-2.146,5.014-1.98,6.9,0.38c1.941,2.429,2.381,5.387,2.817,8.323c0.828,5.573,0.618,11.203,0.81,16.81
		c0.068,1.997,0.198,3.999-0.007,6.01c-0.146,1.438,0.109,1.603,1.653,1.519c0.953-0.052,1.92-0.024,2.798-0.549
		c0.91-0.544,1.708-0.337,2.267,0.559c0.498,0.8,0.219,1.88-0.651,2.559c-0.995,0.776-2.233,0.86-3.408,1.076
		c-2.485,0.456-2.511,0.432-2.579,2.953c-0.12,4.487-0.157,8.977-0.325,13.461c-0.252,6.732-0.233,13.468-0.275,20.201
		C191.204,193.451,191.329,195.363,192.229,197.393z"/>
	<path d="M146.806,130.615c0.854,3.388,1.402,6.693,1.515,10.054c0.292,8.734,0.825,17.468,0,26.202
		c-0.189,2.006-0.164,2.035,1.852,2.043c1.114,0.004,2.23,0.078,3.329-0.328c0.829-0.307,1.596-0.054,2.051,0.78
		c0.524,0.961,0.067,1.731-0.604,2.356c-0.86,0.801-1.975,1-3.113,1.117c-4.027,0.417-3.996,0.429-4.487,4.31
		c-0.403,3.183-0.89,6.355-1.34,9.532c-0.057,0.397-0.14,0.792-0.175,1.19c-0.172,1.956-0.032,2.133,1.853,2.059
		c6.336-0.25,12.668-0.542,18.752-2.617c0.734-0.251,1.438-0.199,1.949,0.478c0.572,0.757,0.418,1.502-0.101,2.217
		c-0.551,0.759-1.357,1.098-2.225,1.333c-6.604,1.793-13.313,2.926-20.157,3.22c-2.927,0.125-4.861-1.279-6.085-3.839
		c-2.655-5.551-4.056-11.454-5.112-17.483c-1.91-10.906-1.645-21.891-1.379-32.878c0.063-2.56,0.38-5.112,0.954-7.62
		c0.343-1.497,0.856-2.934,1.665-4.24c1.369-2.212,3.216-3.594,5.98-3.092c0.918,0.167,1.766-0.103,2.608-0.278
		c5.231-1.089,10.538-0.932,15.827-1.031c1.621-0.03,2.517,0.748,2.607,1.917c0.089,1.138-0.701,2.093-2.263,2.365
		c-3.315,0.579-6.652,1.033-9.978,1.554C149.469,130.131,148.217,130.369,146.806,130.615z"/>
	<path d="M107.473,145.612c-0.131,5.702-0.045,10.769-0.415,15.802c-0.447,6.068-1.255,12.111-1.958,18.159
		c-0.37,3.188-0.773,6.371-0.82,9.585c-0.035,2.366,0.246,2.756,2.593,3.22c2.626,0.519,5.283,0.243,7.923,0.115
		c2.725-0.132,5.443-0.382,8.166-0.569c0.558-0.039,1.127-0.091,1.679-0.026c0.956,0.112,1.71,0.573,1.798,1.623
		c0.083,1.007-0.492,1.66-1.397,2.014c-1.215,0.476-2.524,0.434-3.789,0.634c-3.248,0.512-6.495,1.029-9.751,1.482
		c-1.268,0.176-2.56,0.268-3.839,0.254c-5.516-0.06-8.846-2.413-10.818-7.54c-0.81-2.106-1.19-4.323-1.749-6.496
		c-1.859-7.242-2.984-14.603-3.39-22.054c-0.362-6.647,0.031-13.302,0.276-19.949c0.142-3.846,0.186-7.697,0.698-11.523
		c0.225-1.68,0.65-3.305,1.159-4.911c0.469-1.482,1.298-2.757,2.453-3.801c2.394-2.165,5.804-1.959,7.932,0.48
		c1.02,1.169,1.644,2.536,2.047,4.039c1.219,4.555,1.133,9.216,1.198,13.864C107.498,142.097,107.473,144.18,107.473,145.612z"/>
	<path d="M222.717,136.868c-0.026,2.063-2.013,3.271-3.805,2.489c-1.091-0.478-1.832-1.35-2.233-2.406
		c-1.589-4.182-3.338-8.31-4.498-12.646c-0.271-1.012-0.426-2.042-0.378-3.087c0.072-1.55,0.953-2.683,2.285-3.024
		c1.301-0.334,2.614,0.273,3.337,1.722c0.892,1.786,1.741,3.6,2.253,5.547c0.914,3.478,1.84,6.952,2.762,10.428
		C222.542,136.274,222.657,136.654,222.717,136.868z"/>
	<path d="M191.23,224.546c-0.111,2.943-1.344,4.182-4.055,4.072c-2.898-0.118-4.793-1.955-4.745-4.6
		c0.047-2.623,2.287-4.839,4.769-4.654C190.134,219.583,191.682,222.146,191.23,224.546z"/>
</g>
</svg>
