<?xml version="1.0" standalone="no"?>
<!DOCTYPE svg PUBLIC "-//W3C//DTD SVG 20010904//EN"
 "http://www.w3.org/TR/2001/REC-SVG-20010904/DTD/svg10.dtd">
<svg version="1.0" xmlns="http://www.w3.org/2000/svg"
 width="1264.000000pt" height="1280.000000pt" viewBox="0 0 1264.000000 1280.000000"
 preserveAspectRatio="xMidYMid meet">
<metadata>
Created by potrace 1.15, written by Peter Selinger 2001-2017
</metadata>
<g transform="translate(0.000000,1280.000000) scale(0.100000,-0.100000)"
fill="#000000" stroke="none">
<path d="M4582 12788 c-14 -14 -16 -38 -3 -38 10 0 26 39 19 46 -2 2 -10 -2
-16 -8z"/>
<path d="M4163 12448 c-87 -27 -93 -30 -93 -56 0 -15 11 -51 25 -80 14 -30 25
-64 25 -76 0 -12 -18 -47 -40 -76 -42 -56 -47 -75 -29 -100 9 -12 11 -13 16
-1 9 23 43 52 53 46 6 -4 10 -17 10 -29 0 -17 -9 -27 -32 -37 -18 -7 -46 -26
-64 -41 -26 -23 -52 -32 -145 -48 -190 -34 -224 -51 -263 -127 -22 -44 -30
-131 -18 -190 6 -27 25 -80 43 -118 30 -64 30 -69 14 -81 -18 -14 -93 -31
-250 -58 -49 -8 -128 -22 -175 -32 -47 -9 -109 -21 -138 -26 -76 -14 -104 -41
-110 -110 l-4 -55 42 -7 c58 -9 120 0 305 45 88 22 202 44 254 50 114 13 129
18 179 66 23 21 55 49 73 63 37 31 53 91 89 350 10 75 18 83 160 179 129 88
193 121 271 141 39 10 94 34 123 53 79 52 127 74 178 82 43 6 51 4 85 -22 21
-16 50 -34 65 -40 35 -16 104 -78 140 -127 33 -46 37 -99 11 -164 -21 -49 -7
-45 -217 -72 l-160 -20 -38 27 -39 26 -27 -20 c-15 -11 -35 -35 -46 -54 -18
-33 -24 -35 -155 -68 -184 -45 -198 -52 -209 -94 -5 -19 -7 -47 -4 -62 l5 -28
84 6 c46 3 99 11 117 18 31 11 106 6 106 -8 0 -24 -75 -280 -83 -285 -17 -11
-137 -35 -282 -58 -139 -22 -350 -74 -468 -116 -92 -32 -150 -34 -202 -6 -53
29 -119 28 -239 -3 -53 -14 -113 -25 -134 -25 -21 0 -46 -6 -56 -13 -16 -12
-13 -15 33 -36 l50 -24 78 21 c106 29 143 35 143 25 0 -18 -392 -131 -580
-168 -304 -59 -778 -169 -800 -186 -50 -39 -115 -61 -232 -80 -65 -11 -135
-26 -155 -34 -33 -14 -35 -18 -29 -47 8 -42 23 -58 56 -58 50 0 724 169 776
195 33 16 131 41 272 69 217 44 371 81 403 97 25 12 371 99 396 99 24 0 82
-44 72 -55 -9 -8 -469 -127 -599 -154 -297 -63 -852 -217 -942 -262 -61 -31
-71 -72 -43 -165 8 -27 20 -92 26 -144 5 -52 19 -129 29 -170 11 -41 29 -129
40 -195 12 -66 37 -181 55 -255 19 -74 52 -231 75 -348 23 -117 54 -265 71
-330 17 -66 34 -169 39 -237 8 -87 27 -188 70 -365 65 -263 90 -391 90 -455 0
-38 15 -114 60 -305 10 -47 34 -195 51 -330 17 -135 35 -255 40 -267 7 -20 16
-23 58 -23 55 0 62 2 495 150 l300 102 83 68 c85 70 93 73 266 125 48 14 87
29 87 34 0 14 -61 121 -70 121 -4 0 -91 -24 -192 -54 -170 -50 -672 -197 -745
-217 -30 -9 -31 -11 -21 -40 6 -16 8 -32 6 -34 -2 -3 -46 -11 -96 -18 l-92
-14 -4 31 c-3 17 -21 128 -41 246 -61 355 -85 513 -85 550 0 32 -21 142 -150
767 -22 106 -74 349 -116 540 -90 415 -180 862 -192 956 -8 60 -7 69 9 77 72
39 1278 365 1457 395 l42 7 23 -49 c21 -47 22 -60 28 -483 5 -403 17 -629 49
-926 5 -51 41 -215 79 -367 87 -343 97 -423 82 -683 -27 -463 -13 -569 99
-759 58 -99 36 -137 -93 -162 -118 -22 -172 -69 -77 -67 40 1 139 22 180 38
12 5 20 -18 43 -121 14 -71 30 -147 33 -170 l6 -41 -53 -16 c-30 -9 -80 -23
-113 -31 -68 -19 -100 -47 -115 -101 -19 -69 -14 -100 20 -128 46 -39 73 -51
179 -79 52 -14 121 -35 152 -47 l56 -21 -20 -46 c-76 -172 101 -336 302 -279
131 38 147 40 181 26 17 -8 69 -50 113 -95 92 -92 126 -110 174 -90 38 17 66
68 87 163 9 38 28 88 43 111 l26 41 92 0 c81 0 97 3 151 30 118 59 186 163
164 248 -14 50 -51 84 -134 121 -38 17 -87 46 -110 65 -63 51 -81 53 -124 16
-28 -25 -41 -30 -62 -25 -35 9 -99 46 -149 88 -46 39 -70 49 -170 72 -73 18
-132 53 -132 81 0 14 33 25 138 45 35 6 70 18 78 26 22 23 18 79 -8 98 l-23
16 48 44 c89 82 228 111 315 66 41 -21 79 -63 100 -113 10 -25 8 -30 -20 -58
-62 -62 -193 -106 -346 -117 -100 -7 -113 -14 -92 -54 12 -21 16 -21 109 -15
171 13 278 47 351 112 23 21 48 51 57 68 20 39 20 123 0 161 -21 41 -75 91
-117 109 l-35 14 25 10 c14 5 86 29 160 52 74 23 136 43 138 45 1 1 -5 18 -13
38 -8 20 -15 50 -15 66 0 16 -3 32 -7 34 -5 3 -75 -4 -158 -15 l-150 -20 -327
-127 c-213 -84 -331 -125 -341 -120 -8 5 -45 2 -83 -6 -38 -8 -100 -15 -139
-15 -38 -1 -90 -5 -115 -10 -25 -4 -47 -7 -49 -4 -2 2 16 36 40 76 l44 72 0
126 c0 149 -9 176 -58 166 -18 -3 -36 -13 -42 -22 -5 -9 -18 -26 -27 -38 l-16
-21 -12 30 c-40 101 -33 255 20 445 17 58 41 177 55 265 14 88 55 277 90 420
35 143 68 285 74 315 31 158 48 231 97 403 30 104 54 205 54 225 0 21 30 163
65 317 82 351 106 463 139 643 31 169 49 218 85 236 83 43 297 100 641 172
481 100 629 137 840 208 174 60 538 152 550 140 12 -12 412 -1019 461 -1163
22 -62 53 -139 69 -171 16 -32 66 -150 111 -262 44 -111 182 -441 305 -732
124 -290 224 -529 222 -530 -2 -1 -248 -50 -548 -108 l-545 -106 -387 -147
-387 -147 32 -67 c18 -36 32 -67 33 -69 1 -2 684 185 710 195 9 3 13 -16 16
-71 l3 -75 -154 -43 c-96 -27 -155 -49 -159 -58 -3 -8 -13 -26 -23 -40 -20
-29 -15 -105 6 -97 6 3 96 26 198 52 l185 47 51 -43 c49 -42 59 -62 43 -85 -4
-6 -52 -41 -107 -76 -55 -36 -124 -86 -153 -112 -53 -45 -55 -46 -106 -40 -31
4 -68 2 -89 -5 -70 -23 -151 -132 -211 -283 l-15 -38 -65 0 -64 0 1 120 c2 97
-1 122 -13 130 -19 12 -26 4 -38 -40 -6 -23 -11 -30 -15 -20 -47 116 -127 336
-135 372 -12 46 -128 342 -156 397 -37 70 -68 53 -41 -22 9 -23 58 -172 109
-332 67 -207 97 -317 106 -383 6 -51 25 -130 41 -175 32 -93 38 -171 13 -181
-9 -3 -28 -6 -44 -6 -53 0 -155 -39 -197 -75 -53 -45 -100 -120 -124 -196 -37
-118 -17 -220 59 -301 75 -80 170 -126 208 -100 10 7 34 45 34 55 0 9 -62 27
-91 27 -38 0 -92 48 -121 108 -31 66 -32 179 -1 239 29 53 81 96 150 122 69
26 86 26 134 -1 l39 -22 0 -77 c0 -119 6 -137 49 -149 112 -32 171 -25 233 30
95 83 126 189 94 314 l-15 55 98 98 c54 54 106 114 116 133 11 20 20 66 23
109 l5 73 101 48 c55 26 139 74 186 108 101 73 140 85 215 67 75 -17 99 -10
145 43 35 39 40 51 40 94 0 28 -9 67 -21 93 -12 25 -20 47 -18 49 2 1 60 17
128 34 89 23 128 29 141 22 32 -17 67 -11 87 14 13 17 68 41 213 90 108 36
200 66 206 66 9 0 27 -99 20 -107 0 -1 -27 5 -58 13 -118 30 -209 -32 -233
-158 -14 -74 6 -103 168 -241 49 -41 59 -56 79 -118 25 -79 25 -80 -47 -100
-31 -9 -55 -8 -113 5 -91 20 -142 20 -190 0 -77 -32 -123 -97 -142 -201 -29
-161 56 -337 180 -374 41 -12 42 -12 77 23 28 28 38 48 44 89 11 69 3 96 -32
114 -49 26 -54 21 -51 -45 3 -49 1 -60 -11 -60 -39 0 -107 150 -107 235 0 67
20 109 60 130 44 23 74 10 120 -50 24 -31 61 -64 88 -79 131 -69 152 -82 157
-94 3 -8 8 -45 11 -83 7 -67 6 -69 -24 -97 -16 -15 -48 -34 -70 -40 -22 -7
-51 -21 -64 -32 l-23 -20 24 -20 c50 -43 172 -10 218 58 45 68 51 175 16 281
l-15 44 53 53 c29 30 56 54 59 54 3 0 21 -39 40 -86 19 -47 38 -88 42 -90 5
-3 20 -29 35 -57 14 -29 37 -67 51 -85 23 -31 24 -36 13 -74 -7 -23 -35 -85
-61 -137 -27 -53 -67 -150 -90 -216 -23 -66 -48 -138 -56 -161 -8 -22 -23 -50
-35 -62 -18 -21 -22 -21 -55 -7 -19 8 -56 32 -82 53 -87 73 -129 84 -230 60
-50 -11 -51 -11 -102 27 -61 44 -110 64 -164 65 -27 0 -36 4 -33 13 53 119 59
143 54 199 -3 32 -16 80 -29 106 -19 39 -33 52 -85 78 -34 18 -85 35 -113 39
-57 8 -60 15 -34 86 23 64 21 119 -6 166 -43 77 -123 100 -240 68 -30 -8 -56
-15 -57 -15 -2 0 -3 37 -3 83 l0 83 -42 32 c-48 37 -68 40 -91 14 -23 -25 -22
-31 16 -70 31 -32 32 -36 31 -110 0 -66 -6 -89 -38 -161 -20 -47 -34 -91 -32
-98 3 -7 19 -13 36 -13 41 0 66 29 105 122 l31 73 55 -1 c37 -1 70 -9 107 -28
51 -26 52 -27 52 -72 0 -45 -13 -82 -34 -96 -6 -4 -47 -8 -92 -8 -66 0 -84 -3
-98 -19 -20 -22 -15 -26 62 -65 28 -14 52 -31 52 -37 0 -6 -13 -38 -30 -72
-16 -34 -35 -93 -41 -132 -18 -106 3 -167 86 -252 59 -61 65 -65 96 -58 48 10
49 12 49 56 0 42 -6 49 -84 112 -57 46 -73 144 -37 223 34 74 113 108 186 80
52 -20 78 -47 106 -110 27 -63 21 -102 -27 -173 l-38 -54 30 -30 c30 -30 30
-31 21 -91 -11 -75 -2 -139 24 -172 16 -21 29 -26 64 -26 l44 0 6 43 c4 28 1
62 -9 97 -9 30 -16 60 -16 67 0 21 68 -18 112 -64 l36 -38 -14 -80 c-7 -44
-16 -85 -18 -91 -2 -6 -44 -13 -98 -17 -115 -7 -128 -11 -128 -47 0 -36 27
-41 171 -33 l110 6 38 -37 c44 -43 90 -59 149 -50 48 7 72 34 94 107 9 28 15
36 27 31 58 -23 74 -24 90 -1 33 48 94 107 110 107 10 0 33 -14 52 -31 37 -33
33 -33 202 -13 l47 6 0 -54 -1 -53 -81 -60 c-45 -33 -101 -68 -124 -77 -24
-10 -67 -31 -96 -47 -29 -17 -118 -55 -198 -86 -80 -31 -155 -63 -168 -71 -40
-26 -64 -14 -87 41 -23 57 -15 50 -163 151 l-113 77 -22 -22 c-13 -11 -28 -21
-33 -21 -6 0 -36 20 -68 45 -61 47 -107 65 -168 65 -35 0 -38 -2 -38 -27 0
-16 10 -61 22 -102 16 -53 19 -78 11 -90 -19 -30 -38 -22 -64 27 l-27 48 -98
-9 c-129 -11 -136 -14 -176 -68 -18 -26 -54 -74 -80 -108 -48 -64 -65 -112
-54 -155 4 -17 31 -40 83 -73 l77 -48 -39 -12 c-46 -13 -95 -16 -111 -5 -7 4
-25 37 -41 73 -22 48 -43 76 -79 105 -27 21 -65 55 -84 75 -28 27 -47 37 -83
42 -26 4 -63 13 -83 22 -33 14 -36 18 -30 46 12 61 -29 116 -134 178 -143 85
-136 102 62 160 154 45 161 44 197 -27 43 -86 126 -151 154 -123 6 6 11 35 11
65 0 45 -7 65 -43 127 -96 163 -101 172 -101 222 0 51 24 115 46 124 7 3 37
-2 67 -11 67 -20 146 -87 178 -152 21 -44 32 -145 17 -159 -3 -4 -39 -11 -79
-16 -40 -5 -74 -11 -77 -13 -9 -10 24 -61 49 -75 85 -47 209 72 209 201 0 77
-29 139 -98 211 -135 140 -254 169 -330 83 -38 -43 -52 -87 -66 -200 -12 -100
-10 -98 -108 -111 -42 -5 -48 -9 -61 -44 -15 -36 -19 -38 -69 -44 -75 -9 -147
-36 -159 -59 -7 -13 -9 -44 -4 -83 8 -74 21 -65 -140 -95 -134 -26 -199 -54
-265 -116 -80 -75 -139 -222 -155 -392 -14 -133 18 -191 152 -281 66 -44 94
-78 71 -86 -7 -2 -39 -9 -71 -14 -56 -10 -61 -9 -93 15 -40 31 -56 24 -74 -32
-6 -19 -14 -34 -17 -34 -3 0 -57 28 -119 62 l-114 63 0 45 c0 66 -26 156 -59
203 -94 137 -272 237 -421 237 -65 0 -81 -12 -103 -76 -14 -38 -16 -39 -61
-39 -45 0 -46 -1 -46 -31 0 -45 -14 -54 -64 -39 -24 7 -61 22 -82 33 -22 11
-57 25 -80 31 -45 12 -80 43 -69 61 5 8 34 9 96 4 l89 -7 21 48 c26 59 21 110
-15 166 -34 51 -115 104 -194 125 -59 17 -66 17 -110 1 -60 -22 -80 -21 -133
3 -24 11 -59 20 -77 20 -26 0 -34 -5 -43 -27 -10 -27 -7 -98 7 -157 7 -29 7
-29 -32 -22 -44 8 -91 27 -449 181 -361 155 -375 162 -375 184 0 15 -10 20
-47 26 -78 11 -93 26 -93 90 0 53 2 56 40 83 26 18 44 40 53 67 l14 40 154 28
c382 69 503 96 558 124 31 16 57 36 59 45 2 9 -9 30 -25 47 -32 34 -8 36 -238
-14 -60 -13 -209 -38 -331 -55 -267 -37 -342 -55 -470 -117 l-99 -48 -3 -43
c-5 -65 10 -66 206 -12 45 13 84 21 87 18 3 -3 -10 -28 -29 -56 -19 -28 -37
-69 -41 -92 -8 -49 -24 -51 -127 -15 -58 20 -149 34 -148 23 0 -2 6 -22 13
-45 17 -57 0 -49 1154 -566 165 -75 320 -147 342 -162 23 -14 110 -54 195 -89
84 -35 177 -76 207 -92 100 -51 383 -176 464 -205 62 -22 97 -29 158 -29 63 0
85 -4 107 -20 15 -11 57 -33 93 -49 35 -16 71 -38 78 -48 21 -29 39 -37 94
-43 59 -6 70 -22 80 -115 7 -59 6 -60 -23 -77 -35 -21 -68 -23 -78 -6 -4 6
-10 25 -13 42 -5 23 -14 33 -36 40 -17 4 -57 21 -90 37 -33 15 -82 34 -110 40
-27 7 -57 20 -67 29 -9 10 -159 75 -335 145 -175 70 -460 190 -633 267 -173
77 -427 187 -565 243 -643 263 -1287 564 -1338 624 -20 24 -25 44 -31 126 -6
85 -10 101 -34 133 -16 21 -41 77 -56 125 -27 86 -28 88 -47 71 -12 -10 -19
-31 -20 -53 0 -32 -6 -40 -47 -66 -26 -16 -56 -45 -67 -63 l-20 -33 -114 6
-114 6 -61 55 c-34 31 -107 86 -164 122 -378 246 -386 253 -549 447 -104 125
-149 190 -268 390 -175 295 -163 270 -218 446 -98 308 -149 604 -148 859 1
153 5 189 54 480 52 302 57 322 115 476 63 168 95 272 86 286 -11 18 -50 6
-101 -32 -52 -40 -53 -42 -53 -92 0 -36 -20 -113 -70 -265 -40 -122 -77 -254
-85 -306 -28 -181 -34 -213 -51 -267 -14 -46 -17 -99 -18 -330 l-1 -275 32
-95 c17 -52 50 -170 72 -261 50 -202 90 -328 141 -434 45 -92 392 -603 488
-717 85 -102 226 -227 332 -296 47 -30 132 -91 190 -136 151 -118 292 -195
381 -208 151 -23 192 -111 221 -473 6 -88 11 -178 10 -200 0 -22 5 -62 13 -90
8 -27 33 -270 55 -540 22 -269 48 -528 56 -575 9 -47 20 -159 24 -250 5 -106
14 -183 25 -215 22 -69 47 -476 34 -576 -8 -67 -7 -75 12 -95 11 -12 25 -42
30 -65 13 -55 39 -302 33 -308 -2 -3 -29 3 -59 13 -70 22 -105 14 -105 -24 0
-37 39 -75 132 -130 40 -24 100 -61 133 -83 46 -30 71 -40 109 -42 40 -3 62
-12 121 -53 46 -32 180 -99 366 -182 162 -73 443 -199 624 -280 182 -82 349
-155 373 -162 44 -13 50 -25 31 -60 -10 -19 -7 -26 27 -58 24 -22 69 -47 114
-64 119 -44 550 -237 601 -269 26 -16 87 -43 135 -61 49 -19 136 -54 194 -79
58 -25 182 -77 275 -117 163 -68 289 -134 313 -162 9 -11 -2 -13 -61 -10 -96
4 -154 23 -269 88 -94 54 -519 242 -743 329 -60 24 -436 188 -835 365 -399
177 -759 335 -800 352 -41 16 -91 39 -110 52 -19 12 -84 42 -145 65 -116 46
-375 172 -510 249 -44 25 -105 55 -135 68 -61 25 -60 21 -29 123 24 80 24 137
0 178 -31 50 -54 51 -111 4 l-51 -39 36 -28 c27 -21 34 -32 29 -48 -8 -28 -30
-44 -79 -57 -22 -6 -64 -20 -92 -31 l-53 -22 -43 31 c-40 29 -44 30 -70 17
-26 -14 -27 -18 -27 -89 0 -41 -1 -75 -2 -75 -2 0 -27 9 -56 20 -68 26 -88 25
-107 -4 -35 -53 7 -127 90 -162 22 -9 62 -32 88 -51 98 -69 922 -469 1662
-806 418 -190 780 -351 805 -356 25 -6 64 -11 86 -11 33 0 45 -5 57 -24 9 -13
33 -30 54 -37 21 -6 63 -29 93 -51 37 -26 90 -50 166 -74 62 -19 150 -52 196
-74 46 -21 101 -41 123 -45 73 -12 172 -56 194 -85 20 -28 111 -70 151 -70 10
0 54 -11 97 -25 43 -13 110 -27 149 -31 68 -6 70 -6 82 20 21 47 15 72 -21 89
-18 9 -73 46 -121 82 -48 36 -93 66 -99 66 -7 1 -57 2 -112 3 -113 2 -140 10
-315 91 -63 29 -178 77 -255 105 -77 29 -230 95 -340 148 -110 52 -261 121
-335 152 -232 99 -789 356 -930 429 -74 38 -272 131 -440 206 -340 152 -666
310 -781 379 -76 45 -77 46 -81 91 -2 25 0 45 3 45 4 0 26 -7 50 -16 24 -8 74
-22 111 -29 38 -8 87 -27 110 -42 60 -38 477 -253 491 -253 6 0 59 -24 117
-54 58 -30 155 -74 216 -99 60 -24 368 -162 686 -305 375 -169 610 -270 673
-288 63 -18 124 -44 174 -74 111 -68 214 -105 279 -101 46 2 65 -4 135 -40 45
-22 100 -59 122 -80 25 -24 73 -53 123 -74 45 -19 128 -61 184 -93 119 -68
163 -85 217 -81 29 2 45 -3 67 -21 17 -14 78 -49 137 -79 l108 -54 -21 -22
c-19 -20 -20 -27 -10 -64 6 -22 18 -44 26 -49 9 -5 22 -38 30 -73 21 -93 33
-118 60 -125 39 -10 54 2 54 43 0 23 14 65 35 107 19 39 35 76 35 83 0 18 24
29 198 87 87 29 288 98 447 154 283 98 734 231 945 278 58 13 158 39 223 59
70 20 140 35 170 35 49 0 56 -4 121 -59 136 -115 229 -153 273 -112 42 40 58
176 28 248 -20 47 -19 60 4 73 16 8 29 4 64 -20 53 -35 146 -80 167 -80 22 0
61 63 67 109 7 49 24 52 54 10 21 -30 79 -172 79 -195 0 -8 -12 -8 -44 -1 -97
22 -164 -25 -174 -122 -8 -86 61 -181 169 -231 47 -23 53 -23 92 -9 34 11 47
23 65 59 33 64 28 189 -12 275 -15 33 -34 91 -42 128 -17 82 -31 111 -84 172
-22 25 -40 50 -40 55 0 21 59 50 315 158 163 69 655 259 735 284 36 11 94 34
130 50 140 63 487 201 637 252 87 30 219 82 293 116 74 34 169 75 210 90 41
16 102 41 135 55 193 88 341 148 600 247 557 211 640 238 864 274 85 13 158
27 162 30 15 9 9 66 -16 163 -14 52 -25 105 -25 118 0 48 -19 20 -34 -51 -10
-41 -22 -79 -29 -84 -7 -6 -167 -58 -357 -117 -370 -114 -430 -136 -818 -299
-139 -58 -291 -119 -338 -136 -47 -16 -237 -93 -422 -169 -684 -283 -811 -334
-997 -406 -628 -242 -872 -339 -967 -384 -58 -28 -127 -56 -153 -63 l-48 -13
-48 55 -49 55 27 23 c40 33 114 69 228 112 55 21 303 115 550 210 248 95 545
208 660 252 116 44 235 90 265 103 30 13 215 86 410 161 195 75 443 170 549
211 107 41 209 84 225 96 17 12 63 31 101 43 39 12 241 85 450 164 209 78 433
158 497 176 156 45 284 112 351 184 31 34 34 56 11 88 -21 30 -49 28 -73 -7
-11 -15 -32 -36 -47 -46 -14 -9 -142 -56 -283 -105 -798 -273 -798 -274 -1326
-498 -187 -79 -387 -160 -445 -179 -101 -34 -316 -116 -1260 -478 -239 -92
-460 -176 -490 -187 -30 -11 -127 -54 -215 -96 -88 -42 -209 -94 -270 -117
l-110 -41 -78 66 c-44 36 -100 84 -125 107 l-47 42 -1 113 c-1 71 -7 136 -17
174 -10 34 -17 64 -17 67 0 2 13 10 30 17 24 10 69 58 58 63 -67 34 -63 26
-69 122 -3 55 -12 103 -22 122 -20 38 -63 63 -107 63 -39 0 -102 -32 -128 -65
-25 -32 -45 -116 -40 -170 3 -36 9 -43 63 -80 33 -23 62 -49 63 -59 2 -11 -23
-45 -70 -92 -40 -41 -78 -86 -85 -102 -17 -39 -15 -99 6 -157 14 -41 22 -51
47 -56 48 -11 150 -10 204 2 28 6 54 8 57 5 3 -3 -21 -35 -55 -70 -98 -106
-106 -177 -32 -291 l42 -65 50 0 c49 0 49 0 69 46 17 37 23 43 35 33 8 -6 14
-22 14 -34 0 -26 48 -72 85 -81 55 -14 69 -3 95 76 30 89 57 112 105 89 16 -8
36 -27 45 -42 15 -28 14 -29 -30 -69 -99 -88 -189 -112 -352 -94 l-77 8 -30
-61 -31 -61 -48 0 c-35 0 -64 -9 -105 -31 -32 -17 -103 -43 -160 -59 -56 -15
-115 -32 -132 -38 -16 -6 -259 -81 -540 -167 -280 -86 -620 -192 -754 -236
-134 -43 -245 -78 -247 -76 -2 1 -1 12 2 24 4 15 16 22 42 26 21 2 152 50 292
105 140 54 296 114 345 132 50 18 128 49 175 70 47 21 139 57 205 80 66 23
152 55 192 71 39 15 109 38 155 49 93 24 134 50 163 104 13 23 25 34 34 31 8
-3 39 -8 70 -11 50 -5 61 -3 104 25 l47 31 0 74 c0 40 -7 93 -15 117 -23 64
-87 159 -108 159 -9 0 -50 11 -89 25 -39 14 -80 25 -90 25 -22 0 -94 -64 -114
-101 -32 -62 -15 -113 74 -222 36 -44 52 -71 45 -78 -5 -5 -54 -22 -109 -38
-54 -16 -126 -41 -159 -56 -54 -25 -240 -100 -355 -144 -25 -10 -99 -41 -165
-69 -66 -28 -208 -80 -315 -116 -107 -36 -222 -76 -255 -90 -33 -14 -74 -26
-92 -26 -30 0 -32 3 -42 50 -6 28 -11 131 -11 228 0 97 -7 272 -15 387 -8 116
-19 489 -25 830 -5 341 -12 649 -15 685 -3 36 -12 308 -21 605 -11 413 -18
547 -29 570 -21 46 -44 206 -31 210 6 1 83 28 171 59 88 31 183 61 210 66 28
6 91 24 140 39 50 16 109 32 133 35 37 5 42 4 42 -13 0 -18 26 -48 34 -40 32
33 96 127 96 142 0 10 -9 30 -20 45 l-20 25 22 24 c16 17 32 23 64 23 38 0 45
-4 59 -29 26 -52 30 -132 8 -182 -18 -40 -18 -48 -6 -86 41 -122 180 -140 275
-35 44 49 62 107 55 183 -9 105 -65 176 -159 204 -51 15 -52 15 -78 -10 -53
-51 -66 -24 -20 44 16 24 35 69 41 100 l11 56 92 31 c50 18 136 48 191 68 93
33 180 51 284 58 l43 2 24 -64 c17 -49 20 -66 11 -73 -36 -24 -70 -36 -142
-51 -88 -18 -125 -39 -140 -81 -22 -62 73 -84 197 -45 34 11 66 20 69 20 4 0
10 -20 14 -45 18 -122 83 -195 175 -195 25 0 40 -5 40 -12 0 -7 -12 -47 -26
-88 -17 -48 -28 -111 -33 -175 l-8 -100 69 -66 c50 -49 70 -76 74 -100 13 -79
14 -82 29 -69 8 7 15 21 15 31 0 26 45 52 93 53 35 1 43 -3 58 -29 10 -16 21
-47 25 -68 l7 -39 -55 7 c-111 14 -158 -35 -166 -176 -5 -90 15 -139 77 -190
l40 -32 -20 -39 c-29 -57 -49 -160 -49 -258 -1 -110 -21 -156 -105 -236 -68
-65 -81 -93 -91 -194 -7 -69 11 -101 87 -153 77 -53 139 -59 213 -23 71 35
132 104 151 170 8 28 19 92 25 143 11 86 13 93 50 132 45 47 55 85 47 173 -5
57 -53 173 -103 250 -17 25 -17 30 1 106 12 55 16 101 13 149 -6 74 -48 206
-94 293 l-29 55 0 190 c0 185 -1 191 -27 247 -34 72 -76 128 -96 128 -9 0 -30
-5 -49 -12 -18 -6 -35 -9 -39 -6 -3 4 6 43 20 86 15 44 30 108 34 142 l7 62
55 18 c30 9 102 37 160 62 58 25 131 55 164 67 l58 21 -7 -60 c-6 -55 -4 -64
24 -114 l30 -54 -21 -83 c-44 -178 -23 -264 85 -346 34 -26 64 -48 66 -50 3
-2 -10 -34 -28 -71 -62 -125 -75 -214 -42 -281 42 -81 211 -201 284 -201 22 0
40 12 73 47 67 73 84 115 84 211 l0 83 53 62 c29 35 63 84 76 109 45 95 159
168 238 153 58 -11 110 -73 188 -225 37 -73 84 -159 106 -193 21 -33 39 -68
39 -78 0 -21 28 -39 62 -39 21 0 28 11 56 88 17 48 50 162 72 254 46 192 84
299 121 338 16 18 50 35 92 48 38 11 84 32 103 47 41 31 74 92 74 136 0 43
-50 91 -120 114 -55 17 -93 44 -111 77 -5 9 -13 44 -17 78 l-9 60 51 30 c40
22 59 43 89 94 66 112 119 147 264 172 46 8 128 30 181 49 177 61 276 94 357
116 237 65 290 81 325 99 66 34 75 72 35 158 -22 46 -27 52 -55 52 -68 0 -253
-43 -620 -145 -107 -30 -227 -61 -266 -69 -91 -19 -119 -32 -133 -63 -16 -35
-15 -39 24 -58 35 -16 38 -15 113 9 111 37 472 133 545 146 34 6 75 13 90 16
25 5 28 3 25 -17 -2 -18 -13 -25 -59 -35 -31 -7 -81 -24 -112 -38 -32 -14
-106 -37 -165 -52 -59 -14 -127 -34 -152 -44 -25 -10 -96 -32 -159 -50 l-115
-32 -26 32 c-26 32 -26 32 -62 17 -20 -8 -60 -31 -89 -51 -116 -78 -157 -54
-513 288 -46 44 -55 49 -91 47 -63 -4 -110 -37 -164 -115 -66 -97 -94 -154
-131 -274 -34 -110 -34 -110 -101 -92 -33 9 -38 16 -66 88 -21 52 -27 79 -20
84 6 4 34 10 62 14 69 9 95 20 132 56 77 74 65 175 -34 288 -22 25 -54 65 -72
90 -41 57 -76 80 -126 80 -35 1 -43 6 -68 41 -15 22 -63 63 -110 94 -149 99
-187 128 -187 140 0 27 42 130 65 161 17 23 36 34 63 39 101 17 285 -47 329
-114 54 -81 37 -135 -47 -149 -38 -6 -45 -11 -48 -33 -9 -80 124 -61 178 26
53 85 32 182 -60 280 -52 54 -52 54 -45 103 l7 50 51 -15 c34 -10 93 -14 170
-14 115 1 117 1 117 -21 -1 -35 -24 -91 -52 -129 -25 -32 -26 -36 -13 -67 8
-18 40 -60 71 -92 32 -33 55 -61 53 -63 -2 -2 -17 -7 -34 -13 -24 -8 -29 -15
-27 -35 1 -13 7 -26 12 -27 6 -2 15 -13 21 -23 8 -16 3 -32 -26 -84 l-36 -64
41 -26 c105 -66 163 -88 240 -92 61 -4 81 -1 106 15 94 59 89 247 -9 358 -30
34 -65 58 -122 85 -44 21 -91 50 -105 64 -22 24 -24 34 -23 113 0 64 8 109 27
171 14 47 26 106 26 133 0 41 -5 54 -33 84 l-33 37 -130 6 c-71 4 -135 10
-141 14 -21 13 -15 106 13 189 14 43 29 78 32 78 4 0 21 -8 37 -18 54 -33 144
-62 214 -68 65 -6 71 -5 95 19 15 15 29 40 32 57 8 38 18 44 65 41 36 -2 38 0
41 30 5 50 25 55 99 24 35 -15 89 -36 119 -47 50 -17 80 -40 80 -59 0 -15 -48
-18 -109 -7 -61 11 -64 11 -82 -11 -30 -37 -43 -99 -29 -144 24 -80 135 -167
237 -186 38 -8 59 -6 102 9 49 18 56 18 95 4 61 -23 118 -36 132 -30 25 10 34
77 20 144 l-14 62 32 0 c36 0 99 -26 426 -172 129 -58 247 -108 263 -112 61
-15 137 -58 143 -82 4 -16 13 -24 28 -24 51 0 94 -20 106 -50 20 -49 5 -96
-40 -126 -29 -19 -43 -37 -50 -65 -6 -22 -13 -39 -16 -39 -3 0 -85 -16 -182
-35 -97 -19 -238 -45 -312 -59 -179 -33 -259 -62 -274 -101 -7 -19 41 -75 65
-75 11 0 79 13 152 29 135 30 407 75 413 68 5 -5 -642 -192 -766 -222 -52 -13
-171 -35 -265 -50 -93 -14 -180 -33 -193 -41 -17 -11 -22 -24 -22 -54 0 -56
27 -68 113 -51 34 6 103 19 152 27 104 17 255 56 620 159 637 180 1274 350
1282 342 2 -3 -4 -148 -13 -323 -16 -286 -16 -368 -5 -794 10 -417 19 -567 72
-1230 32 -415 61 -761 64 -768 6 -16 56 -16 79 1 44 32 42 136 -14 647 -16
146 -31 306 -35 355 -7 102 -75 2066 -75 2163 l0 62 -30 0 c-16 0 -30 -4 -30
-10 0 -5 -22 -10 -49 -10 -57 0 -175 -21 -313 -56 -113 -28 -125 -29 -78 -6
28 14 36 24 38 50 7 68 -27 76 -158 37 -46 -14 -97 -25 -113 -25 l-29 0 31 39
c34 43 51 81 51 117 0 21 5 24 34 24 18 0 50 -7 71 -16 42 -17 41 -13 -13 55
l-35 43 39 -26 c47 -32 79 -46 119 -53 l30 -5 -35 23 c-19 13 -85 56 -147 96
-61 40 -144 88 -185 106 -40 19 -91 45 -113 58 -22 14 -84 44 -138 67 -54 23
-124 60 -154 82 -31 22 -60 40 -66 40 -18 0 -199 94 -188 98 17 6 145 -35 251
-80 52 -22 124 -51 160 -64 66 -23 479 -233 602 -305 36 -21 73 -39 82 -39 8
0 55 -17 103 -39 48 -21 118 -48 154 -60 61 -20 68 -25 82 -61 l15 -40 76 0
c41 0 87 5 101 12 30 14 28 29 -18 103 -47 77 -56 85 -81 75 -33 -12 -55 6
-62 50 -5 32 -11 40 -28 40 -12 0 -55 16 -95 35 -41 20 -94 40 -119 46 -25 5
-50 16 -56 24 -6 8 -175 82 -376 164 -201 82 -501 210 -668 285 -166 75 -380
167 -475 205 -604 242 -1318 574 -1361 634 -16 21 -22 49 -26 120 -5 86 -7 95
-38 133 -29 36 -43 44 -103 58 -67 17 -70 17 -98 -3 -15 -11 -34 -34 -41 -50
-11 -29 -14 -30 -63 -25 -128 12 -137 14 -137 34 0 11 -13 34 -28 52 -18 21
-38 65 -54 123 -15 51 -176 434 -376 890 -757 1731 -722 1649 -722 1698 0 42
-2 46 -27 49 -25 3 -39 23 -120 168 -51 91 -93 175 -93 186 0 27 -69 90 -125
115 -40 18 -49 18 -154 4 -287 -38 -781 -120 -971 -161 -63 -14 -157 -33 -209
-42 l-93 -17 -112 117 c-122 128 -253 239 -319 268 -63 29 -112 25 -196 -15
-40 -19 -76 -35 -80 -35 -4 0 -25 25 -46 55 -40 59 -113 129 -161 156 -27 15
-34 14 -121 -13z m2455 -454 c-15 -8 -25 -20 -22 -27 3 -10 -3 -13 -23 -10
-15 2 -62 -7 -104 -21 -163 -53 -689 -96 -689 -56 0 12 156 38 330 55 85 9
232 28 325 44 203 35 221 36 183 15z m61 -174 c28 -49 51 -94 51 -100 0 -5
-18 -10 -39 -10 -62 0 -258 -36 -486 -90 -115 -27 -349 -79 -520 -115 -308
-66 -404 -90 -835 -205 -124 -33 -236 -60 -249 -60 l-23 0 7 158 c4 86 9 160
11 164 7 10 123 43 224 64 70 14 115 15 261 10 l177 -7 12 51 c7 28 20 55 29
60 15 7 114 16 409 33 29 2 49 0 45 -4 -17 -16 -122 -40 -203 -45 -93 -7 -114
-14 -130 -45 -10 -17 -7 -21 26 -35 75 -31 309 0 789 106 72 15 159 31 195 35
135 14 190 42 190 97 0 15 2 28 4 28 2 0 27 -40 55 -90z m-2871 -46 c22 -6 22
-9 16 -98 -4 -50 -10 -95 -14 -99 -12 -13 -77 19 -90 44 -13 23 -8 86 9 132
11 28 32 33 79 21z m3017 -423 c0 -71 -1 -129 -1 -128 -1 1 -22 52 -47 112
l-46 110 37 17 c20 10 42 18 47 18 6 0 10 -50 10 -129z m-2370 -26 c-6 -79
-10 -97 -26 -105 -15 -9 -20 -6 -25 16 -11 41 35 208 52 191 4 -3 3 -49 -1
-102z m1384 101 c-8 -8 -164 -68 -227 -87 -34 -11 -124 -33 -200 -49 -75 -17
-186 -43 -247 -60 -113 -30 -165 -37 -165 -21 0 21 42 33 350 105 179 42 357
85 395 95 69 19 102 25 94 17z m1530 -1153 c204 -491 371 -895 371 -899 0 -19
-250 296 -297 375 -76 128 -69 113 -241 536 -142 351 -151 379 -176 515 -23
126 -45 302 -46 365 0 11 3 15 9 10 4 -6 175 -412 380 -902z m-3275 734 c40
-17 27 -25 -134 -82 -222 -77 -362 -117 -420 -119 -52 -1 -55 0 -58 24 -4 40
66 77 233 120 44 11 121 31 170 45 100 27 165 30 209 12z m286 -209 c0 -21
-18 -128 -54 -318 -7 -41 -39 -185 -69 -320 -135 -600 -207 -939 -207 -980 -1
-58 -15 -120 -47 -200 -16 -42 -25 -83 -25 -117 0 -49 -1 -53 -24 -53 -27 0
-30 17 -14 85 20 84 40 269 55 500 34 541 54 687 136 1003 83 318 106 373 173
403 56 25 76 24 76 -3z m-220 -46 c0 -13 -78 -268 -109 -357 -59 -165 -92
-398 -116 -800 -18 -303 -25 -378 -66 -655 -16 -113 -32 -262 -36 -332 -6
-123 -7 -128 -28 -128 -12 0 -26 10 -33 23 -15 31 -119 477 -143 615 -10 63
-19 148 -19 190 0 43 -5 106 -12 142 -7 42 -11 234 -12 535 -2 418 -4 478 -20
543 -10 41 -14 78 -10 82 5 4 122 38 259 75 138 36 255 68 260 70 20 7 85 5
85 -3z m3496 -1500 c69 -144 103 -194 156 -225 87 -52 104 -78 229 -377 l117
-281 -24 -10 c-14 -5 -28 -9 -31 -9 -3 0 -247 -70 -542 -155 -296 -85 -542
-155 -548 -155 -7 0 -14 8 -18 18 -3 9 -27 33 -53 52 l-47 34 55 17 c30 8 266
74 523 145 l468 129 -6 33 c-3 18 -15 54 -26 80 -29 67 -341 834 -346 852 -15
46 46 -51 93 -148z m562 -535 c20 -13 53 -29 72 -35 42 -14 94 -85 121 -164
l17 -52 74 -18 c40 -10 90 -25 111 -35 28 -12 40 -14 46 -5 10 16 84 -21 221
-111 103 -67 237 -130 374 -174 20 -6 32 -19 41 -45 l12 -36 -56 25 c-207 93
-295 119 -372 109 -37 -5 -51 -2 -72 14 -15 12 -57 35 -94 52 -37 16 -80 44
-94 62 -24 28 -32 31 -79 29 -52 -2 -52 -2 -67 37 -15 37 -19 40 -55 40 -21 0
-38 -2 -38 -4 0 -1 5 -17 11 -35 9 -25 8 -36 -4 -55 -17 -26 -70 -51 -90 -43
-7 3 -19 36 -26 73 -10 59 -84 345 -98 382 -7 17 2 15 45 -11z m436 -590 l109
-63 3 -73 c5 -81 30 -150 71 -193 14 -15 23 -33 20 -41 -7 -18 -94 -76 -125
-84 -33 -8 -120 14 -179 46 l-48 26 -6 65 c-10 118 -28 147 -135 221 -65 45
-94 74 -94 92 0 3 31 11 69 17 68 13 69 12 104 -14 l36 -28 21 34 c11 18 20
39 20 46 0 21 22 13 134 -51z m-1816 -51 c15 -8 38 -26 51 -40 27 -29 31 -26
-71 -55 l-66 -19 -6 21 c-8 29 -8 71 0 91 8 20 56 21 92 2z m2632 -86 c13 -24
7 -24 -45 0 l-40 19 37 0 c28 1 40 -4 48 -19z m-1353 -16 c31 -19 71 -101 78
-160 7 -54 -5 -97 -37 -131 -17 -19 -19 -27 -11 -46 8 -17 7 -28 -3 -42 -13
-18 -16 -17 -71 21 -74 50 -249 221 -262 257 -16 42 -5 57 43 57 41 0 122 -21
159 -41 10 -5 17 -5 17 0 0 5 11 12 25 15 30 8 34 49 8 79 -17 19 -17 19 7 12
14 -4 35 -13 47 -21z m840 1 c41 -14 99 -29 131 -33 56 -7 57 -8 85 -60 18
-33 43 -62 68 -78 38 -23 39 -26 39 -79 l0 -55 -54 0 c-45 0 -69 8 -147 49
-79 40 -95 52 -97 75 -2 18 -9 26 -23 26 -15 0 -27 17 -50 66 -33 75 -45 114
-33 114 4 0 41 -11 81 -25z m-1838 -119 c52 -84 34 -126 -53 -126 -29 0 -55 2
-58 5 -9 9 13 140 25 147 29 19 65 8 86 -26z m-174 -18 c-14 -46 -29 -52 -71
-30 -41 21 -40 23 26 41 51 13 52 13 45 -11z m1405 -92 c10 -25 25 -72 31
-103 11 -53 10 -62 -10 -100 -12 -24 -25 -43 -29 -43 -4 0 -20 48 -34 107 -19
76 -24 113 -17 130 5 14 9 41 9 61 0 35 0 36 15 15 8 -12 24 -42 35 -67z m513
-138 c-8 -29 -16 -59 -19 -66 -3 -9 -16 -3 -43 19 l-40 31 47 33 c67 47 73 45
55 -17z m-343 -29 c10 -18 9 -20 -7 -17 -10 2 -19 11 -21 21 -5 24 15 21 28
-4z m1460 -66 c0 -13 12 -46 26 -74 34 -68 26 -80 -18 -31 -39 43 -55 94 -43
139 6 27 7 27 21 9 8 -11 14 -30 14 -43z m-1311 22 c45 -23 120 -112 127 -151
7 -38 -4 -71 -45 -136 l-27 -43 -68 3 c-75 4 -76 14 -5 54 47 26 53 41 34 79
-17 33 -36 37 -60 13 -9 -9 -36 -19 -60 -21 -41 -5 -44 -8 -60 -52 -27 -74
-76 -139 -120 -161 l-40 -20 -3 20 c-2 11 4 41 14 65 13 35 16 64 12 123 -5
70 -4 80 18 107 24 31 23 31 38 -19 8 -26 47 -5 80 42 78 114 104 129 165 97z
m1055 5 c66 -11 98 -34 135 -100 21 -38 21 -39 2 -49 -27 -15 -67 -14 -99 3
-37 20 -118 106 -125 134 -6 26 0 27 87 12z m-1494 -13 c0 -7 -6 -21 -13 -32
-18 -24 -32 -3 -17 25 12 23 30 27 30 7z m-1778 -201 c6 -25 2 -36 -20 -64
-15 -18 -54 -70 -87 -115 -33 -44 -66 -82 -72 -85 -23 -7 -14 43 21 119 19 41
39 93 46 117 12 46 35 63 79 59 18 -1 27 -10 33 -31z m1558 25 c0 -13 -37 -24
-50 -16 -6 4 -8 11 -5 16 8 12 55 12 55 0z m1164 -57 c20 -8 20 -44 1 -90 -22
-52 -64 -66 -222 -72 l-132 -5 -6 26 c-9 33 10 89 36 113 15 13 43 20 102 25
118 9 203 10 221 3z m-4871 -112 c9 -10 23 -36 31 -58 8 -21 18 -38 22 -38 10
2 236 72 259 80 12 5 10 -5 -9 -42 -13 -27 -29 -66 -36 -87 -12 -40 -11 -39
-117 -57 -51 -9 -72 -8 -119 6 -32 9 -96 22 -143 28 -47 6 -85 14 -83 19 1 4
2 29 2 57 0 57 7 63 105 91 76 22 69 22 88 1z m4341 -88 c49 -50 26 -67 -56
-42 -47 14 -58 33 -32 53 29 22 58 18 88 -11z m-2518 -83 c17 -10 52 -49 78
-86 45 -62 48 -71 43 -112 -9 -86 -68 -133 -177 -141 l-68 -5 -7 47 c-4 26 -5
67 -1 91 5 38 0 54 -29 111 -19 37 -34 69 -32 71 9 9 115 42 137 42 14 1 39
-8 56 -18z m-1887 -200 c13 -9 31 -26 38 -38 15 -22 15 -22 -39 -16 -63 7 -66
9 -74 51 -7 32 -6 33 22 27 16 -4 40 -15 53 -24z m215 -105 c-3 -7 -16 -18
-29 -24 -21 -10 -23 -16 -19 -49 3 -21 7 -44 10 -50 5 -18 61 -16 71 1 13 24
65 46 107 46 32 0 46 -7 81 -43 96 -96 84 -279 -21 -323 -19 -8 -68 -14 -112
-14 -144 0 -179 51 -189 276 -7 134 -3 144 62 178 37 19 46 20 39 2z m-441
-103 c15 -43 27 -82 27 -87 0 -13 -108 0 -166 20 -97 33 -135 55 -132 77 2 17
19 26 73 44 39 12 93 22 120 22 l50 1 28 -77z m64 52 c23 -16 43 -71 43 -119
0 -25 -2 -27 -16 -16 -20 18 -29 35 -47 98 -17 56 -14 61 20 37z m5314 -16
c32 -32 49 -83 49 -148 0 -41 -5 -65 -16 -75 -19 -19 -99 -21 -132 -3 l-23 13
22 20 c36 33 49 70 49 144 0 77 12 88 51 49z m-5067 -3 c-3 -8 -11 -65 -18
-127 l-13 -114 -21 45 c-24 53 -45 138 -38 156 5 12 72 53 88 54 4 0 5 -6 2
-14z m828 -137 c136 -39 147 -122 25 -180 -51 -24 -75 -29 -134 -29 l-73 0 0
121 0 120 58 -6 c31 -3 87 -15 124 -26z m3186 -15 c46 -32 65 -108 42 -170
-10 -24 -14 -26 -52 -21 -66 9 -92 35 -96 94 -2 42 1 55 23 82 30 35 50 38 83
15z m205 -116 l-22 -21 -17 35 c-9 20 -14 44 -10 54 6 16 10 14 39 -14 l32
-32 -22 -22z m-722 -47 c20 -16 24 -30 27 -92 2 -41 -1 -86 -6 -100 -9 -22
-15 -25 -41 -21 l-31 4 0 114 c0 124 5 133 51 95z m-3629 -75 c22 -19 64 -44
94 -56 30 -12 54 -26 54 -31 0 -5 -28 -9 -63 -9 -76 0 -145 31 -165 73 -30 63
17 76 80 23z m4539 4 c14 -8 19 -21 19 -55 l0 -44 49 6 c44 5 50 3 61 -17 7
-12 9 -36 6 -55 -5 -26 -12 -34 -37 -39 -56 -11 -78 2 -104 60 -28 63 -68 89
-127 81 -46 -6 -48 5 -9 44 24 24 38 29 76 29 25 0 55 -5 66 -10z m-3942 -24
c12 -14 2 -27 -31 -39 -20 -7 -21 -3 -12 31 7 25 26 29 43 8z m4507 -159 c33
-24 102 -89 155 -143 71 -74 112 -108 162 -133 37 -19 67 -37 67 -41 0 -4 -10
-33 -22 -66 -16 -45 -21 -83 -22 -159 -1 -90 2 -106 27 -156 31 -65 102 -149
124 -149 31 0 4 -26 -58 -57 -35 -18 -74 -45 -87 -60 -56 -68 -97 -178 -141
-383 -36 -165 -47 -196 -64 -182 -7 6 -26 39 -42 74 -97 214 -127 268 -172
315 -92 94 -174 108 -289 48 -37 -19 -68 -35 -70 -35 -1 0 -5 19 -9 43 -5 33
-1 52 20 91 30 58 31 78 8 117 -23 38 -51 35 -78 -8 -24 -39 -64 -44 -94 -11
l-20 21 33 37 c20 23 41 61 51 96 l17 58 22 -40 c42 -76 96 -51 96 46 l0 58
-59 51 c-55 48 -91 100 -91 133 0 8 6 22 14 33 12 17 16 16 60 -25 l47 -43 27
20 c46 34 70 80 93 180 25 110 50 162 121 250 64 80 89 83 174 20z m-4496 -31
c0 -18 -15 -36 -31 -36 -21 0 -26 25 -6 33 16 7 37 8 37 3z m-2647 -67 c34
-17 89 -50 122 -73 102 -72 133 -87 278 -142 133 -49 142 -54 150 -83 9 -37
44 -57 115 -67 48 -6 54 -10 74 -47 28 -50 68 -75 152 -92 80 -17 140 -47 286
-145 200 -134 331 -197 513 -245 111 -30 303 -114 431 -189 50 -30 141 -76
202 -104 61 -28 139 -68 174 -89 34 -21 72 -43 84 -49 22 -13 95 -30 86 -21
-19 19 -251 157 -332 197 -54 28 -118 62 -141 78 -23 16 -86 47 -140 70 -54
23 -124 60 -154 82 -31 22 -62 40 -68 40 -7 0 -55 23 -106 51 -91 49 -93 50
-49 44 25 -3 101 -29 170 -57 69 -28 159 -63 200 -79 71 -26 511 -249 613
-310 26 -16 53 -29 60 -29 6 0 48 -16 92 -36 44 -20 116 -48 160 -63 72 -25
82 -32 103 -68 l23 -41 94 5 95 6 0 -57 c0 -63 10 -70 55 -34 28 22 85 129 85
160 0 9 4 19 9 22 5 3 14 -32 21 -79 10 -74 10 -91 -5 -132 -9 -27 -20 -100
-25 -163 -16 -195 -22 -763 -11 -970 5 -107 17 -474 25 -815 9 -341 20 -644
26 -673 8 -46 -5 -550 -14 -560 -3 -3 -441 195 -821 370 -165 76 -274 133
-298 154 -44 40 -220 127 -507 249 -230 99 -886 409 -970 460 -30 18 -134 72
-230 120 -96 48 -227 117 -290 153 -90 52 -132 70 -193 82 l-78 16 26 38 c30
45 32 103 10 312 -15 145 -24 276 -50 709 -19 313 -43 637 -56 760 -22 208
-49 580 -63 865 -24 464 -24 500 -9 500 8 0 42 -14 76 -31z m5051 6 c3 -9 0
-15 -8 -15 -8 0 -16 7 -20 15 -3 9 0 15 8 15 8 0 16 -7 20 -15z m1263 -66 c15
-5 43 -24 61 -42 34 -33 38 -57 26 -150 -6 -43 -9 -46 -51 -62 -38 -15 -51
-16 -87 -5 -86 25 -137 79 -122 128 11 35 66 102 99 122 37 23 37 23 74 9z
m-2427 -39 c80 -41 130 -81 130 -107 0 -12 -15 -47 -34 -76 -54 -84 -62 -121
-42 -210 l17 -75 -28 -29 c-35 -37 -95 -81 -124 -92 -18 -6 -28 -2 -46 17 -21
23 -23 32 -17 84 6 53 5 58 -12 58 -53 0 -84 -58 -84 -159 0 -53 0 -53 -27
-47 -16 4 -39 15 -53 24 -33 23 -90 136 -90 178 0 100 82 172 206 182 86 7
110 -2 139 -48 32 -51 51 -51 66 -1 10 34 9 44 -7 73 -22 38 -87 74 -150 84
-60 9 -165 -25 -229 -73 -68 -53 -103 -106 -116 -178 -10 -56 -9 -67 20 -155
16 -52 29 -96 27 -98 -2 -2 -22 6 -45 17 -85 44 -134 191 -112 338 12 80 24
110 77 183 40 56 84 78 219 109 50 11 99 22 110 25 49 12 161 -1 205 -24z
m-2164 -87 c17 -38 18 -99 3 -108 -15 -10 -18 -5 -29 53 -5 29 -16 62 -24 74
-8 13 -17 34 -21 48 -7 25 -7 25 25 -5 18 -16 39 -44 46 -62z m204 56 c31 -16
108 -105 114 -131 3 -16 3 -28 -1 -28 -5 0 -39 5 -76 10 -55 8 -73 16 -93 38
-39 44 -66 91 -61 106 10 24 76 27 117 5z m3206 -44 c17 -4 22 -14 28 -60 3
-30 3 -73 0 -95 -6 -37 -9 -40 -39 -40 -47 0 -64 8 -80 41 -15 28 -20 123 -9
153 6 16 23 16 100 1z m217 3 c3 -10 -56 -85 -75 -97 -16 -10 -18 -7 -18 29 0
36 4 41 38 59 36 20 52 22 55 9z m692 -128 c0 -171 3 -168 -172 -187 -70 -8
-150 -21 -177 -29 -77 -22 -75 -24 -69 69 9 146 -1 134 160 194 115 43 224 79
253 82 3 1 5 -57 5 -129z m-1347 55 c2 -16 9 -35 16 -40 7 -6 16 -20 20 -31 9
-29 -22 -37 -80 -19 -67 20 -77 31 -59 65 23 44 45 61 74 58 21 -2 27 -9 29
-33z m218 -13 c-4 -11 3 -49 15 -86 11 -38 19 -69 17 -71 -8 -7 -151 -35 -156
-30 -9 9 54 129 88 169 36 40 44 44 36 18z m-710 -87 c19 -8 49 -24 66 -36 35
-25 24 -39 -30 -39 -18 0 -49 -7 -69 -15 -50 -21 -31 -39 63 -60 92 -20 144
-58 126 -92 -25 -46 -151 -78 -260 -67 -39 4 -66 12 -69 20 -3 8 16 79 42 159
52 161 53 163 131 130z m1313 -46 c15 -44 14 -82 -5 -129 -16 -40 -16 -40 -70
-40 -36 0 -69 7 -95 21 -38 19 -41 23 -35 51 3 17 6 37 6 45 0 22 18 5 40 -38
13 -25 27 -39 39 -39 28 0 37 50 16 89 -15 31 -15 31 12 41 15 6 37 14 48 19
30 14 32 13 44 -20z m-1487 -4 c-4 -26 -22 -35 -22 -12 0 10 18 37 26 37 1 0
-1 -11 -4 -25z m-1449 -46 c117 -59 142 -82 182 -165 33 -71 54 -134 43 -134
-2 0 -40 13 -84 29 -43 16 -103 32 -132 36 -51 7 -54 9 -83 60 -18 31 -45 62
-65 74 -33 20 -34 22 -34 82 l0 62 56 -7 c30 -3 83 -20 117 -37z m3566 -37 c5
-9 35 -26 66 -37 93 -31 166 -138 165 -239 l-1 -31 -17 23 c-61 83 -64 85
-147 91 l-78 6 -13 35 c-13 37 -18 128 -8 154 8 21 21 20 33 -2z m-1683 -198
c9 -48 -2 -106 -23 -121 -20 -16 -130 -17 -192 -2 -39 9 -47 7 -64 -9 -20 -21
-18 -25 27 -56 18 -12 19 -18 8 -53 -14 -47 -54 -86 -103 -102 -20 -6 -84 -16
-143 -21 -138 -12 -173 -19 -218 -41 -21 -11 -63 -25 -95 -33 -65 -16 -116
-34 -183 -65 -28 -13 -66 -21 -102 -21 l-56 0 -17 50 c-22 68 -17 100 21 122
16 10 156 47 310 83 153 36 305 76 336 88 61 23 68 34 68 101 0 35 2 38 23 32
12 -3 56 -11 99 -17 98 -16 148 -2 218 57 29 24 58 44 65 44 8 0 17 -15 21
-36z m-501 -34 c3 -5 -3 -10 -14 -10 -11 0 -23 5 -26 10 -3 6 3 10 14 10 11 0
23 -4 26 -10z m1457 -57 c20 -18 25 -96 8 -123 -24 -38 -110 41 -110 101 0 21
6 29 23 32 45 9 61 7 79 -10z m1082 -98 c21 -19 26 -31 20 -48 -10 -35 -24
-47 -55 -47 -24 0 -29 5 -35 34 -4 25 -1 41 13 60 23 32 24 32 57 1z m-261
-34 c22 -9 26 -18 32 -80 7 -75 16 -83 55 -59 25 16 32 8 38 -50 5 -58 -6 -70
-74 -78 -63 -8 -93 15 -138 103 l-33 66 21 21 c12 12 29 37 38 54 19 35 24 37
61 23z m-1612 -103 c23 -25 37 -55 49 -106 l8 -33 -31 26 c-18 14 -45 34 -61
43 -63 38 -68 45 -51 70 9 12 27 22 40 22 13 0 34 -10 46 -22z m1937 -135 c42
-68 52 -109 30 -131 -18 -18 -57 -14 -89 9 -26 18 -29 26 -29 76 0 49 22 113
40 113 3 0 24 -30 48 -67z m-970 -72 l62 -58 0 -76 c0 -83 -3 -87 -70 -87 -31
0 -44 7 -74 40 -19 22 -38 51 -42 65 -16 63 17 176 50 175 6 -1 39 -27 74 -59z
m761 -105 c45 -24 55 -58 59 -208 l4 -138 -39 0 c-56 0 -124 46 -152 102 -35
74 -23 222 22 250 19 12 76 9 106 -6z m-667 -534 c77 -24 98 -45 98 -96 0 -54
-11 -69 -50 -68 -58 1 -120 80 -120 152 0 35 -2 35 72 12z m113 -386 c30 -31
55 -114 55 -188 0 -56 -1 -58 -26 -58 -16 0 -42 14 -64 33 -20 17 -51 44 -68
59 -29 23 -32 32 -32 79 0 46 4 56 28 76 36 29 77 29 107 -1z m-100 -349 c72
-41 68 -107 -10 -144 -31 -15 -36 -15 -59 1 -34 21 -41 54 -26 116 14 59 31
63 95 27z m-154 -222 c28 -9 95 -9 146 -1 l43 8 -11 -31 c-17 -49 -63 -81
-115 -81 -38 0 -51 6 -89 41 -42 39 -45 45 -45 93 l0 51 25 -37 c14 -20 34
-40 46 -43z m16 -407 c25 -20 47 -158 26 -158 -20 0 -75 43 -93 72 -22 37 -27
94 -7 102 15 6 58 -3 74 -16z m34 -344 c20 -35 34 -94 22 -94 -4 0 -25 17 -46
36 -37 34 -38 37 -26 65 14 35 28 33 50 -7z m-57 -125 c33 -15 53 -63 36 -84
-16 -19 -69 -19 -97 0 -22 16 -39 67 -28 85 8 13 58 13 89 -1z m173 -409 c-4
-47 -9 -95 -13 -108 l-7 -23 -24 23 c-35 33 -53 71 -53 114 0 29 7 44 36 71
30 28 39 32 51 21 13 -10 15 -28 10 -98z m92 78 c8 -13 21 -33 29 -45 14 -23
14 -23 -32 -23 l-46 0 0 45 c0 36 3 45 18 45 9 0 23 -10 31 -22z m-587 -55
c20 -18 38 -74 38 -119 0 -38 41 -82 57 -62 6 7 13 25 17 40 4 19 11 26 22 21
20 -7 10 -82 -14 -100 -78 -62 -252 133 -202 226 9 18 17 21 38 16 15 -4 35
-14 44 -22z m1008 -367 c0 -19 -5 -38 -10 -41 -16 -10 -49 4 -61 26 -14 27 5
49 42 49 26 0 29 -3 29 -34z m-426 -141 c9 -13 25 -29 36 -35 17 -9 22 -7 30
15 12 32 43 32 58 0 15 -32 15 -65 2 -99 -8 -22 -13 -25 -42 -19 -49 9 -81 28
-117 68 -35 40 -40 69 -13 84 25 15 28 14 46 -14z m621 -198 c38 -38 61 -102
51 -142 -6 -23 -11 -26 -34 -20 -63 15 -142 96 -142 145 0 60 72 70 125 17z
m-2870 -298 c11 -17 -1 -21 -15 -4 -8 9 -8 15 -2 15 6 0 14 -5 17 -11z"/>
<path d="M9154 5861 c-71 -32 -133 -137 -134 -223 0 -71 25 -122 80 -164 60
-46 104 -106 120 -163 6 -23 15 -92 20 -151 10 -120 16 -138 68 -192 l35 -37
38 22 c25 15 41 32 45 50 7 32 0 153 -22 372 -28 289 -58 405 -117 463 -42 41
-81 48 -133 23z m106 -213 c0 -17 -3 -18 -15 -8 -8 7 -15 21 -15 32 0 17 3 18
15 8 8 -7 15 -21 15 -32z"/>
<path d="M2305 5686 c-9 -13 -29 -29 -45 -36 -36 -15 -35 -14 -10 -55 16 -26
18 -38 10 -60 -20 -51 -12 -68 69 -150 l80 -80 7 -182 7 -183 -45 0 c-38 0
-47 -3 -51 -22 -8 -30 -2 -36 47 -43 23 -4 47 -10 53 -13 6 -4 13 -59 16 -122
6 -144 19 -190 52 -190 31 0 40 27 35 110 -5 93 -4 212 6 395 l9 160 51 -75
c67 -97 112 -139 155 -146 42 -6 95 24 109 62 19 50 -24 99 -176 200 -80 54
-144 117 -131 130 3 3 30 -2 59 -11 157 -52 307 -153 477 -322 90 -89 96 -93
137 -93 41 0 44 2 44 26 0 25 -39 71 -101 117 l-24 18 35 -4 c68 -8 229 -77
640 -272 283 -134 422 -205 437 -223 45 -55 56 -103 50 -222 -3 -60 -10 -117
-16 -128 -9 -17 -23 -20 -91 -23 -65 -3 -83 -8 -101 -25 -29 -29 -19 -53 39
-89 56 -36 58 -59 12 -117 -55 -68 -57 -107 -10 -201 l23 -46 -20 -33 c-20
-35 -16 -78 7 -78 23 0 60 -49 60 -79 0 -33 6 -30 -105 -52 -174 -34 -380 15
-622 147 -148 81 -225 169 -226 262 0 52 17 90 88 190 55 79 75 143 75 241 0
81 -21 145 -63 190 -12 13 -58 41 -102 63 -58 28 -100 59 -155 112 -95 94
-120 106 -212 106 -95 0 -118 -7 -118 -34 0 -11 -11 -40 -25 -64 l-24 -43 20
-55 c14 -37 41 -77 79 -117 l58 -62 -68 -72 c-76 -79 -91 -118 -72 -182 21
-67 32 -75 109 -75 62 -1 75 3 132 37 34 20 67 35 72 32 4 -3 14 -23 20 -45 7
-22 23 -49 35 -61 24 -22 31 -63 16 -86 -6 -10 -26 -11 -84 -3 -41 5 -92 7
-112 3 -45 -7 -84 -45 -92 -90 -24 -129 60 -391 169 -525 24 -29 74 -96 112
-148 38 -52 99 -131 135 -175 125 -154 164 -237 140 -294 -12 -29 -16 -31 -64
-31 -30 0 -61 6 -74 16 -20 13 -22 24 -22 95 0 80 -11 119 -32 119 -7 0 -9
-22 -4 -70 6 -68 6 -70 -17 -70 -55 0 -174 107 -294 265 -33 44 -99 120 -146
168 -93 96 -102 114 -112 227 -3 41 -20 122 -36 180 -16 58 -34 124 -39 147
-8 33 -16 43 -41 52 -27 9 -31 8 -39 -15 -24 -62 -60 -598 -60 -891 l0 -142
43 -19 c24 -11 60 -34 80 -52 21 -18 43 -30 52 -27 8 4 23 24 35 47 11 22 23
40 27 40 13 0 174 -92 202 -116 17 -14 44 -49 61 -79 37 -64 72 -95 109 -95
33 0 51 17 51 46 0 15 14 32 42 51 22 15 55 41 71 57 27 25 36 27 73 22 36 -4
188 25 202 39 2 2 6 30 9 62 5 55 3 61 -33 113 -36 54 -183 250 -343 458 -120
157 -201 333 -201 436 0 62 26 156 43 155 7 0 48 -12 91 -27 l80 -27 15 -81
c22 -112 34 -126 237 -282 39 -31 59 -58 92 -123 52 -105 70 -173 82 -319 12
-146 6 -186 -27 -195 -22 -5 -25 -10 -19 -38 8 -38 22 -52 58 -61 24 -5 29 -3
35 21 18 64 8 248 -22 420 -16 95 -26 175 -23 179 4 3 87 -16 185 -44 186 -53
345 -80 508 -84 l89 -3 41 75 c37 69 64 100 168 192 32 28 39 41 44 86 6 58
17 68 60 57 47 -11 99 -77 124 -155 22 -67 38 -77 39 -22 0 44 32 18 70 -58
25 -49 30 -133 10 -172 -15 -29 -51 -68 -62 -68 -4 0 -8 40 -8 88 0 84 -8 112
-34 112 -5 0 -6 -46 -1 -122 10 -166 10 -174 -25 -259 -17 -41 -34 -92 -37
-115 -5 -39 -3 -42 38 -72 101 -74 147 -69 260 33 45 41 108 95 140 120 63 50
67 48 49 -28 -5 -23 -14 -143 -20 -267 -8 -181 -7 -254 4 -370 19 -191 28
-427 19 -467 l-8 -32 -105 63 c-58 35 -183 110 -279 167 -95 57 -185 112 -200
121 -14 9 -43 20 -63 23 -37 7 -38 6 -38 -21 1 -132 190 -284 620 -501 102
-51 172 -91 155 -87 -43 8 -154 61 -276 131 -125 71 -148 81 -311 134 -69 22
-147 54 -173 70 -46 29 -75 75 -75 119 0 17 -6 20 -45 20 -48 0 -45 5 -70
-101 -8 -34 27 -64 85 -73 22 -3 66 -19 97 -35 32 -16 126 -57 208 -91 83 -34
222 -99 310 -144 88 -45 184 -90 214 -99 72 -23 142 -22 172 2 22 18 24 25 22
113 -1 51 -9 152 -18 223 -67 564 -80 745 -65 950 14 200 10 240 -31 291 -16
21 -33 49 -37 63 -4 14 -7 121 -7 236 0 244 4 257 76 269 l42 7 -6 63 c-3 35
-29 152 -57 260 -27 108 -50 213 -50 234 0 41 -38 115 -60 119 -33 6 -60 -31
-67 -87 -9 -87 -16 -90 -100 -40 -41 24 -43 27 -43 71 0 55 -9 64 -81 85 -70
21 -327 149 -360 180 -14 13 -65 40 -113 60 -49 19 -152 67 -230 106 -160 80
-349 165 -546 245 -132 53 -355 153 -435 195 -22 12 -105 54 -185 94 -80 40
-188 102 -240 138 -112 75 -464 276 -485 276 -8 0 -22 -11 -30 -24z m805
-1268 c0 -6 -24 -35 -53 -63 -56 -54 -122 -85 -184 -85 l-34 0 16 30 c18 34
30 42 150 91 102 43 105 43 105 27z m1378 -42 c15 -8 35 -23 45 -34 18 -20 18
-21 -10 -56 -29 -38 -52 -44 -98 -26 -34 13 -40 32 -25 85 10 37 17 45 37 45
13 0 36 -6 51 -14z m-1236 -77 c10 -34 9 -46 -3 -67 -12 -22 -64 -51 -74 -41
-8 9 18 116 32 132 24 25 31 21 45 -24z m1611 -43 c36 -17 64 -39 78 -62 12
-19 19 -37 17 -40 -5 -4 -308 63 -315 70 -2 1 0 18 3 36 l7 32 77 -4 c58 -3
92 -12 133 -32z m125 -172 l82 -7 31 -45 c38 -56 47 -106 59 -308 9 -160 -1
-570 -15 -607 -6 -15 -51 -35 -59 -26 -2 2 1 38 5 79 10 91 -4 265 -32 404
-30 146 -74 275 -135 402 -30 61 -54 114 -54 118 0 4 8 5 18 2 9 -3 54 -8 100
-12z m-143 -110 c43 -64 70 -137 113 -304 95 -364 95 -529 1 -615 -21 -19 -43
-35 -49 -35 -5 0 -21 23 -36 51 l-26 51 37 57 c65 101 89 160 89 226 1 73 -21
114 -119 224 -37 40 -71 85 -76 98 -11 31 -24 284 -16 307 10 26 39 5 82 -60z
m-454 -62 c10 -25 -3 -28 -48 -11 l-28 11 25 13 c31 18 41 15 51 -13z m47
-233 c-2 -6 -8 -10 -13 -10 -5 0 -11 4 -13 10 -2 6 4 11 13 11 9 0 15 -5 13
-11z m-1665 -638 c78 -98 127 -185 112 -200 -12 -11 -71 32 -97 70 -16 22 -47
49 -73 61 -42 21 -45 24 -45 62 0 38 10 116 15 116 1 0 41 -49 88 -109z m2078
-50 c39 -49 53 -55 89 -36 41 21 44 19 20 -15 -34 -47 -63 -62 -105 -54 -51 9
-80 73 -59 128 9 24 20 20 55 -23z m-1743 -198 c5 -18 -19 -16 -43 3 -19 15
-19 15 9 12 16 -2 31 -9 34 -15z m1727 -813 c4 -6 -5 -10 -19 -10 -14 0 -26 5
-26 10 0 6 9 10 19 10 11 0 23 -4 26 -10z m519 -212 c3 -32 3 -58 -1 -58 -5 0
-23 14 -41 31 l-34 30 27 35 c15 20 31 32 35 27 4 -4 10 -34 14 -65z"/>
<path d="M4850 4595 c0 -16 128 -85 156 -85 26 0 -65 68 -113 84 -37 13 -43
13 -43 1z"/>
<path d="M4840 11805 c0 -13 4 -14 20 -5 11 6 20 13 20 15 0 3 -9 5 -20 5 -11
0 -20 -7 -20 -15z"/>
<path d="M2440 11471 c-48 -15 -87 -40 -123 -80 -20 -23 -37 -46 -37 -51 0 -6
-16 -44 -35 -85 -33 -69 -39 -75 -91 -100 -30 -14 -86 -32 -122 -40 -177 -36
-547 -128 -627 -155 -127 -43 -180 -48 -241 -21 -80 36 -101 21 -139 -100
l-18 -57 -56 -10 c-185 -33 -206 -41 -264 -95 -30 -29 -66 -70 -80 -92 -13
-22 -81 -108 -150 -192 -112 -136 -160 -213 -143 -230 11 -11 66 20 66 37 0
32 40 68 126 115 102 56 206 125 254 170 45 41 266 165 295 165 27 0 55 -29
55 -58 0 -12 -9 -31 -21 -43 -19 -19 -28 -21 -104 -14 l-82 7 -13 -31 c-8 -20
-22 -33 -39 -37 -56 -12 -104 -39 -139 -80 -45 -51 -281 -467 -310 -546 -12
-32 -26 -88 -32 -125 -6 -38 -20 -81 -31 -96 -15 -20 -22 -48 -24 -90 -2 -34
-12 -97 -23 -139 -12 -42 -27 -123 -34 -180 -17 -135 -17 -480 0 -578 90 -510
88 -502 183 -703 63 -133 268 -467 323 -525 17 -18 66 -58 108 -89 42 -31 89
-73 104 -94 33 -48 112 -117 279 -243 72 -54 146 -114 165 -132 42 -40 98 -65
205 -94 115 -31 213 -37 253 -16 73 38 90 142 48 301 -114 439 -137 531 -151
609 -19 109 -19 111 0 96 19 -16 51 -102 86 -235 55 -212 129 -599 129 -679 0
-86 10 -116 44 -137 62 -38 66 -32 66 94 0 138 -10 202 -105 647 -42 195 -92
434 -111 530 -79 394 -159 772 -225 1055 -155 663 -189 817 -213 968 -14 86
-38 227 -52 313 -14 86 -38 190 -53 232 -16 43 -31 96 -35 120 -6 38 -4 43 16
51 24 9 736 193 980 252 132 33 136 35 142 63 3 16 6 41 6 56 0 31 1 31 264
125 82 30 155 60 163 68 10 9 12 26 7 55 l-7 42 -58 0 c-53 0 -61 3 -106 41
-26 23 -62 48 -80 55 -34 15 -151 17 -193 5z m135 -130 c17 -7 14 -10 -20 -19
-105 -27 -146 -19 -71 14 35 15 62 16 91 5z m-1429 -956 c14 -38 15 -50 4 -73
l-12 -27 -11 22 c-7 16 -30 29 -78 45 -38 12 -69 25 -69 28 0 7 108 47 132 49
11 1 22 -14 34 -44z m44 -335 c12 -39 30 -114 41 -167 12 -54 34 -133 49 -178
39 -109 47 -150 70 -348 25 -208 46 -304 75 -332 18 -16 24 -41 34 -135 7 -63
24 -164 38 -225 21 -95 24 -124 18 -210 -4 -61 -2 -119 4 -148 6 -26 12 -75
13 -108 1 -45 6 -63 18 -69 27 -14 54 -180 42 -255 -11 -68 -8 -82 19 -90 10
-4 21 -16 24 -28 6 -25 52 -240 65 -302 5 -22 38 -159 75 -304 36 -145 64
-266 61 -268 -2 -2 -35 -1 -73 4 -52 7 -67 12 -65 23 2 8 6 65 9 125 8 172
-27 332 -129 590 -51 129 -66 145 -133 145 l-51 0 -27 79 c-30 90 -52 219 -62
362 -8 107 1 203 17 193 17 -11 45 -86 58 -157 12 -64 40 -117 62 -117 16 0 4
70 -63 383 -82 384 -99 489 -99 623 0 153 -25 384 -56 519 -40 171 -64 321
-64 396 0 38 2 69 5 69 2 0 14 -32 25 -70z m-440 -34 c-41 -61 -70 -125 -70
-158 0 -26 3 -28 38 -28 33 0 43 6 71 40 17 22 36 40 41 40 6 0 10 -42 10 -95
0 -94 -1 -96 -31 -123 l-30 -27 11 -90 c6 -50 18 -111 25 -136 12 -43 11 -52
-10 -112 -35 -95 -48 -220 -42 -382 6 -165 19 -208 82 -263 l43 -38 -10 -124
c-22 -285 18 -542 102 -659 28 -37 34 -41 75 -41 l44 0 21 66 c24 78 60 251
60 288 0 14 4 26 8 26 19 0 42 -64 51 -142 14 -119 24 -154 171 -587 72 -211
128 -387 124 -390 -3 -3 -19 10 -35 29 -16 19 -70 80 -119 135 -142 158 -314
366 -345 415 -28 46 -72 89 -90 90 -16 0 -60 94 -86 180 -32 108 -68 188 -78
172 -12 -19 3 -87 49 -230 23 -68 39 -129 38 -134 -5 -14 -150 273 -173 342
-12 36 -19 85 -19 140 -1 82 0 87 38 148 36 57 40 71 40 130 1 56 -4 76 -28
120 -16 29 -36 58 -44 65 -17 13 -16 4 9 -161 l13 -82 -46 -48 c-26 -26 -54
-64 -63 -84 -35 -86 -5 -288 65 -435 23 -47 39 -87 37 -90 -8 -8 -66 83 -102
160 -19 39 -43 113 -54 162 -11 50 -36 124 -55 166 -21 45 -46 127 -62 200
-24 112 -27 150 -31 396 -5 283 1 377 37 528 11 44 29 128 40 186 11 58 40
162 64 230 l44 124 40 3 c36 3 45 9 77 53 36 48 74 83 83 74 2 -2 -10 -24 -28
-49z m239 -105 c10 -7 12 -25 6 -80 -6 -65 -9 -71 -30 -71 -13 0 -26 7 -29 16
-11 30 -6 100 10 122 17 24 22 26 43 13z m-65 -700 c10 -9 32 -35 48 -59 16
-23 46 -51 68 -62 21 -11 41 -28 44 -37 3 -10 15 -85 27 -168 32 -227 29 -397
-11 -675 -18 -124 -37 -236 -42 -250 -10 -24 -10 -24 -34 22 -13 26 -36 105
-50 175 -23 113 -25 147 -22 290 2 89 6 165 9 168 4 3 32 10 64 15 32 5 59 11
61 13 2 2 1 25 -2 52 l-7 48 -81 -7 -81 -7 -32 53 c-51 83 -65 251 -37 420 6
35 9 37 33 32 14 -4 34 -14 45 -23z m805 -1078 c18 -117 36 -226 41 -243 7
-26 6 -30 -10 -30 -11 0 -24 9 -30 20 -11 21 -71 461 -69 514 l1 31 18 -40
c10 -22 32 -135 49 -252z"/>
<path d="M1632 10274 c-50 -43 -51 -47 -22 -249 11 -77 20 -181 20 -233 0 -67
6 -109 21 -154 11 -34 38 -181 60 -327 21 -147 45 -300 54 -341 8 -41 21 -118
30 -170 9 -52 29 -138 45 -190 64 -212 159 -623 175 -760 4 -30 24 -165 46
-300 21 -135 44 -293 51 -353 12 -106 12 -108 45 -127 29 -17 33 -24 33 -64 0
-50 23 -176 40 -221 6 -16 20 -72 30 -123 10 -52 25 -101 32 -109 24 -29 209
-10 513 52 149 30 299 64 335 74 36 11 96 27 134 36 81 18 152 48 182 76 11
10 52 30 90 43 47 16 68 28 65 37 -2 8 -6 40 -9 72 -2 31 -8 57 -12 57 -4 0
-44 -12 -90 -26 -75 -24 -84 -25 -92 -10 -27 47 -289 -20 -851 -218 -110 -38
-159 -52 -162 -43 -2 6 -6 53 -9 102 -3 53 -14 115 -26 150 -56 162 -138 537
-170 780 -25 195 -34 236 -165 778 -77 318 -106 457 -111 527 -3 52 -28 218
-55 367 -27 150 -49 289 -49 309 0 19 -9 99 -19 177 -11 78 -24 194 -29 258
-5 63 -15 125 -21 137 -18 34 -60 28 -109 -14z"/>
<path d="M5550 8210 c0 -13 5 -18 15 -14 8 4 15 10 15 14 0 4 -7 10 -15 14
-10 4 -15 -1 -15 -14z"/>
<path d="M5330 7884 c-80 -23 -374 -108 -655 -189 -280 -81 -510 -148 -511
-149 -3 -5 14 -157 19 -162 5 -5 369 97 907 256 116 34 166 45 169 37 2 -7 18
-23 34 -37 42 -36 246 -245 301 -310 48 -57 89 -85 106 -75 16 10 11 68 -9
101 -10 17 -43 51 -72 75 -29 24 -82 72 -118 105 -36 34 -92 86 -125 116 l-59
55 99 27 c55 16 100 29 102 31 2 1 -7 19 -18 38 -15 25 -21 49 -19 76 2 22 1
42 -1 44 -3 2 -70 -15 -150 -39z"/>
<path d="M6064 7861 c-53 -24 -88 -71 -124 -163 -15 -40 -34 -88 -41 -105 -10
-24 -10 -36 -2 -44 17 -17 30 -4 79 72 24 37 50 72 57 76 6 4 63 13 125 19 78
7 117 15 123 25 10 16 12 60 3 84 -18 46 -152 68 -220 36z"/>
<path d="M5387 7392 c-15 -2 -34 -14 -43 -28 -13 -19 -25 -24 -55 -24 -22 0
-39 -4 -39 -9 0 -5 -3 -16 -6 -24 -4 -11 22 -31 91 -73 102 -61 148 -71 171
-40 16 23 6 52 -41 113 -19 25 -35 54 -35 64 0 22 -7 26 -43 21z"/>
<path d="M6660 7013 c-8 -4 -29 -17 -47 -30 -26 -20 -33 -22 -40 -10 -4 9 -17
17 -28 19 -18 3 -20 -3 -23 -52 -4 -64 10 -80 69 -80 32 0 43 7 77 45 35 40
61 105 41 105 -4 0 -13 2 -21 4 -7 3 -20 2 -28 -1z"/>
<path d="M2920 6377 c0 -9 4 -27 10 -41 7 -20 16 -26 40 -26 20 0 33 -6 36
-17 21 -65 29 -76 70 -93 23 -10 67 -41 98 -69 44 -40 63 -51 90 -51 32 0 34
2 40 43 7 38 5 44 -20 62 -15 11 -66 51 -113 89 -93 74 -144 101 -209 112 -34
5 -42 4 -42 -9z"/>
<path d="M11203 6294 c-6 -16 7 -128 67 -589 17 -126 37 -291 45 -365 8 -74
22 -196 30 -270 14 -120 14 -143 1 -210 -14 -70 -13 -94 15 -400 38 -411 40
-505 14 -544 l-19 -29 21 12 c30 15 68 14 103 -4 29 -15 30 -16 23 -78 -3 -34
-7 -64 -9 -66 -2 -2 -22 4 -44 14 -41 18 -170 145 -170 167 0 6 14 36 30 65
17 30 38 81 46 114 18 68 9 109 -32 158 -22 27 -25 39 -27 143 -2 98 -6 121
-29 171 -30 63 -51 77 -120 77 -44 0 -73 -18 -162 -100 -191 -176 -306 -395
-342 -648 -22 -159 -45 -306 -47 -307 -1 0 -18 -7 -37 -14 -19 -8 -64 -24 -99
-36 -58 -20 -77 -36 -80 -67 -1 -12 75 -9 179 6 75 12 473 129 583 171 34 14
17 -19 -37 -71 -89 -86 -245 -151 -554 -228 -77 -20 -193 -56 -259 -80 l-118
-45 -5 72 c-7 91 -20 117 -63 117 -35 0 -94 -31 -103 -55 -3 -8 4 -28 16 -45
12 -16 19 -34 16 -39 -3 -5 -50 -16 -103 -26 -170 -30 -265 -56 -366 -102
-107 -49 -200 -84 -206 -78 -13 14 64 94 173 179 43 33 88 68 99 77 19 16 19
17 2 63 -19 49 -25 52 -75 35 -40 -14 -52 0 -44 52 11 68 -15 327 -40 393 -13
33 -26 79 -30 101 -8 43 -31 85 -46 85 -6 0 -27 -15 -48 -34 -26 -24 -63 -83
-117 -188 -92 -179 -186 -349 -239 -432 -55 -85 -77 -140 -78 -197 -2 -60 10
-74 62 -73 l39 1 -6 -46 c-3 -25 -6 -47 -7 -47 -1 -1 -68 -45 -151 -99 -172
-111 -225 -157 -225 -195 0 -51 11 -70 39 -70 49 0 151 30 233 67 l81 37 18
-22 c9 -12 19 -27 21 -33 7 -20 460 99 623 163 89 35 105 39 156 33 70 -8 70
-9 235 120 72 56 141 108 153 115 50 26 206 75 406 125 251 64 353 100 460
162 100 58 150 99 216 180 29 34 61 65 71 69 10 3 33 -4 51 -15 45 -28 110
-41 129 -27 9 6 27 29 42 50 22 33 26 49 26 112 0 89 -29 320 -75 594 -48 289
-60 386 -100 800 -78 809 -129 1090 -197 1090 -5 0 -11 -7 -15 -16z m-15
-1761 c12 -28 16 -68 17 -157 0 -114 -1 -119 -24 -134 -13 -9 -60 -59 -104
-111 -72 -86 -85 -97 -128 -108 -122 -31 -142 -53 -128 -138 4 -27 8 -57 8
-66 1 -17 -101 -129 -117 -129 -20 0 19 289 55 404 44 140 91 220 212 355 76
85 124 121 164 121 23 0 31 -7 45 -37z m-18 -523 c-17 -32 -80 -24 -80 11 0
11 19 40 43 66 l42 46 3 -51 c2 -28 -2 -61 -8 -72z m-77 -99 c18 -18 -5 -53
-46 -72 -55 -25 -77 -24 -77 1 0 26 25 76 42 84 17 7 70 -2 81 -13z m137 -133
c-27 -22 -75 -21 -75 2 0 8 16 22 35 31 30 15 36 15 49 1 13 -13 12 -17 -9
-34z m-1875 -106 c-20 -38 -58 -94 -85 -123 -48 -52 -49 -53 -50 -26 0 49 156
264 167 230 3 -7 -12 -43 -32 -81z m95 -114 c0 -80 -19 -149 -61 -229 -27 -50
-47 -73 -94 -105 -73 -52 -183 -109 -192 -101 -3 4 0 29 8 57 11 38 48 92 169
244 85 108 158 196 163 196 4 0 7 -28 7 -62z m485 -398 c15 -24 -147 -99 -390
-180 -88 -29 -177 -61 -197 -71 -40 -20 -84 -24 -107 -10 -56 36 132 136 379
202 136 37 260 65 297 68 6 1 15 -3 18 -9z"/>
<path d="M6634 4561 c-46 -28 -64 -76 -64 -169 0 -98 5 -105 119 -168 132 -72
156 -69 212 23 12 21 26 40 29 43 31 23 40 113 16 158 -55 105 -224 167 -312
113z m154 -97 c33 -23 52 -67 52 -119 0 -54 -14 -63 -71 -46 -60 18 -99 58
-106 107 -4 35 -2 44 18 58 30 20 78 21 107 0z"/>
<path d="M6237 4455 c-25 -15 -61 -24 -107 -28 -80 -7 -138 -31 -150 -61 -10
-27 -27 -41 -60 -51 -14 -4 -35 -17 -47 -28 -28 -25 -30 -71 -9 -272 16 -149
36 -421 43 -597 l5 -108 32 -20 c17 -11 36 -23 43 -28 7 -4 17 -39 22 -77 13
-88 21 -376 12 -435 -3 -25 -1 -106 6 -180 6 -74 17 -218 23 -320 15 -249 14
-245 51 -260 57 -24 75 -83 58 -189 l-10 -66 42 -36 c39 -33 45 -35 78 -27 20
6 80 18 135 29 114 22 168 44 286 121 47 30 130 80 186 111 56 31 128 76 161
101 l60 44 72 -6 72 -5 46 44 c75 73 90 135 52 219 -43 95 -139 166 -215 157
-91 -10 -141 -79 -135 -187 2 -36 4 -87 5 -115 l1 -50 -69 -17 c-127 -32 -463
-82 -476 -71 -10 9 19 39 61 63 71 40 105 69 179 154 60 68 70 84 70 117 0 51
-33 74 -108 74 -60 0 -60 0 -202 -170 l-65 -78 -17 39 c-9 22 -26 84 -37 139
-34 171 -111 762 -111 859 0 50 -7 122 -15 161 -8 38 -15 78 -15 88 0 31 82
73 174 90 100 18 244 87 263 126 18 37 41 46 64 25 10 -9 19 -23 19 -31 0 -27
190 -89 239 -78 45 10 86 64 102 133 9 43 -8 166 -31 218 -9 23 -38 62 -63 88
l-45 47 -63 -16 c-76 -20 -153 -60 -172 -89 -8 -12 -22 -45 -31 -73 -10 -29
-21 -55 -24 -57 -7 -4 -201 80 -216 94 -10 10 69 69 103 76 72 15 171 84 171
120 0 25 -65 63 -121 71 l-54 8 0 50 c-1 53 -18 95 -38 95 -7 0 -48 18 -90 39
-43 22 -84 42 -91 44 -7 3 -29 -5 -49 -18z m141 -142 c2 -9 -7 -13 -27 -13
-30 0 -39 9 -24 24 11 10 46 3 51 -11z m-235 -96 c19 -13 46 -110 47 -164 0
-35 -46 -83 -81 -83 -18 0 -19 8 -19 123 0 68 3 127 7 130 10 11 27 8 46 -6z
m361 -60 c33 -24 -11 -67 -69 -67 -28 0 -29 4 -14 49 9 24 17 31 38 31 15 0
35 -6 45 -13z m410 -212 c39 -51 56 -98 56 -154 0 -40 -4 -53 -22 -65 -58 -41
-145 0 -187 87 -41 85 -15 153 62 160 23 2 47 4 53 5 7 1 24 -14 38 -33z
m-694 -54 c15 -30 12 -52 -12 -78 -27 -28 -48 -29 -82 -2 -35 28 -33 42 12 72
45 31 68 33 82 8z m240 -26 c53 -27 74 -52 85 -101 6 -30 3 -34 -43 -62 -61
-37 -131 -62 -177 -62 -19 0 -35 2 -35 5 0 3 16 25 35 50 43 57 52 100 31 150
-9 20 -16 39 -16 41 0 14 79 0 120 -21z m-280 -160 c0 -9 -9 -15 -25 -15 -24
0 -32 10 -18 23 12 13 43 7 43 -8z m102 -1429 c20 -75 24 -156 8 -156 -30 0
-60 117 -60 230 l1 55 16 -30 c9 -16 25 -61 35 -99z m353 56 c-4 -21 -30 -50
-85 -96 -80 -67 -125 -89 -79 -38 14 15 43 51 64 81 34 48 93 97 103 86 2 -2
1 -17 -3 -33z m507 11 c8 -10 27 -40 42 -66 54 -94 13 -140 -63 -71 -43 38
-48 57 -35 123 7 35 32 41 56 14z m-627 -433 c-32 -33 -95 -43 -95 -16 0 28
30 46 78 46 l46 0 -29 -30z m-195 -39 c0 -6 -4 -13 -10 -16 -5 -3 -10 1 -10 9
0 9 5 16 10 16 6 0 10 -4 10 -9z"/>
<path d="M6775 3543 l-47 -47 -1 -95 c-2 -119 9 -144 93 -200 77 -51 111 -58
174 -34 59 22 70 47 60 138 -13 122 -72 228 -147 264 -63 30 -80 27 -132 -26z
m123 -81 c39 -41 69 -109 77 -171 7 -52 7 -53 -16 -46 -88 26 -166 115 -152
174 6 28 40 71 56 71 5 0 21 -13 35 -28z"/>
<path d="M6779 3017 c-72 -48 -90 -147 -43 -239 56 -111 174 -198 247 -183
133 28 156 178 51 332 -72 105 -177 142 -255 90z m86 -88 c7 -31 9 -33 58 -44
23 -5 34 -18 58 -70 34 -76 36 -100 10 -115 -79 -42 -201 65 -201 175 0 54 16
85 44 85 19 0 26 -7 31 -31z"/>
<path d="M9575 15 l-60 -13 50 -1 c28 0 61 6 75 14 30 17 16 17 -65 0z"/>
</g>
</svg>
