  0
SECTION
  2
HEADER
  9
$ACADVER
  1
AC1018
  9
$ACADMAINTVER
 70
     0
  9
$DWGCODEPAGE
  3
ANSI_1252
  9
$INSBASE
 10
0.0
 20
0.0
 30
0.0
  9
$EXTMIN
 10
1.000000000000000E+20
 20
1.000000000000000E+20
 30
1.000000000000000E+20
  9
$EXTMAX
 10
-1.000000000000000E+20
 20
-1.000000000000000E+20
 30
-1.000000000000000E+20
  9
$LIMMIN
 10
0.0
 20
0.0
  9
$LIMMAX
 10
12.0
 20
9.0
  9
$ORTHOMODE
 70
     0
  9
$REGENMODE
 70
     1
  9
$FILLMODE
 70
     1
  9
$QTEXTMODE
 70
     0
  9
$MIRRTEXT
 70
     1
  9
$LTSCALE
 40
1.0
  9
$ATTMODE
 70
     1
  9
$TEXTSIZE
 40
0.2
  9
$TRACEWID
 40
0.05
  9
$TEXTSTYLE
  7
Standard
  9
$CLAYER
  8
0
  9
$CELTYPE
  6
ByLayer
  9
$CECOLOR
 62
   256
  9
$CELTSCALE
 40
1.0
  9
$DISPSILH
 70
     0
  9
$DIMSCALE
 40
1.0
  9
$DIMASZ
 40
0.18
  9
$DIMEXO
 40
0.0625
  9
$DIMDLI
 40
0.38
  9
$DIMRND
 40
0.0
  9
$DIMDLE
 40
0.0
  9
$DIMEXE
 40
0.18
  9
$DIMTP
 40
0.0
  9
$DIMTM
 40
0.0
  9
$DIMTXT
 40
0.18
  9
$DIMCEN
 40
0.09
  9
$DIMTSZ
 40
0.0
  9
$DIMTOL
 70
     0
  9
$DIMLIM
 70
     0
  9
$DIMTIH
 70
     1
  9
$DIMTOH
 70
     1
  9
$DIMSE1
 70
     0
  9
$DIMSE2
 70
     0
  9
$DIMTAD
 70
     0
  9
$DIMZIN
 70
     0
  9
$DIMBLK
  1

  9
$DIMASO
 70
     1
  9
$DIMSHO
 70
     1
  9
$DIMPOST
  1

  9
$DIMAPOST
  1

  9
$DIMALT
 70
     0
  9
$DIMALTD
 70
     2
  9
$DIMALTF
 40
25.4
  9
$DIMLFAC
 40
1.0
  9
$DIMTOFL
 70
     0
  9
$DIMTVP
 40
0.0
  9
$DIMTIX
 70
     0
  9
$DIMSOXD
 70
     0
  9
$DIMSAH
 70
     0
  9
$DIMBLK1
  1

  9
$DIMBLK2
  1

  9
$DIMSTYLE
  2
Standard
  9
$DIMCLRD
 70
     0
  9
$DIMCLRE
 70
     0
  9
$DIMCLRT
 70
     0
  9
$DIMTFAC
 40
1.0
  9
$DIMGAP
 40
0.09
  9
$DIMJUST
 70
     0
  9
$DIMSD1
 70
     0
  9
$DIMSD2
 70
     0
  9
$DIMTOLJ
 70
     1
  9
$DIMTZIN
 70
     0
  9
$DIMALTZ
 70
     0
  9
$DIMALTTZ
 70
     0
  9
$DIMUPT
 70
     0
  9
$DIMDEC
 70
     4
  9
$DIMTDEC
 70
     4
  9
$DIMALTU
 70
     2
  9
$DIMALTTD
 70
     2
  9
$DIMTXSTY
  7
Standard
  9
$DIMAUNIT
 70
     0
  9
$DIMADEC
 70
     0
  9
$DIMALTRND
 40
0.0
  9
$DIMAZIN
 70
     0
  9
$DIMDSEP
 70
    46
  9
$DIMATFIT
 70
     3
  9
$DIMFRAC
 70
     0
  9
$DIMLDRBLK
  1

  9
$DIMLUNIT
 70
     2
  9
$DIMLWD
 70
    -2
  9
$DIMLWE
 70
    -2
  9
$DIMTMOVE
 70
     0
  9
$LUNITS
 70
     2
  9
$LUPREC
 70
     4
  9
$SKETCHINC
 40
0.1
  9
$FILLETRAD
 40
0.5
  9
$AUNITS
 70
     0
  9
$AUPREC
 70
     0
  9
$MENU
  1
.
  9
$ELEVATION
 40
0.0
  9
$PELEVATION
 40
0.0
  9
$THICKNESS
 40
0.0
  9
$LIMCHECK
 70
     0
  9
$CHAMFERA
 40
0.5
  9
$CHAMFERB
 40
0.5
  9
$CHAMFERC
 40
1.0
  9
$CHAMFERD
 40
0.0
  9
$SKPOLY
 70
     0
  9
$TDCREATE
 40
2457900.533762037
  9
$TDUCREATE
 40
2457900.700428704
  9
$TDUPDATE
 40
2457900.533762048
  9
$TDUUPDATE
 40
2457900.700428715
  9
$TDINDWG
 40
0.0000000116
  9
$TDUSRTIMER
 40
0.0000000116
  9
$USRTIMER
 70
     1
  9
$ANGBASE
 50
0.0
  9
$ANGDIR
 70
     0
  9
$PDMODE
 70
     0
  9
$PDSIZE
 40
0.0
  9
$PLINEWID
 40
0.0
  9
$SPLFRAME
 70
     0
  9
$SPLINETYPE
 70
     6
  9
$SPLINESEGS
 70
     8
  9
$HANDSEED
  5
58
  9
$SURFTAB1
 70
     6
  9
$SURFTAB2
 70
     6
  9
$SURFTYPE
 70
     6
  9
$SURFU
 70
     6
  9
$SURFV
 70
     6
  9
$UCSBASE
  2

  9
$UCSNAME
  2

  9
$UCSORG
 10
0.0
 20
0.0
 30
0.0
  9
$UCSXDIR
 10
1.0
 20
0.0
 30
0.0
  9
$UCSYDIR
 10
0.0
 20
1.0
 30
0.0
  9
$UCSORTHOREF
  2

  9
$UCSORTHOVIEW
 70
     0
  9
$UCSORGTOP
 10
0.0
 20
0.0
 30
0.0
  9
$UCSORGBOTTOM
 10
0.0
 20
0.0
 30
0.0
  9
$UCSORGLEFT
 10
0.0
 20
0.0
 30
0.0
  9
$UCSORGRIGHT
 10
0.0
 20
0.0
 30
0.0
  9
$UCSORGFRONT
 10
0.0
 20
0.0
 30
0.0
  9
$UCSORGBACK
 10
0.0
 20
0.0
 30
0.0
  9
$PUCSBASE
  2

  9
$PUCSNAME
  2

  9
$PUCSORG
 10
0.0
 20
0.0
 30
0.0
  9
$PUCSXDIR
 10
1.0
 20
0.0
 30
0.0
  9
$PUCSYDIR
 10
0.0
 20
1.0
 30
0.0
  9
$PUCSORTHOREF
  2

  9
$PUCSORTHOVIEW
 70
     0
  9
$PUCSORGTOP
 10
0.0
 20
0.0
 30
0.0
  9
$PUCSORGBOTTOM
 10
0.0
 20
0.0
 30
0.0
  9
$PUCSORGLEFT
 10
0.0
 20
0.0
 30
0.0
  9
$PUCSORGRIGHT
 10
0.0
 20
0.0
 30
0.0
  9
$PUCSORGFRONT
 10
0.0
 20
0.0
 30
0.0
  9
$PUCSORGBACK
 10
0.0
 20
0.0
 30
0.0
  9
$USERI1
 70
     0
  9
$USERI2
 70
     0
  9
$USERI3
 70
     0
  9
$USERI4
 70
     0
  9
$USERI5
 70
     0
  9
$USERR1
 40
0.0
  9
$USERR2
 40
0.0
  9
$USERR3
 40
0.0
  9
$USERR4
 40
0.0
  9
$USERR5
 40
0.0
  9
$WORLDVIEW
 70
     1
  9
$SHADEDGE
 70
     3
  9
$SHADEDIF
 70
    70
  9
$TILEMODE
 70
     1
  9
$MAXACTVP
 70
    64
  9
$PINSBASE
 10
0.0
 20
0.0
 30
0.0
  9
$PLIMCHECK
 70
     0
  9
$PEXTMIN
 10
1.000000000000000E+20
 20
1.000000000000000E+20
 30
1.000000000000000E+20
  9
$PEXTMAX
 10
-1.000000000000000E+20
 20
-1.000000000000000E+20
 30
-1.000000000000000E+20
  9
$PLIMMIN
 10
0.0
 20
0.0
  9
$PLIMMAX
 10
12.0
 20
9.0
  9
$UNITMODE
 70
     0
  9
$VISRETAIN
 70
     1
  9
$PLINEGEN
 70
     0
  9
$PSLTSCALE
 70
     1
  9
$TREEDEPTH
 70
  3020
  9
$CMLSTYLE
  2
Standard
  9
$CMLJUST
 70
     0
  9
$CMLSCALE
 40
1.0
  9
$PROXYGRAPHICS
 70
     1
  9
$MEASUREMENT
 70
     0
  9
$CELWEIGHT
370
    -1
  9
$ENDCAPS
280
     0
  9
$JOINSTYLE
280
     0
  9
$LWDISPLAY
290
     1
  9
$INSUNITS
 70
     1
  9
$HYPERLINKBASE
  1

  9
$STYLESHEET
  1

  9
$XEDIT
290
     1
  9
$CEPSNTYPE
380
     0
  9
$PSTYLEMODE
290
     1
  9
$FINGERPRINTGUID
  2
{43F4B910-9CB8-4738-9514-DE78D77338FF}
  9
$VERSIONGUID
  2
{FAEB1C32-E019-11D5-929B-00C0DF256EC4}
  9
$EXTNAMES
290
     1
  9
$PSVPSCALE
 40
0.0
  9
$OLESTARTUP
290
     0
  9
$SORTENTS
280
   127
  9
$INDEXCTL
280
     0
  9
$HIDETEXT
280
     1
  9
$XCLIPFRAME
290
     0
  9
$HALOGAP
280
     0
  9
$OBSCOLOR
 70
   257
  9
$OBSLTYPE
280
     0
  9
$INTERSECTIONDISPLAY
280
     0
  9
$INTERSECTIONCOLOR
 70
   257
  9
$DIMASSOC
280
     2
  9
$PROJECTNAME
  1

  0
ENDSEC
  0
SECTION
  2
CLASSES
  0
CLASS
  1
ACDBDICTIONARYWDFLT
  2
AcDbDictionaryWithDefault
  3
ObjectDBX Classes
 90
        0
 91
        3
280
     0
281
     0
  0
CLASS
  1
VISUALSTYLE
  2
AcDbVisualStyle
  3
ObjectDBX Classes
 90
     4095
 91
        3
280
     0
281
     0
  0
ENDSEC
  0
SECTION
  2
TABLES
  0
TABLE
  2
VPORT
  5
8
330
0
100
AcDbSymbolTable
 70
     1
  0
VPORT
  5
29
330
8
100
AcDbSymbolTableRecord
100
AcDbViewportTableRecord
  2
*Active
 70
     0
 10
0.0
 20
0.0
 11
1.0
 21
1.0
 12
0.0
 22
0.0
 13
0.0
 23
0.0
 14
0.5
 24
0.5
 15
0.5
 25
0.5
 16
0.0
 26
0.0
 36
1.0
 17
11.99305555555556
 27
12.00694444444444
 37
0.0
 40
5.999999999999998
 41
1.0
 42
50.0
 43
0.0
 44
0.0
 50
0.0
 51
0.0
 71
     0
 72
   100
 73
     1
 74
     3
 75
     0
 76
     0
 77
     0
 78
     0
281
     0
 65
     1
110
0.0
120
0.0
130
0.0
111
1.0
121
0.0
131
0.0
112
0.0
122
1.0
132
0.0
 79
     0
146
0.0
  0
ENDTAB
  0
TABLE
  2
LTYPE
  5
5
330
0
100
AcDbSymbolTable
 70
     1
  0
LTYPE
  5
14
330
5
100
AcDbSymbolTableRecord
100
AcDbLinetypeTableRecord
  2
ByBlock
 70
     0
  3

 72
    65
 73
     0
 40
0.0
  0
LTYPE
  5
15
330
5
100
AcDbSymbolTableRecord
100
AcDbLinetypeTableRecord
  2
ByLayer
 70
     0
  3

 72
    65
 73
     0
 40
0.0
  0
LTYPE
  5
16
330
5
100
AcDbSymbolTableRecord
100
AcDbLinetypeTableRecord
  2
Continuous
 70
     0
  3
Solid line
 72
    65
 73
     0
 40
0.0
  0
ENDTAB
  0
TABLE
  2
LAYER
  5
2
330
0
100
AcDbSymbolTable
 70
     2
  0
LAYER
  5
10
330
2
100
AcDbSymbolTableRecord
100
AcDbLayerTableRecord
  2
0
 70
     0
 62
     7
  6
Continuous
370
    -3
390
F
  0
LAYER
  5
3B
330
2
100
AcDbSymbolTableRecord
100
AcDbLayerTableRecord
  2
Calque 1
 70
     0
 62
     7
  6
Continuous
370
    -3
390
F
  0
ENDTAB
  0
TABLE
  2
STYLE
  5
3
330
0
100
AcDbSymbolTable
 70
     1
  0
STYLE
  5
11
330
3
100
AcDbSymbolTableRecord
100
AcDbTextStyleTableRecord
  2
Standard
 70
     0
 40
0.0
 41
1.0
 50
0.0
 71
     0
 42
0.2
  3
txt
  4

  0
ENDTAB
  0
TABLE
  2
VIEW
  5
6
330
0
100
AcDbSymbolTable
 70
     0
  0
ENDTAB
  0
TABLE
  2
UCS
  5
7
330
0
100
AcDbSymbolTable
 70
     0
  0
ENDTAB
  0
TABLE
  2
APPID
  5
9
330
0
100
AcDbSymbolTable
 70
     1
  0
APPID
  5
12
330
9
100
AcDbSymbolTableRecord
100
AcDbRegAppTableRecord
  2
ACAD
 70
     0
  0
ENDTAB
  0
TABLE
  2
DIMSTYLE
  5
A
330
0
100
AcDbSymbolTable
 70
     1
100
AcDbDimStyleTable
  0
DIMSTYLE
105
27
330
A
100
AcDbSymbolTableRecord
100
AcDbDimStyleTableRecord
  2
Standard
 70
     0
340
11
  0
ENDTAB
  0
TABLE
  2
BLOCK_RECORD
  5
1
330
0
100
AcDbSymbolTable
 70
     2
  0
BLOCK_RECORD
  5
1F
330
1
100
AcDbSymbolTableRecord
100
AcDbBlockTableRecord
  2
*Model_Space
340
22
  0
BLOCK_RECORD
  5
1B
330
1
100
AcDbSymbolTableRecord
100
AcDbBlockTableRecord
  2
*Paper_Space
340
1E
  0
BLOCK_RECORD
  5
23
330
1
100
AcDbSymbolTableRecord
100
AcDbBlockTableRecord
  2
*Paper_Space0
340
26
  0
BLOCK_RECORD
  5
3C
330
1
100
AcDbSymbolTableRecord
100
AcDbBlockTableRecord
  2
block 2
340
0
102
{BLKREFS
331
3D
102
}
  0
ENDTAB
  0
ENDSEC
  0
SECTION
  2
BLOCKS
  0
BLOCK
  5
20
330
1F
100
AcDbEntity
  8
0
100
AcDbBlockBegin
  2
*Model_Space
 70
     0
 71
     0
 10
0.0
 20
0.0
 30
0.0
  3
*Model_Space
  1

  0
ENDBLK
  5
21
330
1F
100
AcDbEntity
  8
0
100
AcDbBlockEnd
  0
BLOCK
  5
1C
330
1B
100
AcDbEntity
 67
     1
  8
0
100
AcDbBlockBegin
  2
*Paper_Space
 70
     0
 71
     0
 10
0.0
 20
0.0
 30
0.0
  3
*Paper_Space
  1

  0
ENDBLK
  5
1D
330
1B
100
AcDbEntity
 67
     1
  8
0
100
AcDbBlockEnd
  0
BLOCK
  5
24
330
23
100
AcDbEntity
  8
0
100
AcDbBlockBegin
  2
*Paper_Space0
 70
     0
 71
     0
 10
0.0
 20
0.0
 30
0.0
  3
*Paper_Space0
  1

  0
ENDBLK
  5
25
330
23
100
AcDbEntity
  8
0
100
AcDbBlockEnd
  0
BLOCK
  5
3E
330
3C
100
AcDbEntity
  8
0
100
AcDbBlockBegin
  2
block 2
 70
     0
 71
     0
 10
0.0
 20
0.0
 30
0.0
  3
block 2
  1

  0
SPLINE
  5
40
330
3C
100
AcDbEntity
  8
Calque 1
370
     0
100
AcDbSpline
210
0.0
220
0.0
230
1.0
 70
    11
 71
     3
 72
   404
 73
   400
 74
     0
 42
0.0000000001
 43
0.0000000001
 40
0.0
 40
0.0
 40
0.0
 40
0.0
 40
1.0
 40
1.0
 40
1.0
 40
2.0
 40
2.0
 40
2.0
 40
3.0
 40
3.0
 40
3.0
 40
4.0
 40
4.0
 40
4.0
 40
5.0
 40
5.0
 40
5.0
 40
6.0
 40
6.0
 40
6.0
 40
7.0
 40
7.0
 40
7.0
 40
8.0
 40
8.0
 40
8.0
 40
9.0
 40
9.0
 40
9.0
 40
10.0
 40
10.0
 40
10.0
 40
11.0
 40
11.0
 40
11.0
 40
12.0
 40
12.0
 40
12.0
 40
13.0
 40
13.0
 40
13.0
 40
14.0
 40
14.0
 40
14.0
 40
15.0
 40
15.0
 40
15.0
 40
16.0
 40
16.0
 40
16.0
 40
17.0
 40
17.0
 40
17.0
 40
18.0
 40
18.0
 40
18.0
 40
19.0
 40
19.0
 40
19.0
 40
20.0
 40
20.0
 40
20.0
 40
21.0
 40
21.0
 40
21.0
 40
22.0
 40
22.0
 40
22.0
 40
23.0
 40
23.0
 40
23.0
 40
24.0
 40
24.0
 40
24.0
 40
25.0
 40
25.0
 40
25.0
 40
26.0
 40
26.0
 40
26.0
 40
27.0
 40
27.0
 40
27.0
 40
28.0
 40
28.0
 40
28.0
 40
29.0
 40
29.0
 40
29.0
 40
30.0
 40
30.0
 40
30.0
 40
31.0
 40
31.0
 40
31.0
 40
32.0
 40
32.0
 40
32.0
 40
33.0
 40
33.0
 40
33.0
 40
34.0
 40
34.0
 40
34.0
 40
35.0
 40
35.0
 40
35.0
 40
36.0
 40
36.0
 40
36.0
 40
37.0
 40
37.0
 40
37.0
 40
38.0
 40
38.0
 40
38.0
 40
39.0
 40
39.0
 40
39.0
 40
40.0
 40
40.0
 40
40.0
 40
41.0
 40
41.0
 40
41.0
 40
42.0
 40
42.0
 40
42.0
 40
43.0
 40
43.0
 40
43.0
 40
44.0
 40
44.0
 40
44.0
 40
45.0
 40
45.0
 40
45.0
 40
46.0
 40
46.0
 40
46.0
 40
47.0
 40
47.0
 40
47.0
 40
48.0
 40
48.0
 40
48.0
 40
49.0
 40
49.0
 40
49.0
 40
50.0
 40
50.0
 40
50.0
 40
51.0
 40
51.0
 40
51.0
 40
52.0
 40
52.0
 40
52.0
 40
53.0
 40
53.0
 40
53.0
 40
54.0
 40
54.0
 40
54.0
 40
55.0
 40
55.0
 40
55.0
 40
56.0
 40
56.0
 40
56.0
 40
57.0
 40
57.0
 40
57.0
 40
58.0
 40
58.0
 40
58.0
 40
59.0
 40
59.0
 40
59.0
 40
60.0
 40
60.0
 40
60.0
 40
61.0
 40
61.0
 40
61.0
 40
62.0
 40
62.0
 40
62.0
 40
63.0
 40
63.0
 40
63.0
 40
64.0
 40
64.0
 40
64.0
 40
65.0
 40
65.0
 40
65.0
 40
66.0
 40
66.0
 40
66.0
 40
67.0
 40
67.0
 40
67.0
 40
68.0
 40
68.0
 40
68.0
 40
69.0
 40
69.0
 40
69.0
 40
70.0
 40
70.0
 40
70.0
 40
71.0
 40
71.0
 40
71.0
 40
72.0
 40
72.0
 40
72.0
 40
73.0
 40
73.0
 40
73.0
 40
74.0
 40
74.0
 40
74.0
 40
75.0
 40
75.0
 40
75.0
 40
76.0
 40
76.0
 40
76.0
 40
77.0
 40
77.0
 40
77.0
 40
78.0
 40
78.0
 40
78.0
 40
79.0
 40
79.0
 40
79.0
 40
80.0
 40
80.0
 40
80.0
 40
81.0
 40
81.0
 40
81.0
 40
82.0
 40
82.0
 40
82.0
 40
83.0
 40
83.0
 40
83.0
 40
84.0
 40
84.0
 40
84.0
 40
85.0
 40
85.0
 40
85.0
 40
86.0
 40
86.0
 40
86.0
 40
87.0
 40
87.0
 40
87.0
 40
88.0
 40
88.0
 40
88.0
 40
89.0
 40
89.0
 40
89.0
 40
90.0
 40
90.0
 40
90.0
 40
91.0
 40
91.0
 40
91.0
 40
92.0
 40
92.0
 40
92.0
 40
93.0
 40
93.0
 40
93.0
 40
94.0
 40
94.0
 40
94.0
 40
95.0
 40
95.0
 40
95.0
 40
96.0
 40
96.0
 40
96.0
 40
97.0
 40
97.0
 40
97.0
 40
98.0
 40
98.0
 40
98.0
 40
99.0
 40
99.0
 40
99.0
 40
100.0
 40
100.0
 40
100.0
 40
101.0
 40
101.0
 40
101.0
 40
102.0
 40
102.0
 40
102.0
 40
103.0
 40
103.0
 40
103.0
 40
104.0
 40
104.0
 40
104.0
 40
105.0
 40
105.0
 40
105.0
 40
106.0
 40
106.0
 40
106.0
 40
107.0
 40
107.0
 40
107.0
 40
108.0
 40
108.0
 40
108.0
 40
109.0
 40
109.0
 40
109.0
 40
110.0
 40
110.0
 40
110.0
 40
111.0
 40
111.0
 40
111.0
 40
112.0
 40
112.0
 40
112.0
 40
113.0
 40
113.0
 40
113.0
 40
114.0
 40
114.0
 40
114.0
 40
115.0
 40
115.0
 40
115.0
 40
116.0
 40
116.0
 40
116.0
 40
117.0
 40
117.0
 40
117.0
 40
118.0
 40
118.0
 40
118.0
 40
119.0
 40
119.0
 40
119.0
 40
120.0
 40
120.0
 40
120.0
 40
121.0
 40
121.0
 40
121.0
 40
122.0
 40
122.0
 40
122.0
 40
123.0
 40
123.0
 40
123.0
 40
124.0
 40
124.0
 40
124.0
 40
125.0
 40
125.0
 40
125.0
 40
126.0
 40
126.0
 40
126.0
 40
127.0
 40
127.0
 40
127.0
 40
128.0
 40
128.0
 40
128.0
 40
129.0
 40
129.0
 40
129.0
 40
130.0
 40
130.0
 40
130.0
 40
131.0
 40
131.0
 40
131.0
 40
132.0
 40
132.0
 40
132.0
 40
133.0
 40
133.0
 40
133.0
 40
133.0
 10
13.15787760416667
 20
11.59294976128472
 30
0.0
 10
13.16290961371528
 20
11.62388780381944
 30
0.0
 10
13.16748046875
 20
11.64896647135417
 30
0.0
 10
13.17100694444444
 20
11.67422146267361
 30
0.0
 10
13.18703884548611
 20
11.78889973958333
 30
0.0
 10
13.21823459201389
 20
11.89857313368056
 30
0.0
 10
13.27909342447917
 20
11.99814181857639
 30
0.0
 10
13.31268988715278
 20
12.0531005859375
 30
0.0
 10
13.35465494791667
 20
12.09988064236111
 30
0.0
 10
13.41339789496528
 20
12.12980143229167
 30
0.0
 10
13.43585883246528
 20
12.14122178819444
 30
0.0
 10
13.45952690972222
 20
12.14670138888889
 30
0.0
 10
13.48391384548611
 20
12.14857313368056
 30
0.0
 10
13.51958550347222
 20
12.15128580729167
 30
0.0
 10
13.55145941840278
 20
12.12962510850694
 30
0.0
 10
13.56724717881944
 20
12.09293619791667
 30
0.0
 10
13.58565266927083
 20
12.05021158854167
 30
0.0
 10
13.59261067708333
 20
12.00519476996528
 30
0.0
 10
13.58902994791667
 20
11.95899793836806
 30
0.0
 10
13.57987467447917
 20
11.8404541015625
 30
0.0
 10
13.55376519097222
 20
11.72562662760417
 30
0.0
 10
13.51090494791667
 20
11.61467827690972
 30
0.0
 10
13.47395833333333
 20
11.51894802517361
 30
0.0
 10
13.43241373697917
 20
11.42526584201389
 30
0.0
 10
13.3841552734375
 20
11.33470323350694
 30
0.0
 10
13.37373860677083
 20
11.31514485677083
 30
0.0
 10
13.36919487847222
 20
11.296142578125
 30
0.0
 10
13.37154134114583
 20
11.27403428819444
 30
0.0
 10
13.38481987847222
 20
11.14885796440972
 30
0.0
 10
13.39954969618056
 20
11.02388509114583
 30
0.0
 10
13.43117947048611
 20
10.90171983506944
 30
0.0
 10
13.44432237413194
 20
10.85088433159722
 30
0.0
 10
13.46271430121528
 20
10.8018798828125
 30
0.0
 10
13.49551052517361
 20
10.75969780815972
 30
0.0
 10
13.5009765625
 20
10.75267198350694
 30
0.0
 10
13.50667317708333
 20
10.74574110243056
 30
0.0
 10
13.51292588975694
 20
10.73943413628472
 30
0.0
 10
13.5517578125
 20
10.70024956597222
 30
0.0
 10
13.59990776909722
 20
10.69883897569444
 30
0.0
 10
13.64063856336806
 20
10.73588053385417
 30
0.0
 10
13.67262098524306
 20
10.76498752170139
 30
0.0
 10
13.69369845920139
 20
10.80156792534722
 30
0.0
 10
13.71061197916667
 20
10.84073893229167
 30
0.0
 10
13.74782986111111
 20
10.92706976996528
 30
0.0
 10
13.77122667100694
 20
11.01768663194444
 30
0.0
 10
13.79315863715278
 20
11.10872395833333
 30
0.0
 10
13.81038411458333
 20
11.18018934461806
 30
0.0
 10
13.82421875
 20
11.25237358940972
 30
0.0
 10
13.83588324652778
 20
11.32496473524306
 30
0.0
 10
13.83745659722222
 20
11.33473036024306
 30
0.0
 10
13.84035915798611
 20
11.3446044921875
 30
0.0
 10
13.84450954861111
 20
11.35359700520833
 30
0.0
 10
13.84840223524306
 20
11.36203342013889
 30
0.0
 10
13.85629611545139
 20
11.3673095703125
 30
0.0
 10
13.8662109375
 20
11.36625162760417
 30
0.0
 10
13.87741427951389
 20
11.36501736111111
 30
0.0
 10
13.88495551215278
 20
11.35784233940972
 30
0.0
 10
13.88663736979167
 20
11.34714084201389
 30
0.0
 10
13.88815646701389
 20
11.33738878038194
 30
0.0
 10
13.8880615234375
 20
11.32705349392361
 30
0.0
 10
13.88675944010417
 20
11.31723361545139
 30
0.0
 10
13.87212456597222
 20
11.20684136284722
 30
0.0
 10
13.86083984375
 20
11.09586588541667
 30
0.0
 10
13.83383517795139
 20
10.98746744791667
 30
0.0
 10
13.81167263454861
 20
10.89853244357639
 30
0.0
 10
13.78460015190972
 20
10.81108940972222
 30
0.0
 10
13.73288302951389
 20
10.73426649305556
 30
0.0
 10
13.69780815972222
 20
10.68218315972222
 30
0.0
 10
13.65224880642361
 20
10.642822265625
 30
0.0
 10
13.58718532986111
 20
10.630615234375
 30
0.0
 10
13.53895399305556
 20
10.62156846788194
 30
0.0
 10
13.49697536892361
 20
10.63716634114583
 30
0.0
 10
13.45619032118056
 20
10.65865071614583
 30
0.0
 10
13.38643391927083
 20
10.69538031684028
 30
0.0
 10
13.33425564236111
 20
10.75086805555556
 30
0.0
 10
13.29086642795139
 20
10.81574164496528
 30
0.0
 10
13.2486572265625
 20
10.87883843315972
 30
0.0
 10
13.21575249565972
 20
10.94631618923611
 30
0.0
 10
13.19204372829861
 20
11.02396647135417
 30
0.0
 10
13.17532009548611
 20
11.00375705295139
 30
0.0
 10
13.1611328125
 20
10.98731825086806
 30
0.0
 10
13.147705078125
 20
10.97028266059028
 30
0.0
 10
13.11383734809028
 20
10.92731391059028
 30
0.0
 10
13.07695855034722
 20
10.88709852430556
 30
0.0
 10
13.03811306423611
 20
10.8486328125
 30
0.0
 10
13.01266818576389
 20
10.82344563802083
 30
0.0
 10
12.98499891493056
 20
10.80105251736111
 30
0.0
 10
12.95362684461806
 20
10.78351508246528
 30
0.0
 10
12.861083984375
 20
10.73171657986111
 30
0.0
 10
12.7757568359375
 20
10.76019965277778
 30
0.0
 10
12.71316189236111
 20
10.82999674479167
 30
0.0
 10
12.65304904513889
 20
10.89704047309028
 30
0.0
 10
12.61638726128472
 20
10.97625054253472
 30
0.0
 10
12.60017903645833
 20
11.06488715277778
 30
0.0
 10
12.59756130642361
 20
11.07911512586806
 30
0.0
 10
12.59433322482639
 20
11.09326171875
 30
0.0
 10
12.59122721354167
 20
11.107421875
 30
0.0
 10
12.59077962239583
 20
11.10953776041667
 30
0.0
 10
12.58950466579861
 20
11.11146375868056
 30
0.0
 10
12.58793131510417
 20
11.11503092447917
 30
0.0
 10
12.578857421875
 20
11.11154513888889
 30
0.0
 10
12.57649739583333
 20
11.10270182291667
 30
0.0
 10
12.57276746961806
 20
11.09573025173611
 30
0.0
 10
12.53875054253472
 20
11.03179253472222
 30
0.0
 10
12.50507269965278
 20
10.96766493055556
 30
0.0
 10
12.47120496961806
 20
10.90363226996528
 30
0.0
 10
12.44609917534722
 20
10.85614691840278
 30
0.0
 10
12.41762966579861
 20
10.81095377604167
 30
0.0
 10
12.37939453125
 20
10.77273220486111
 30
0.0
 10
12.31818305121528
 20
10.71153428819444
 30
0.0
 10
12.25385199652778
 20
10.70762803819444
 30
0.0
 10
12.18587239583333
 20
10.76209852430556
 30
0.0
 10
12.14557562934028
 20
10.79439290364583
 30
0.0
 10
12.11287434895833
 20
10.8338623046875
 30
0.0
 10
12.08486599392361
 20
10.877197265625
 30
0.0
 10
12.07463921440972
 20
10.89307996961806
 30
0.0
 10
12.06414116753472
 20
10.90877278645833
 30
0.0
 10
12.05217827690972
 20
10.92694769965278
 30
0.0
 10
12.03795030381944
 20
10.91366916232639
 30
0.0
 10
12.03133138020833
 20
10.89742024739583
 30
0.0
 10
12.02322048611111
 20
10.882568359375
 30
0.0
 10
11.98297797309028
 20
10.80870225694444
 30
0.0
 10
11.93467881944444
 20
10.74085828993056
 30
0.0
 10
11.87476942274306
 20
10.68155924479167
 30
0.0
 10
11.85483127170139
 20
10.66183810763889
 30
0.0
 10
11.83319769965278
 20
10.64558919270833
 30
0.0
 10
11.80501302083333
 20
10.63772243923611
 30
0.0
 10
11.75254991319444
 20
10.62303331163194
 30
0.0
 10
11.70951334635417
 20
10.63994683159722
 30
0.0
 10
11.67475043402778
 20
10.67698838975694
 30
0.0
 10
11.60899522569444
 20
10.7470703125
 30
0.0
 10
11.56404622395833
 20
10.83011881510417
 30
0.0
 10
11.53278266059028
 20
10.92060004340278
 30
0.0
 10
11.48866102430556
 20
11.04825846354167
 30
0.0
 10
11.47032335069444
 20
11.17994520399306
 30
0.0
 10
11.47178819444444
 20
11.31475151909722
 30
0.0
 10
11.47256130642361
 20
11.38703070746528
 30
0.0
 10
11.471923828125
 20
11.45932345920139
 30
0.0
 10
11.471923828125
 20
11.53293185763889
 30
0.0
 10
11.4588623046875
 20
11.5367431640625
 30
0.0
 10
11.44806586371528
 20
11.52982584635417
 30
0.0
 10
11.43716091579861
 20
11.52604166666667
 30
0.0
 10
11.39388020833333
 20
11.51091851128472
 30
0.0
 10
11.34996202256944
 20
11.49905056423611
 30
0.0
 10
11.30398220486111
 20
11.49579535590278
 30
0.0
 10
11.27610948350694
 20
11.49384223090278
 30
0.0
 10
11.27620442708333
 20
11.49348958333333
 30
0.0
 10
11.27320692274306
 20
11.46461317274306
 30
0.0
 10
11.262939453125
 20
11.36576334635417
 30
0.0
 10
11.24685329861111
 20
11.26787651909722
 30
0.0
 10
11.2176513671875
 20
11.17275661892361
 30
0.0
 10
11.18490939670139
 20
11.06614854600694
 30
0.0
 10
11.14507378472222
 20
10.962158203125
 30
0.0
 10
11.09091525607639
 20
10.86431206597222
 30
0.0
 10
11.06869845920139
 20
10.82421875
 30
0.0
 10
11.04206000434028
 20
10.78706868489583
 30
0.0
 10
11.00812445746528
 20
10.75575086805556
 30
0.0
 10
10.95746527777778
 20
10.70901150173611
 30
0.0
 10
10.90652126736111
 20
10.70735677083333
 30
0.0
 10
10.85199652777778
 20
10.75006781684028
 30
0.0
 10
10.80126953125
 20
10.78980848524306
 30
0.0
 10
10.769775390625
 20
10.84308539496528
 30
0.0
 10
10.74471028645833
 20
10.9010009765625
 30
0.0
 10
10.69638400607639
 20
11.01258680555556
 30
0.0
 10
10.68012152777778
 20
11.12982855902778
 30
0.0
 10
10.68410915798611
 20
11.25044759114583
 30
0.0
 10
10.68668619791667
 20
11.32835557725694
 30
0.0
 10
10.68999565972222
 20
11.40623643663194
 30
0.0
 10
10.69268120659722
 20
11.48411729600694
 30
0.0
 10
10.69303385416667
 20
11.49476453993056
 30
0.0
 10
10.69569227430556
 20
11.50576443142361
 30
0.0
 10
10.69117567274306
 20
11.51679144965278
 30
0.0
 10
10.67857530381944
 20
11.51486545138889
 30
0.0
 10
10.67561848958333
 20
11.50406901041667
 30
0.0
 10
10.67023383246528
 20
11.49643283420139
 30
0.0
 10
10.62108018663194
 20
11.42679850260417
 30
0.0
 10
10.58616807725694
 20
11.34963650173611
 30
0.0
 10
10.55190700954861
 20
11.27212185329861
 30
0.0
 10
10.52081976996528
 20
11.20172797309028
 30
0.0
 10
10.49945746527778
 20
11.12763129340278
 30
0.0
 10
10.46969943576389
 20
11.05672200520833
 30
0.0
 10
10.46021864149306
 20
11.03411187065972
 30
0.0
 10
10.45090060763889
 20
11.0113525390625
 30
0.0
 10
10.43718804253472
 20
10.99088541666667
 30
0.0
 10
10.41290961371528
 20
10.95461697048611
 30
0.0
 10
10.37904188368056
 20
10.94660101996528
 30
0.0
 10
10.34194607204861
 20
10.96930609809028
 30
0.0
 10
10.3131103515625
 20
10.98695203993056
 30
0.0
 10
10.2900390625
 20
11.01146104600694
 30
0.0
 10
10.26904296875
 20
11.0374755859375
 30
0.0
 10
10.20633951822917
 20
11.11519368489583
 30
0.0
 10
10.16685655381944
 20
11.20319281684028
 30
0.0
 10
10.14659288194444
 20
11.30137803819444
 30
0.0
 10
10.1231689453125
 20
11.41493055555556
 30
0.0
 10
10.10799153645833
 20
11.52959526909722
 30
0.0
 10
10.09221733940972
 20
11.64408365885417
 30
0.0
 10
10.07960340711806
 20
11.64876302083333
 30
0.0
 10
10.07275390625
 20
11.63974338107639
 30
0.0
 10
10.06549750434028
 20
11.63372124565972
 30
0.0
 10
10.01007758246528
 20
11.58757866753472
 30
0.0
 10
9.973809136284721
 20
11.5281982421875
 30
0.0
 10
9.948052300347221
 20
11.46176486545139
 30
0.0
 10
9.946858723958332
 20
11.45865885416667
 30
0.0
 10
9.946763780381945
 20
11.45515950520833
 30
0.0
 10
9.945638020833332
 20
11.45203993055556
 30
0.0
 10
9.938517252604166
 20
11.43222384982639
 30
0.0
 10
9.926744249131945
 20
11.42437065972222
 30
0.0
 10
9.91128200954861
 20
11.42892795138889
 30
0.0
 10
9.89638943142361
 20
11.43330891927083
 30
0.0
 10
9.890082465277777
 20
11.44688585069444
 30
0.0
 10
9.89431423611111
 20
11.46725802951389
 30
0.0
 10
9.8961181640625
 20
11.4759521484375
 30
0.0
 10
9.89870876736111
 20
11.48463270399306
 30
0.0
 10
9.902140299479166
 20
11.49281141493056
 30
0.0
 10
9.936984592013888
 20
11.57600911458333
 30
0.0
 10
9.984022352430555
 20
11.65110948350694
 30
0.0
 10
10.05103895399306
 20
11.71244303385417
 30
0.0
 10
10.10605197482639
 20
11.76280381944444
 30
0.0
 10
10.16715494791667
 20
11.76235622829861
 30
0.0
 10
10.22515190972222
 20
11.71488444010417
 30
0.0
 10
10.25674099392361
 20
11.68903266059028
 30
0.0
 10
10.27490234375
 20
11.65544976128472
 30
0.0
 10
10.29009331597222
 20
11.61928982204861
 30
0.0
 10
10.31964789496528
 20
11.54896375868056
 30
0.0
 10
10.33269585503472
 20
11.47417534722222
 30
0.0
 10
10.34853786892361
 20
11.40018717447917
 30
0.0
 10
10.36676703559028
 20
11.31503634982639
 30
0.0
 10
10.37505425347222
 20
11.22856987847222
 30
0.0
 10
10.38052029079861
 20
11.14183213975694
 30
0.0
 10
10.38264973958333
 20
11.10826280381944
 30
0.0
 10
10.39055718315972
 20
11.07596842447917
 30
0.0
 10
10.39638943142361
 20
11.0435791015625
 30
0.0
 10
10.40870496961806
 20
11.04136827256944
 30
0.0
 10
10.41014268663194
 20
11.05098470052083
 30
0.0
 10
10.41328938802083
 20
11.05723741319444
 30
0.0
 10
10.42833116319444
 20
11.08722601996528
 30
0.0
 10
10.43768988715278
 20
11.11943901909722
 30
0.0
 10
10.44802517361111
 20
11.15120442708333
 30
0.0
 10
10.50273980034722
 20
11.3194580078125
 30
0.0
 10
10.57821994357639
 20
11.47800021701389
 30
0.0
 10
10.67041015625
 20
11.6287841796875
 30
0.0
 10
10.68202039930556
 20
11.64777289496528
 30
0.0
 10
10.69354926215278
 20
11.6668701171875
 30
0.0
 10
10.70582411024306
 20
11.68543836805556
 30
0.0
 10
10.74439832899306
 20
11.74366590711806
 30
0.0
 10
10.81075032552083
 20
11.74801974826389
 30
0.0
 10
10.8587646484375
 20
11.69788953993056
 30
0.0
 10
10.8902587890625
 20
11.66499837239583
 30
0.0
 10
10.90016004774306
 20
11.62457953559028
 30
0.0
 10
10.90511067708333
 20
11.58232964409722
 30
0.0
 10
10.9119873046875
 20
11.52360026041667
 30
0.0
 10
10.90976291232639
 20
11.46468098958333
 30
0.0
 10
10.90728081597222
 20
11.40561252170139
 30
0.0
 10
10.90367296006944
 20
11.31886121961806
 30
0.0
 10
10.90284559461806
 20
11.23202853732639
 30
0.0
 10
10.90702311197917
 20
11.14508734809028
 30
0.0
 10
10.91065809461806
 20
11.06948513454861
 30
0.0
 10
10.90935601128472
 20
10.99362521701389
 30
0.0
 10
10.91018337673611
 20
10.91787380642361
 30
0.0
 10
10.91048177083333
 20
10.89107259114583
 30
0.0
 10
10.91196017795139
 20
10.8643798828125
 30
0.0
 10
10.91592068142361
 20
10.83787706163194
 30
0.0
 10
10.91707356770833
 20
10.83017306857639
 30
0.0
 10
10.91783311631944
 20
10.82227918836806
 30
0.0
 10
10.92027452256944
 20
10.81496853298611
 30
0.0
 10
10.92781575520833
 20
10.79249403211806
 30
0.0
 10
10.93766276041667
 20
10.78879123263889
 30
0.0
 10
10.95762803819444
 20
10.80055067274306
 30
0.0
 10
10.97328016493056
 20
10.80976019965278
 30
0.0
 10
10.98513454861111
 20
10.82314724392361
 30
0.0
 10
10.99616156684028
 20
10.83725314670139
 30
0.0
 10
11.02518717447917
 20
10.87444390190972
 30
0.0
 10
11.04610188802083
 20
10.91644965277778
 30
0.0
 10
11.066162109375
 20
10.95868598090278
 30
0.0
 10
11.14436848958333
 20
11.12345377604167
 30
0.0
 10
11.18775770399306
 20
11.29787868923611
 30
0.0
 10
11.20936414930556
 20
11.47842068142361
 30
0.0
 10
11.21188693576389
 20
11.49945746527778
 30
0.0
 10
11.20320638020833
 20
11.50595431857639
 30
0.0
 10
11.18644205729167
 20
11.5113525390625
 30
0.0
 10
11.08962673611111
 20
11.54253472222222
 30
0.0
 10
10.99990505642361
 20
11.69700792100694
 30
0.0
 10
11.01536729600694
 20
11.80442979600694
 30
0.0
 10
11.01890733506944
 20
11.8289794921875
 30
0.0
 10
11.02505154079861
 20
11.85260687934028
 30
0.0
 10
11.03792317708333
 20
11.87388780381944
 30
0.0
 10
11.07400173611111
 20
11.93345811631944
 30
0.0
 10
11.14013671875
 20
11.94224717881944
 30
0.0
 10
11.19057888454861
 20
11.89398871527778
 30
0.0
 10
11.21266004774306
 20
11.87285698784722
 30
0.0
 10
11.22770182291667
 20
11.84688313802083
 30
0.0
 10
11.2386474609375
 20
11.81842719184028
 30
0.0
 10
11.26040310329861
 20
11.76182725694444
 30
0.0
 10
11.27145724826389
 20
11.70284016927083
 30
0.0
 10
11.27756076388889
 20
11.64283582899306
 30
0.0
 10
11.27948676215278
 20
11.6240234375
 30
0.0
 10
11.27950032552083
 20
11.60498046875
 30
0.0
 10
11.27994791666667
 20
11.58604600694444
 30
0.0
 10
11.28084309895833
 20
11.55014377170139
 30
0.0
 10
11.28069390190972
 20
11.55049641927083
 30
0.0
 10
11.31787109375
 20
11.55341254340278
 30
0.0
 10
11.368408203125
 20
11.557373046875
 30
0.0
 10
11.4158935546875
 20
11.57344563802083
 30
0.0
 10
11.46370442708333
 20
11.58858235677083
 30
0.0
 10
11.47458224826389
 20
11.59201388888889
 30
0.0
 10
11.48023817274306
 20
11.59845648871528
 30
0.0
 10
11.48322211371528
 20
11.60899522569444
 30
0.0
 10
11.48807779947917
 20
11.62613932291667
 30
0.0
 10
11.49359809027778
 20
11.64307996961806
 30
0.0
 10
11.49898274739583
 20
11.66007486979167
 30
0.0
 10
11.51368543836806
 20
11.70644802517361
 30
0.0
 10
11.55483669704861
 20
11.73486328125
 30
0.0
 10
11.60031467013889
 20
11.73008897569444
 30
0.0
 10
11.64204915364583
 20
11.72573513454861
 30
0.0
 10
11.67430284288194
 20
11.68716091579861
 30
0.0
 10
11.68024359809028
 20
11.63982476128472
 30
0.0
 10
11.69098578559028
 20
11.554443359375
 30
0.0
 10
11.68926323784722
 20
11.46891276041667
 30
0.0
 10
11.68824598524306
 20
11.38319227430556
 30
0.0
 10
11.68758138020833
 20
11.32652452256944
 30
0.0
 10
11.69095865885417
 20
11.26976182725694
 30
0.0
 10
11.6939697265625
 20
11.21310763888889
 30
0.0
 10
11.69905598958333
 20
11.11745876736111
 30
0.0
 10
11.69736056857639
 20
11.02166069878472
 30
0.0
 10
11.70081922743056
 20
10.92598470052083
 30
0.0
 10
11.70252821180556
 20
10.87913682725694
 30
0.0
 10
11.70775010850694
 20
10.83268229166667
 30
0.0
 10
11.71964518229167
 20
10.78717719184028
 30
0.0
 10
11.72589789496528
 20
10.76327853732639
 30
0.0
 10
11.73451063368056
 20
10.74046495225694
 30
0.0
 10
11.75010850694444
 20
10.72087944878472
 30
0.0
 10
11.76628960503472
 20
10.7005615234375
 30
0.0
 10
11.78238932291667
 20
10.69691297743056
 30
0.0
 10
11.80575900607639
 20
10.70856391059028
 30
0.0
 10
11.82301161024306
 20
10.7171630859375
 30
0.0
 10
11.83664279513889
 20
10.73042805989583
 30
0.0
 10
11.84982638888889
 20
10.74409993489583
 30
0.0
 10
11.91796875
 20
10.81476508246528
 30
0.0
 10
11.966552734375
 20
10.89838324652778
 30
0.0
 10
12.01021321614583
 20
10.98537868923611
 30
0.0
 10
12.01589626736111
 20
10.9967041015625
 30
0.0
 10
12.01505533854167
 20
11.00637478298611
 30
0.0
 10
12.010498046875
 20
11.01715766059028
 30
0.0
 10
11.96478949652778
 20
11.12547471788194
 30
0.0
 10
11.95026312934028
 20
11.23989529079861
 30
0.0
 10
11.94132486979167
 20
11.35592990451389
 30
0.0
 10
11.93497721354167
 20
11.43832736545139
 30
0.0
 10
11.93245442708333
 20
11.52064344618056
 30
0.0
 10
11.9359130859375
 20
11.60308159722222
 30
0.0
 10
11.93962944878472
 20
11.69160970052083
 30
0.0
 10
11.95412868923611
 20
11.77827962239583
 30
0.0
 10
11.99392361111111
 20
11.85866970486111
 30
0.0
 10
12.01688639322917
 20
11.90506998697917
 30
0.0
 10
12.04446072048611
 20
11.94798448350694
 30
0.0
 10
12.0948486328125
 20
11.97003851996528
 30
0.0
 10
12.14710828993056
 20
11.99290635850694
 30
0.0
 10
12.19912380642361
 20
11.98139105902778
 30
0.0
 10
12.23616536458333
 20
11.9375
 30
0.0
 10
12.267333984375
 20
11.90056694878472
 30
0.0
 10
12.28179253472222
 20
11.85641818576389
 30
0.0
 10
12.28937445746528
 20
11.8095703125
 30
0.0
 10
12.30002170138889
 20
11.74384223090278
 30
0.0
 10
12.29234483506944
 20
11.67829047309028
 30
0.0
 10
12.28681098090278
 20
11.61280653211806
 30
0.0
 10
12.27643500434028
 20
11.48971896701389
 30
0.0
 10
12.24671766493056
 20
11.37101236979167
 30
0.0
 10
12.20000542534722
 20
11.2569580078125
 30
0.0
 10
12.18471950954861
 20
11.2196044921875
 30
0.0
 10
12.17869737413194
 20
11.18339029947917
 30
0.0
 10
12.18360731336806
 20
11.14351399739583
 30
0.0
 10
12.19285753038194
 20
11.06827799479167
 30
0.0
 10
12.2003173828125
 20
10.99278428819444
 30
0.0
 10
12.22238498263889
 20
10.91989474826389
 30
0.0
 10
12.23175726996528
 20
10.88892957899306
 30
0.0
 10
12.24466959635417
 20
10.85930718315972
 30
0.0
 10
12.26516384548611
 20
10.83355034722222
 30
0.0
 10
12.28948296440972
 20
10.80299207899306
 30
0.0
 10
12.30186631944444
 20
10.80125596788194
 30
0.0
 10
12.33049858940972
 20
10.82713487413194
 30
0.0
 10
12.36973741319444
 20
10.86263020833333
 30
0.0
 10
12.3995361328125
 20
10.906005859375
 30
0.0
 10
12.42747667100694
 20
10.95027669270833
 30
0.0
 10
12.48164876302083
 20
11.03607855902778
 30
0.0
 10
12.52776421440972
 20
11.12650553385417
 30
0.0
 10
12.5765380859375
 20
11.21539984809028
 30
0.0
 10
12.58383517795139
 20
11.22867838541667
 30
0.0
 10
12.58449978298611
 20
11.24296061197917
 30
0.0
 10
12.58512369791667
 20
11.25751410590278
 30
0.0
 10
12.58832465277778
 20
11.33237033420139
 30
0.0
 10
12.59707302517361
 20
11.40643988715278
 30
0.0
 10
12.62270779079861
 20
11.47732204861111
 30
0.0
 10
12.65336100260417
 20
11.56212022569444
 30
0.0
 10
12.70229763454861
 20
11.63328721788194
 30
0.0
 10
12.77879503038194
 20
11.68405490451389
 30
0.0
 10
12.88202582465278
 20
11.7525634765625
 30
0.0
 10
13.02251519097222
 20
11.73407660590278
 30
0.0
 10
13.11181640625
 20
11.64156087239583
 30
0.0
 10
13.12567816840278
 20
11.62718370225694
 30
0.0
 10
13.13926866319444
 20
11.61260308159722
 30
0.0
 10
13.15787760416667
 20
11.59294976128472
 30
0.0
  0
SPLINE
  5
41
330
3C
100
AcDbEntity
  8
Calque 1
370
     0
100
AcDbSpline
210
0.0
220
0.0
230
1.0
 70
    11
 71
     3
 72
    47
 73
    43
 74
     0
 42
0.0000000001
 43
0.0000000001
 40
0.0
 40
0.0
 40
0.0
 40
0.0
 40
1.0
 40
1.0
 40
1.0
 40
2.0
 40
2.0
 40
2.0
 40
3.0
 40
3.0
 40
3.0
 40
4.0
 40
4.0
 40
4.0
 40
5.0
 40
5.0
 40
5.0
 40
6.0
 40
6.0
 40
6.0
 40
7.0
 40
7.0
 40
7.0
 40
8.0
 40
8.0
 40
8.0
 40
9.0
 40
9.0
 40
9.0
 40
10.0
 40
10.0
 40
10.0
 40
11.0
 40
11.0
 40
11.0
 40
12.0
 40
12.0
 40
12.0
 40
13.0
 40
13.0
 40
13.0
 40
14.0
 40
14.0
 40
14.0
 40
14.0
 10
13.15085177951389
 20
11.3504638671875
 30
0.0
 10
13.15085177951389
 20
11.38236490885417
 30
0.0
 10
13.15072970920139
 20
11.42022026909722
 30
0.0
 10
13.15096028645833
 20
11.45807562934028
 30
0.0
 10
13.15101453993056
 20
11.46638997395833
 30
0.0
 10
13.14796278211806
 20
11.473388671875
 30
0.0
 10
13.14370388454861
 20
11.47988552517361
 30
0.0
 10
13.11130099826389
 20
11.52914767795139
 30
0.0
 10
13.07090928819444
 20
11.5693359375
 30
0.0
 10
13.01691351996528
 20
11.59526909722222
 30
0.0
 10
12.95745171440972
 20
11.62384711371528
 30
0.0
 10
12.91067165798611
 20
11.59712727864583
 30
0.0
 10
12.88264973958333
 20
11.56301540798611
 30
0.0
 10
12.86497667100694
 20
11.54147677951389
 30
0.0
 10
12.85092502170139
 20
11.51734754774306
 30
0.0
 10
12.84129503038194
 20
11.49088541666667
 30
0.0
 10
12.81206597222222
 20
11.41041395399306
 30
0.0
 10
12.79983181423611
 20
11.32668728298611
 30
0.0
 10
12.79989963107639
 20
11.2418212890625
 30
0.0
 10
12.79996744791667
 20
11.15839301215278
 30
0.0
 10
12.80246310763889
 20
11.07484266493056
 30
0.0
 10
12.81138780381944
 20
10.99168565538194
 30
0.0
 10
12.81556532118056
 20
10.95267740885417
 30
0.0
 10
12.8221435546875
 20
10.91444227430556
 30
0.0
 10
12.84178331163194
 20
10.87973361545139
 30
0.0
 10
12.86054144965278
 20
10.84658474392361
 30
0.0
 10
12.88113064236111
 20
10.83917914496528
 30
0.0
 10
12.91703287760417
 20
10.85260687934028
 30
0.0
 10
12.93916829427083
 20
10.86089409722222
 30
0.0
 10
12.95872667100694
 20
10.87360297309028
 30
0.0
 10
12.97734917534722
 20
10.88795301649306
 30
0.0
 10
13.04949273003472
 20
10.94357638888889
 30
0.0
 10
13.10677083333333
 20
11.01319715711806
 30
0.0
 10
13.16240776909722
 20
11.0843505859375
 30
0.0
 10
13.16876898871528
 20
11.09251573350694
 30
0.0
 10
13.17258029513889
 20
11.10062662760417
 30
0.0
 10
13.17019314236111
 20
11.11191134982639
 30
0.0
 10
13.16021050347222
 20
11.15889485677083
 30
0.0
 10
13.15813530815972
 20
11.20686848958333
 30
0.0
 10
13.15428331163194
 20
11.25455729166667
 30
0.0
 10
13.15188259548611
 20
11.284423828125
 30
0.0
 10
13.14706759982639
 20
11.31434461805556
 30
0.0
 10
13.15085177951389
 20
11.3504638671875
 30
0.0
  0
SPLINE
  5
42
330
3C
100
AcDbEntity
  8
Calque 1
370
     0
100
AcDbSpline
210
0.0
220
0.0
230
1.0
 70
    11
 71
     3
 72
    32
 73
    28
 74
     0
 42
0.0000000001
 43
0.0000000001
 40
0.0
 40
0.0
 40
0.0
 40
0.0
 40
1.0
 40
1.0
 40
1.0
 40
2.0
 40
2.0
 40
2.0
 40
3.0
 40
3.0
 40
3.0
 40
4.0
 40
4.0
 40
4.0
 40
5.0
 40
5.0
 40
5.0
 40
6.0
 40
6.0
 40
6.0
 40
7.0
 40
7.0
 40
7.0
 40
8.0
 40
8.0
 40
8.0
 40
9.0
 40
9.0
 40
9.0
 40
9.0
 10
13.36843532986111
 20
11.43937174479167
 30
0.0
 10
13.37089029947917
 20
11.43901909722222
 30
0.0
 10
13.37334526909722
 20
11.43866644965278
 30
0.0
 10
13.37577311197917
 20
11.43831380208333
 30
0.0
 10
13.43665907118056
 20
11.563720703125
 30
0.0
 10
13.48385959201389
 20
11.69399685329861
 30
0.0
 10
13.51359049479167
 20
11.83048502604167
 30
0.0
 10
13.5250244140625
 20
11.88297526041667
 30
0.0
 10
13.53005642361111
 20
11.93599446614583
 30
0.0
 10
13.52665201822917
 20
11.98971896701389
 30
0.0
 10
13.52537706163194
 20
12.00986056857639
 30
0.0
 10
13.52176920572917
 20
12.02936469184028
 30
0.0
 10
13.51410590277778
 20
12.04816351996528
 30
0.0
 10
13.50853135850694
 20
12.061767578125
 30
0.0
 10
13.50210232204861
 20
12.06144205729167
 30
0.0
 10
13.49220106336806
 20
12.05192057291667
 30
0.0
 10
13.47412109375
 20
12.03457302517361
 30
0.0
 10
13.46207682291667
 20
12.01346842447917
 30
0.0
 10
13.45209418402778
 20
11.99099392361111
 30
0.0
 10
13.43154568142361
 20
11.94481065538194
 30
0.0
 10
13.42289225260417
 20
11.89543999565972
 30
0.0
 10
13.41366916232639
 20
11.84621853298611
 30
0.0
 10
13.39499240451389
 20
11.74656846788194
 30
0.0
 10
13.38353135850694
 20
11.64596896701389
 30
0.0
 10
13.37422688802083
 20
11.54512532552083
 30
0.0
 10
13.37101236979167
 20
11.50998263888889
 30
0.0
 10
13.37030707465278
 20
11.47462293836806
 30
0.0
 10
13.36843532986111
 20
11.43937174479167
 30
0.0
  0
SPLINE
  5
43
330
3C
100
AcDbEntity
  8
Calque 1
370
     0
100
AcDbSpline
210
0.0
220
0.0
230
1.0
 70
    11
 71
     3
 72
    32
 73
    28
 74
     0
 42
0.0000000001
 43
0.0000000001
 40
0.0
 40
0.0
 40
0.0
 40
0.0
 40
1.0
 40
1.0
 40
1.0
 40
2.0
 40
2.0
 40
2.0
 40
3.0
 40
3.0
 40
3.0
 40
4.0
 40
4.0
 40
4.0
 40
5.0
 40
5.0
 40
5.0
 40
6.0
 40
6.0
 40
6.0
 40
7.0
 40
7.0
 40
7.0
 40
8.0
 40
8.0
 40
8.0
 40
9.0
 40
9.0
 40
9.0
 40
9.0
 10
12.16421169704861
 20
11.34187825520833
 30
0.0
 10
12.16719563802083
 20
11.34686957465278
 30
0.0
 10
12.16925726996528
 20
11.34944661458333
 30
0.0
 10
12.17036946614583
 20
11.35238986545139
 30
0.0
 10
12.21888563368056
 20
11.48000759548611
 30
0.0
 10
12.24237738715278
 20
11.61176215277778
 30
0.0
 10
12.23414442274306
 20
11.74848090277778
 30
0.0
 10
12.23247612847222
 20
11.77628580729167
 30
0.0
 10
12.22748480902778
 20
11.80373806423611
 30
0.0
 10
12.21873643663194
 20
11.83037651909722
 30
0.0
 10
12.212646484375
 20
11.848876953125
 30
0.0
 10
12.20240614149306
 20
11.86458333333333
 30
0.0
 10
12.18735080295139
 20
11.87676323784722
 30
0.0
 10
12.17451985677083
 20
11.88713921440972
 30
0.0
 10
12.16855197482639
 20
11.8858642578125
 30
0.0
 10
12.16255696614583
 20
11.87040201822917
 30
0.0
 10
12.1519775390625
 20
11.84319390190972
 30
0.0
 10
12.14784071180556
 20
11.81454806857639
 30
0.0
 10
12.1458740234375
 20
11.78549533420139
 30
0.0
 10
12.14194064670139
 20
11.72762044270833
 30
0.0
 10
12.14306640625
 20
11.66975911458333
 30
0.0
 10
12.14569769965278
 20
11.61187065972222
 30
0.0
 10
12.14927842881944
 20
11.53403049045139
 30
0.0
 10
12.15273708767361
 20
11.45619032118056
 30
0.0
 10
12.15626356336806
 20
11.37836371527778
 30
0.0
 10
12.15680609809028
 20
11.36646864149306
 30
0.0
 10
12.15869140625
 20
11.35493977864583
 30
0.0
 10
12.16421169704861
 20
11.34187825520833
 30
0.0
  0
SPLINE
  5
44
330
3C
100
AcDbEntity
  8
Calque 1
370
     0
100
AcDbSpline
210
0.0
220
0.0
230
1.0
 70
    11
 71
     3
 72
    26
 73
    22
 74
     0
 42
0.0000000001
 43
0.0000000001
 40
0.0
 40
0.0
 40
0.0
 40
0.0
 40
1.0
 40
1.0
 40
1.0
 40
2.0
 40
2.0
 40
2.0
 40
3.0
 40
3.0
 40
3.0
 40
4.0
 40
4.0
 40
4.0
 40
5.0
 40
5.0
 40
5.0
 40
6.0
 40
6.0
 40
6.0
 40
7.0
 40
7.0
 40
7.0
 40
7.0
 10
11.20601399739583
 20
11.57316080729167
 30
0.0
 10
11.21309407552083
 20
11.57737901475694
 30
0.0
 10
11.21247016059028
 20
11.58213975694444
 30
0.0
 10
11.21237521701389
 20
11.5863037109375
 30
0.0
 10
11.21124945746528
 20
11.63864474826389
 30
0.0
 10
11.20631239149306
 20
11.69051106770833
 30
0.0
 10
11.19295247395833
 20
11.74131944444444
 30
0.0
 10
11.18617078993056
 20
11.76710340711806
 30
0.0
 10
11.17966037326389
 20
11.79299587673611
 30
0.0
 10
11.16567654079861
 20
11.816162109375
 30
0.0
 10
11.15585666232639
 20
11.83238389756944
 30
0.0
 10
11.14499240451389
 20
11.85340711805556
 30
0.0
 10
11.12437608506944
 20
11.84811740451389
 30
0.0
 10
11.10602484809028
 20
11.84339735243056
 30
0.0
 10
11.10526529947917
 20
11.82036675347222
 30
0.0
 10
11.10377332899306
 20
11.80266655815972
 30
0.0
 10
11.09723578559028
 20
11.72401258680556
 30
0.0
 10
11.12440321180556
 20
11.65654839409722
 30
0.0
 10
11.17331271701389
 20
11.59663899739583
 30
0.0
 10
11.18240017361111
 20
11.58548990885417
 30
0.0
 10
11.19352213541667
 20
11.57670084635417
 30
0.0
 10
11.20601399739583
 20
11.57316080729167
 30
0.0
  0
HATCH
  5
45
330
3C
100
AcDbEntity
  8
Calque 1
 62
     7
420
 16777215
100
AcDbHatch
 10
0.0
 20
0.0
 30
0.0
210
0.0
220
0.0
230
1.0
  2
SOLID
 70
     1
 71
     0
 91
        5
 92
        1
 93
        1
 72
     4
 94
        3
 73
     0
 74
     1
 95
      404
 96
      400
 40
0.0
 40
0.0
 40
0.0
 40
0.0
 40
1.0
 40
1.0
 40
1.0
 40
2.0
 40
2.0
 40
2.0
 40
3.0
 40
3.0
 40
3.0
 40
4.0
 40
4.0
 40
4.0
 40
5.0
 40
5.0
 40
5.0
 40
6.0
 40
6.0
 40
6.0
 40
7.0
 40
7.0
 40
7.0
 40
8.0
 40
8.0
 40
8.0
 40
9.0
 40
9.0
 40
9.0
 40
10.0
 40
10.0
 40
10.0
 40
11.0
 40
11.0
 40
11.0
 40
12.0
 40
12.0
 40
12.0
 40
13.0
 40
13.0
 40
13.0
 40
14.0
 40
14.0
 40
14.0
 40
15.0
 40
15.0
 40
15.0
 40
16.0
 40
16.0
 40
16.0
 40
17.0
 40
17.0
 40
17.0
 40
18.0
 40
18.0
 40
18.0
 40
19.0
 40
19.0
 40
19.0
 40
20.0
 40
20.0
 40
20.0
 40
21.0
 40
21.0
 40
21.0
 40
22.0
 40
22.0
 40
22.0
 40
23.0
 40
23.0
 40
23.0
 40
24.0
 40
24.0
 40
24.0
 40
25.0
 40
25.0
 40
25.0
 40
26.0
 40
26.0
 40
26.0
 40
27.0
 40
27.0
 40
27.0
 40
28.0
 40
28.0
 40
28.0
 40
29.0
 40
29.0
 40
29.0
 40
30.0
 40
30.0
 40
30.0
 40
31.0
 40
31.0
 40
31.0
 40
32.0
 40
32.0
 40
32.0
 40
33.0
 40
33.0
 40
33.0
 40
34.0
 40
34.0
 40
34.0
 40
35.0
 40
35.0
 40
35.0
 40
36.0
 40
36.0
 40
36.0
 40
37.0
 40
37.0
 40
37.0
 40
38.0
 40
38.0
 40
38.0
 40
39.0
 40
39.0
 40
39.0
 40
40.0
 40
40.0
 40
40.0
 40
41.0
 40
41.0
 40
41.0
 40
42.0
 40
42.0
 40
42.0
 40
43.0
 40
43.0
 40
43.0
 40
44.0
 40
44.0
 40
44.0
 40
45.0
 40
45.0
 40
45.0
 40
46.0
 40
46.0
 40
46.0
 40
47.0
 40
47.0
 40
47.0
 40
48.0
 40
48.0
 40
48.0
 40
49.0
 40
49.0
 40
49.0
 40
50.0
 40
50.0
 40
50.0
 40
51.0
 40
51.0
 40
51.0
 40
52.0
 40
52.0
 40
52.0
 40
53.0
 40
53.0
 40
53.0
 40
54.0
 40
54.0
 40
54.0
 40
55.0
 40
55.0
 40
55.0
 40
56.0
 40
56.0
 40
56.0
 40
57.0
 40
57.0
 40
57.0
 40
58.0
 40
58.0
 40
58.0
 40
59.0
 40
59.0
 40
59.0
 40
60.0
 40
60.0
 40
60.0
 40
61.0
 40
61.0
 40
61.0
 40
62.0
 40
62.0
 40
62.0
 40
63.0
 40
63.0
 40
63.0
 40
64.0
 40
64.0
 40
64.0
 40
65.0
 40
65.0
 40
65.0
 40
66.0
 40
66.0
 40
66.0
 40
67.0
 40
67.0
 40
67.0
 40
68.0
 40
68.0
 40
68.0
 40
69.0
 40
69.0
 40
69.0
 40
70.0
 40
70.0
 40
70.0
 40
71.0
 40
71.0
 40
71.0
 40
72.0
 40
72.0
 40
72.0
 40
73.0
 40
73.0
 40
73.0
 40
74.0
 40
74.0
 40
74.0
 40
75.0
 40
75.0
 40
75.0
 40
76.0
 40
76.0
 40
76.0
 40
77.0
 40
77.0
 40
77.0
 40
78.0
 40
78.0
 40
78.0
 40
79.0
 40
79.0
 40
79.0
 40
80.0
 40
80.0
 40
80.0
 40
81.0
 40
81.0
 40
81.0
 40
82.0
 40
82.0
 40
82.0
 40
83.0
 40
83.0
 40
83.0
 40
84.0
 40
84.0
 40
84.0
 40
85.0
 40
85.0
 40
85.0
 40
86.0
 40
86.0
 40
86.0
 40
87.0
 40
87.0
 40
87.0
 40
88.0
 40
88.0
 40
88.0
 40
89.0
 40
89.0
 40
89.0
 40
90.0
 40
90.0
 40
90.0
 40
91.0
 40
91.0
 40
91.0
 40
92.0
 40
92.0
 40
92.0
 40
93.0
 40
93.0
 40
93.0
 40
94.0
 40
94.0
 40
94.0
 40
95.0
 40
95.0
 40
95.0
 40
96.0
 40
96.0
 40
96.0
 40
97.0
 40
97.0
 40
97.0
 40
98.0
 40
98.0
 40
98.0
 40
99.0
 40
99.0
 40
99.0
 40
100.0
 40
100.0
 40
100.0
 40
101.0
 40
101.0
 40
101.0
 40
102.0
 40
102.0
 40
102.0
 40
103.0
 40
103.0
 40
103.0
 40
104.0
 40
104.0
 40
104.0
 40
105.0
 40
105.0
 40
105.0
 40
106.0
 40
106.0
 40
106.0
 40
107.0
 40
107.0
 40
107.0
 40
108.0
 40
108.0
 40
108.0
 40
109.0
 40
109.0
 40
109.0
 40
110.0
 40
110.0
 40
110.0
 40
111.0
 40
111.0
 40
111.0
 40
112.0
 40
112.0
 40
112.0
 40
113.0
 40
113.0
 40
113.0
 40
114.0
 40
114.0
 40
114.0
 40
115.0
 40
115.0
 40
115.0
 40
116.0
 40
116.0
 40
116.0
 40
117.0
 40
117.0
 40
117.0
 40
118.0
 40
118.0
 40
118.0
 40
119.0
 40
119.0
 40
119.0
 40
120.0
 40
120.0
 40
120.0
 40
121.0
 40
121.0
 40
121.0
 40
122.0
 40
122.0
 40
122.0
 40
123.0
 40
123.0
 40
123.0
 40
124.0
 40
124.0
 40
124.0
 40
125.0
 40
125.0
 40
125.0
 40
126.0
 40
126.0
 40
126.0
 40
127.0
 40
127.0
 40
127.0
 40
128.0
 40
128.0
 40
128.0
 40
129.0
 40
129.0
 40
129.0
 40
130.0
 40
130.0
 40
130.0
 40
131.0
 40
131.0
 40
131.0
 40
132.0
 40
132.0
 40
132.0
 40
133.0
 40
133.0
 40
133.0
 40
133.0
 10
13.15787760416667
 20
11.59294976128472
 10
13.16290961371528
 20
11.62388780381944
 10
13.16748046875
 20
11.64896647135417
 10
13.17100694444444
 20
11.67422146267361
 10
13.18703884548611
 20
11.78889973958333
 10
13.21823459201389
 20
11.89857313368056
 10
13.27909342447917
 20
11.99814181857639
 10
13.31268988715278
 20
12.0531005859375
 10
13.35465494791667
 20
12.09988064236111
 10
13.41339789496528
 20
12.12980143229167
 10
13.43585883246528
 20
12.14122178819444
 10
13.45952690972222
 20
12.14670138888889
 10
13.48391384548611
 20
12.14857313368056
 10
13.51958550347222
 20
12.15128580729167
 10
13.55145941840278
 20
12.12962510850694
 10
13.56724717881944
 20
12.09293619791667
 10
13.58565266927083
 20
12.05021158854167
 10
13.59261067708333
 20
12.00519476996528
 10
13.58902994791667
 20
11.95899793836806
 10
13.57987467447917
 20
11.8404541015625
 10
13.55376519097222
 20
11.72562662760417
 10
13.51090494791667
 20
11.61467827690972
 10
13.47395833333333
 20
11.51894802517361
 10
13.43241373697917
 20
11.42526584201389
 10
13.3841552734375
 20
11.33470323350694
 10
13.37373860677083
 20
11.31514485677083
 10
13.36919487847222
 20
11.296142578125
 10
13.37154134114583
 20
11.27403428819444
 10
13.38481987847222
 20
11.14885796440972
 10
13.39954969618056
 20
11.02388509114583
 10
13.43117947048611
 20
10.90171983506944
 10
13.44432237413194
 20
10.85088433159722
 10
13.46271430121528
 20
10.8018798828125
 10
13.49551052517361
 20
10.75969780815972
 10
13.5009765625
 20
10.75267198350694
 10
13.50667317708333
 20
10.74574110243056
 10
13.51292588975694
 20
10.73943413628472
 10
13.5517578125
 20
10.70024956597222
 10
13.59990776909722
 20
10.69883897569444
 10
13.64063856336806
 20
10.73588053385417
 10
13.67262098524306
 20
10.76498752170139
 10
13.69369845920139
 20
10.80156792534722
 10
13.71061197916667
 20
10.84073893229167
 10
13.74782986111111
 20
10.92706976996528
 10
13.77122667100694
 20
11.01768663194444
 10
13.79315863715278
 20
11.10872395833333
 10
13.81038411458333
 20
11.18018934461806
 10
13.82421875
 20
11.25237358940972
 10
13.83588324652778
 20
11.32496473524306
 10
13.83745659722222
 20
11.33473036024306
 10
13.84035915798611
 20
11.3446044921875
 10
13.84450954861111
 20
11.35359700520833
 10
13.84840223524306
 20
11.36203342013889
 10
13.85629611545139
 20
11.3673095703125
 10
13.8662109375
 20
11.36625162760417
 10
13.87741427951389
 20
11.36501736111111
 10
13.88495551215278
 20
11.35784233940972
 10
13.88663736979167
 20
11.34714084201389
 10
13.88815646701389
 20
11.33738878038194
 10
13.8880615234375
 20
11.32705349392361
 10
13.88675944010417
 20
11.31723361545139
 10
13.87212456597222
 20
11.20684136284722
 10
13.86083984375
 20
11.09586588541667
 10
13.83383517795139
 20
10.98746744791667
 10
13.81167263454861
 20
10.89853244357639
 10
13.78460015190972
 20
10.81108940972222
 10
13.73288302951389
 20
10.73426649305556
 10
13.69780815972222
 20
10.68218315972222
 10
13.65224880642361
 20
10.642822265625
 10
13.58718532986111
 20
10.630615234375
 10
13.53895399305556
 20
10.62156846788194
 10
13.49697536892361
 20
10.63716634114583
 10
13.45619032118056
 20
10.65865071614583
 10
13.38643391927083
 20
10.69538031684028
 10
13.33425564236111
 20
10.75086805555556
 10
13.29086642795139
 20
10.81574164496528
 10
13.2486572265625
 20
10.87883843315972
 10
13.21575249565972
 20
10.94631618923611
 10
13.19204372829861
 20
11.02396647135417
 10
13.17532009548611
 20
11.00375705295139
 10
13.1611328125
 20
10.98731825086806
 10
13.147705078125
 20
10.97028266059028
 10
13.11383734809028
 20
10.92731391059028
 10
13.07695855034722
 20
10.88709852430556
 10
13.03811306423611
 20
10.8486328125
 10
13.01266818576389
 20
10.82344563802083
 10
12.98499891493056
 20
10.80105251736111
 10
12.95362684461806
 20
10.78351508246528
 10
12.861083984375
 20
10.73171657986111
 10
12.7757568359375
 20
10.76019965277778
 10
12.71316189236111
 20
10.82999674479167
 10
12.65304904513889
 20
10.89704047309028
 10
12.61638726128472
 20
10.97625054253472
 10
12.60017903645833
 20
11.06488715277778
 10
12.59756130642361
 20
11.07911512586806
 10
12.59433322482639
 20
11.09326171875
 10
12.59122721354167
 20
11.107421875
 10
12.59077962239583
 20
11.10953776041667
 10
12.58950466579861
 20
11.11146375868056
 10
12.58793131510417
 20
11.11503092447917
 10
12.578857421875
 20
11.11154513888889
 10
12.57649739583333
 20
11.10270182291667
 10
12.57276746961806
 20
11.09573025173611
 10
12.53875054253472
 20
11.03179253472222
 10
12.50507269965278
 20
10.96766493055556
 10
12.47120496961806
 20
10.90363226996528
 10
12.44609917534722
 20
10.85614691840278
 10
12.41762966579861
 20
10.81095377604167
 10
12.37939453125
 20
10.77273220486111
 10
12.31818305121528
 20
10.71153428819444
 10
12.25385199652778
 20
10.70762803819444
 10
12.18587239583333
 20
10.76209852430556
 10
12.14557562934028
 20
10.79439290364583
 10
12.11287434895833
 20
10.8338623046875
 10
12.08486599392361
 20
10.877197265625
 10
12.07463921440972
 20
10.89307996961806
 10
12.06414116753472
 20
10.90877278645833
 10
12.05217827690972
 20
10.92694769965278
 10
12.03795030381944
 20
10.91366916232639
 10
12.03133138020833
 20
10.89742024739583
 10
12.02322048611111
 20
10.882568359375
 10
11.98297797309028
 20
10.80870225694444
 10
11.93467881944444
 20
10.74085828993056
 10
11.87476942274306
 20
10.68155924479167
 10
11.85483127170139
 20
10.66183810763889
 10
11.83319769965278
 20
10.64558919270833
 10
11.80501302083333
 20
10.63772243923611
 10
11.75254991319444
 20
10.62303331163194
 10
11.70951334635417
 20
10.63994683159722
 10
11.67475043402778
 20
10.67698838975694
 10
11.60899522569444
 20
10.7470703125
 10
11.56404622395833
 20
10.83011881510417
 10
11.53278266059028
 20
10.92060004340278
 10
11.48866102430556
 20
11.04825846354167
 10
11.47032335069444
 20
11.17994520399306
 10
11.47178819444444
 20
11.31475151909722
 10
11.47256130642361
 20
11.38703070746528
 10
11.471923828125
 20
11.45932345920139
 10
11.471923828125
 20
11.53293185763889
 10
11.4588623046875
 20
11.5367431640625
 10
11.44806586371528
 20
11.52982584635417
 10
11.43716091579861
 20
11.52604166666667
 10
11.39388020833333
 20
11.51091851128472
 10
11.34996202256944
 20
11.49905056423611
 10
11.30398220486111
 20
11.49579535590278
 10
11.27610948350694
 20
11.49384223090278
 10
11.27620442708333
 20
11.49348958333333
 10
11.27320692274306
 20
11.46461317274306
 10
11.262939453125
 20
11.36576334635417
 10
11.24685329861111
 20
11.26787651909722
 10
11.2176513671875
 20
11.17275661892361
 10
11.18490939670139
 20
11.06614854600694
 10
11.14507378472222
 20
10.962158203125
 10
11.09091525607639
 20
10.86431206597222
 10
11.06869845920139
 20
10.82421875
 10
11.04206000434028
 20
10.78706868489583
 10
11.00812445746528
 20
10.75575086805556
 10
10.95746527777778
 20
10.70901150173611
 10
10.90652126736111
 20
10.70735677083333
 10
10.85199652777778
 20
10.75006781684028
 10
10.80126953125
 20
10.78980848524306
 10
10.769775390625
 20
10.84308539496528
 10
10.74471028645833
 20
10.9010009765625
 10
10.69638400607639
 20
11.01258680555556
 10
10.68012152777778
 20
11.12982855902778
 10
10.68410915798611
 20
11.25044759114583
 10
10.68668619791667
 20
11.32835557725694
 10
10.68999565972222
 20
11.40623643663194
 10
10.69268120659722
 20
11.48411729600694
 10
10.69303385416667
 20
11.49476453993056
 10
10.69569227430556
 20
11.50576443142361
 10
10.69117567274306
 20
11.51679144965278
 10
10.67857530381944
 20
11.51486545138889
 10
10.67561848958333
 20
11.50406901041667
 10
10.67023383246528
 20
11.49643283420139
 10
10.62108018663194
 20
11.42679850260417
 10
10.58616807725694
 20
11.34963650173611
 10
10.55190700954861
 20
11.27212185329861
 10
10.52081976996528
 20
11.20172797309028
 10
10.49945746527778
 20
11.12763129340278
 10
10.46969943576389
 20
11.05672200520833
 10
10.46021864149306
 20
11.03411187065972
 10
10.45090060763889
 20
11.0113525390625
 10
10.43718804253472
 20
10.99088541666667
 10
10.41290961371528
 20
10.95461697048611
 10
10.37904188368056
 20
10.94660101996528
 10
10.34194607204861
 20
10.96930609809028
 10
10.3131103515625
 20
10.98695203993056
 10
10.2900390625
 20
11.01146104600694
 10
10.26904296875
 20
11.0374755859375
 10
10.20633951822917
 20
11.11519368489583
 10
10.16685655381944
 20
11.20319281684028
 10
10.14659288194444
 20
11.30137803819444
 10
10.1231689453125
 20
11.41493055555556
 10
10.10799153645833
 20
11.52959526909722
 10
10.09221733940972
 20
11.64408365885417
 10
10.07960340711806
 20
11.64876302083333
 10
10.07275390625
 20
11.63974338107639
 10
10.06549750434028
 20
11.63372124565972
 10
10.01007758246528
 20
11.58757866753472
 10
9.973809136284721
 20
11.5281982421875
 10
9.948052300347221
 20
11.46176486545139
 10
9.946858723958332
 20
11.45865885416667
 10
9.946763780381945
 20
11.45515950520833
 10
9.945638020833332
 20
11.45203993055556
 10
9.938517252604166
 20
11.43222384982639
 10
9.926744249131945
 20
11.42437065972222
 10
9.91128200954861
 20
11.42892795138889
 10
9.89638943142361
 20
11.43330891927083
 10
9.890082465277777
 20
11.44688585069444
 10
9.89431423611111
 20
11.46725802951389
 10
9.8961181640625
 20
11.4759521484375
 10
9.89870876736111
 20
11.48463270399306
 10
9.902140299479166
 20
11.49281141493056
 10
9.936984592013888
 20
11.57600911458333
 10
9.984022352430555
 20
11.65110948350694
 10
10.05103895399306
 20
11.71244303385417
 10
10.10605197482639
 20
11.76280381944444
 10
10.16715494791667
 20
11.76235622829861
 10
10.22515190972222
 20
11.71488444010417
 10
10.25674099392361
 20
11.68903266059028
 10
10.27490234375
 20
11.65544976128472
 10
10.29009331597222
 20
11.61928982204861
 10
10.31964789496528
 20
11.54896375868056
 10
10.33269585503472
 20
11.47417534722222
 10
10.34853786892361
 20
11.40018717447917
 10
10.36676703559028
 20
11.31503634982639
 10
10.37505425347222
 20
11.22856987847222
 10
10.38052029079861
 20
11.14183213975694
 10
10.38264973958333
 20
11.10826280381944
 10
10.39055718315972
 20
11.07596842447917
 10
10.39638943142361
 20
11.0435791015625
 10
10.40870496961806
 20
11.04136827256944
 10
10.41014268663194
 20
11.05098470052083
 10
10.41328938802083
 20
11.05723741319444
 10
10.42833116319444
 20
11.08722601996528
 10
10.43768988715278
 20
11.11943901909722
 10
10.44802517361111
 20
11.15120442708333
 10
10.50273980034722
 20
11.3194580078125
 10
10.57821994357639
 20
11.47800021701389
 10
10.67041015625
 20
11.6287841796875
 10
10.68202039930556
 20
11.64777289496528
 10
10.69354926215278
 20
11.6668701171875
 10
10.70582411024306
 20
11.68543836805556
 10
10.74439832899306
 20
11.74366590711806
 10
10.81075032552083
 20
11.74801974826389
 10
10.8587646484375
 20
11.69788953993056
 10
10.8902587890625
 20
11.66499837239583
 10
10.90016004774306
 20
11.62457953559028
 10
10.90511067708333
 20
11.58232964409722
 10
10.9119873046875
 20
11.52360026041667
 10
10.90976291232639
 20
11.46468098958333
 10
10.90728081597222
 20
11.40561252170139
 10
10.90367296006944
 20
11.31886121961806
 10
10.90284559461806
 20
11.23202853732639
 10
10.90702311197917
 20
11.14508734809028
 10
10.91065809461806
 20
11.06948513454861
 10
10.90935601128472
 20
10.99362521701389
 10
10.91018337673611
 20
10.91787380642361
 10
10.91048177083333
 20
10.89107259114583
 10
10.91196017795139
 20
10.8643798828125
 10
10.91592068142361
 20
10.83787706163194
 10
10.91707356770833
 20
10.83017306857639
 10
10.91783311631944
 20
10.82227918836806
 10
10.92027452256944
 20
10.81496853298611
 10
10.92781575520833
 20
10.79249403211806
 10
10.93766276041667
 20
10.78879123263889
 10
10.95762803819444
 20
10.80055067274306
 10
10.97328016493056
 20
10.80976019965278
 10
10.98513454861111
 20
10.82314724392361
 10
10.99616156684028
 20
10.83725314670139
 10
11.02518717447917
 20
10.87444390190972
 10
11.04610188802083
 20
10.91644965277778
 10
11.066162109375
 20
10.95868598090278
 10
11.14436848958333
 20
11.12345377604167
 10
11.18775770399306
 20
11.29787868923611
 10
11.20936414930556
 20
11.47842068142361
 10
11.21188693576389
 20
11.49945746527778
 10
11.20320638020833
 20
11.50595431857639
 10
11.18644205729167
 20
11.5113525390625
 10
11.08962673611111
 20
11.54253472222222
 10
10.99990505642361
 20
11.69700792100694
 10
11.01536729600694
 20
11.80442979600694
 10
11.01890733506944
 20
11.8289794921875
 10
11.02505154079861
 20
11.85260687934028
 10
11.03792317708333
 20
11.87388780381944
 10
11.07400173611111
 20
11.93345811631944
 10
11.14013671875
 20
11.94224717881944
 10
11.19057888454861
 20
11.89398871527778
 10
11.21266004774306
 20
11.87285698784722
 10
11.22770182291667
 20
11.84688313802083
 10
11.2386474609375
 20
11.81842719184028
 10
11.26040310329861
 20
11.76182725694444
 10
11.27145724826389
 20
11.70284016927083
 10
11.27756076388889
 20
11.64283582899306
 10
11.27948676215278
 20
11.6240234375
 10
11.27950032552083
 20
11.60498046875
 10
11.27994791666667
 20
11.58604600694444
 10
11.28084309895833
 20
11.55014377170139
 10
11.28069390190972
 20
11.55049641927083
 10
11.31787109375
 20
11.55341254340278
 10
11.368408203125
 20
11.557373046875
 10
11.4158935546875
 20
11.57344563802083
 10
11.46370442708333
 20
11.58858235677083
 10
11.47458224826389
 20
11.59201388888889
 10
11.48023817274306
 20
11.59845648871528
 10
11.48322211371528
 20
11.60899522569444
 10
11.48807779947917
 20
11.62613932291667
 10
11.49359809027778
 20
11.64307996961806
 10
11.49898274739583
 20
11.66007486979167
 10
11.51368543836806
 20
11.70644802517361
 10
11.55483669704861
 20
11.73486328125
 10
11.60031467013889
 20
11.73008897569444
 10
11.64204915364583
 20
11.72573513454861
 10
11.67430284288194
 20
11.68716091579861
 10
11.68024359809028
 20
11.63982476128472
 10
11.69098578559028
 20
11.554443359375
 10
11.68926323784722
 20
11.46891276041667
 10
11.68824598524306
 20
11.38319227430556
 10
11.68758138020833
 20
11.32652452256944
 10
11.69095865885417
 20
11.26976182725694
 10
11.6939697265625
 20
11.21310763888889
 10
11.69905598958333
 20
11.11745876736111
 10
11.69736056857639
 20
11.02166069878472
 10
11.70081922743056
 20
10.92598470052083
 10
11.70252821180556
 20
10.87913682725694
 10
11.70775010850694
 20
10.83268229166667
 10
11.71964518229167
 20
10.78717719184028
 10
11.72589789496528
 20
10.76327853732639
 10
11.73451063368056
 20
10.74046495225694
 10
11.75010850694444
 20
10.72087944878472
 10
11.76628960503472
 20
10.7005615234375
 10
11.78238932291667
 20
10.69691297743056
 10
11.80575900607639
 20
10.70856391059028
 10
11.82301161024306
 20
10.7171630859375
 10
11.83664279513889
 20
10.73042805989583
 10
11.84982638888889
 20
10.74409993489583
 10
11.91796875
 20
10.81476508246528
 10
11.966552734375
 20
10.89838324652778
 10
12.01021321614583
 20
10.98537868923611
 10
12.01589626736111
 20
10.9967041015625
 10
12.01505533854167
 20
11.00637478298611
 10
12.010498046875
 20
11.01715766059028
 10
11.96478949652778
 20
11.12547471788194
 10
11.95026312934028
 20
11.23989529079861
 10
11.94132486979167
 20
11.35592990451389
 10
11.93497721354167
 20
11.43832736545139
 10
11.93245442708333
 20
11.52064344618056
 10
11.9359130859375
 20
11.60308159722222
 10
11.93962944878472
 20
11.69160970052083
 10
11.95412868923611
 20
11.77827962239583
 10
11.99392361111111
 20
11.85866970486111
 10
12.01688639322917
 20
11.90506998697917
 10
12.04446072048611
 20
11.94798448350694
 10
12.0948486328125
 20
11.97003851996528
 10
12.14710828993056
 20
11.99290635850694
 10
12.19912380642361
 20
11.98139105902778
 10
12.23616536458333
 20
11.9375
 10
12.267333984375
 20
11.90056694878472
 10
12.28179253472222
 20
11.85641818576389
 10
12.28937445746528
 20
11.8095703125
 10
12.30002170138889
 20
11.74384223090278
 10
12.29234483506944
 20
11.67829047309028
 10
12.28681098090278
 20
11.61280653211806
 10
12.27643500434028
 20
11.48971896701389
 10
12.24671766493056
 20
11.37101236979167
 10
12.20000542534722
 20
11.2569580078125
 10
12.18471950954861
 20
11.2196044921875
 10
12.17869737413194
 20
11.18339029947917
 10
12.18360731336806
 20
11.14351399739583
 10
12.19285753038194
 20
11.06827799479167
 10
12.2003173828125
 20
10.99278428819444
 10
12.22238498263889
 20
10.91989474826389
 10
12.23175726996528
 20
10.88892957899306
 10
12.24466959635417
 20
10.85930718315972
 10
12.26516384548611
 20
10.83355034722222
 10
12.28948296440972
 20
10.80299207899306
 10
12.30186631944444
 20
10.80125596788194
 10
12.33049858940972
 20
10.82713487413194
 10
12.36973741319444
 20
10.86263020833333
 10
12.3995361328125
 20
10.906005859375
 10
12.42747667100694
 20
10.95027669270833
 10
12.48164876302083
 20
11.03607855902778
 10
12.52776421440972
 20
11.12650553385417
 10
12.5765380859375
 20
11.21539984809028
 10
12.58383517795139
 20
11.22867838541667
 10
12.58449978298611
 20
11.24296061197917
 10
12.58512369791667
 20
11.25751410590278
 10
12.58832465277778
 20
11.33237033420139
 10
12.59707302517361
 20
11.40643988715278
 10
12.62270779079861
 20
11.47732204861111
 10
12.65336100260417
 20
11.56212022569444
 10
12.70229763454861
 20
11.63328721788194
 10
12.77879503038194
 20
11.68405490451389
 10
12.88202582465278
 20
11.7525634765625
 10
13.02251519097222
 20
11.73407660590278
 10
13.11181640625
 20
11.64156087239583
 10
13.12567816840278
 20
11.62718370225694
 10
13.13926866319444
 20
11.61260308159722
 10
13.15787760416667
 20
11.59294976128472
 97
        0
 92
        1
 93
        1
 72
     4
 94
        3
 73
     0
 74
     1
 95
       47
 96
       43
 40
0.0
 40
0.0
 40
0.0
 40
0.0
 40
1.0
 40
1.0
 40
1.0
 40
2.0
 40
2.0
 40
2.0
 40
3.0
 40
3.0
 40
3.0
 40
4.0
 40
4.0
 40
4.0
 40
5.0
 40
5.0
 40
5.0
 40
6.0
 40
6.0
 40
6.0
 40
7.0
 40
7.0
 40
7.0
 40
8.0
 40
8.0
 40
8.0
 40
9.0
 40
9.0
 40
9.0
 40
10.0
 40
10.0
 40
10.0
 40
11.0
 40
11.0
 40
11.0
 40
12.0
 40
12.0
 40
12.0
 40
13.0
 40
13.0
 40
13.0
 40
14.0
 40
14.0
 40
14.0
 40
14.0
 10
13.15085177951389
 20
11.3504638671875
 10
13.15085177951389
 20
11.38236490885417
 10
13.15072970920139
 20
11.42022026909722
 10
13.15096028645833
 20
11.45807562934028
 10
13.15101453993056
 20
11.46638997395833
 10
13.14796278211806
 20
11.473388671875
 10
13.14370388454861
 20
11.47988552517361
 10
13.11130099826389
 20
11.52914767795139
 10
13.07090928819444
 20
11.5693359375
 10
13.01691351996528
 20
11.59526909722222
 10
12.95745171440972
 20
11.62384711371528
 10
12.91067165798611
 20
11.59712727864583
 10
12.88264973958333
 20
11.56301540798611
 10
12.86497667100694
 20
11.54147677951389
 10
12.85092502170139
 20
11.51734754774306
 10
12.84129503038194
 20
11.49088541666667
 10
12.81206597222222
 20
11.41041395399306
 10
12.79983181423611
 20
11.32668728298611
 10
12.79989963107639
 20
11.2418212890625
 10
12.79996744791667
 20
11.15839301215278
 10
12.80246310763889
 20
11.07484266493056
 10
12.81138780381944
 20
10.99168565538194
 10
12.81556532118056
 20
10.95267740885417
 10
12.8221435546875
 20
10.91444227430556
 10
12.84178331163194
 20
10.87973361545139
 10
12.86054144965278
 20
10.84658474392361
 10
12.88113064236111
 20
10.83917914496528
 10
12.91703287760417
 20
10.85260687934028
 10
12.93916829427083
 20
10.86089409722222
 10
12.95872667100694
 20
10.87360297309028
 10
12.97734917534722
 20
10.88795301649306
 10
13.04949273003472
 20
10.94357638888889
 10
13.10677083333333
 20
11.01319715711806
 10
13.16240776909722
 20
11.0843505859375
 10
13.16876898871528
 20
11.09251573350694
 10
13.17258029513889
 20
11.10062662760417
 10
13.17019314236111
 20
11.11191134982639
 10
13.16021050347222
 20
11.15889485677083
 10
13.15813530815972
 20
11.20686848958333
 10
13.15428331163194
 20
11.25455729166667
 10
13.15188259548611
 20
11.284423828125
 10
13.14706759982639
 20
11.31434461805556
 10
13.15085177951389
 20
11.3504638671875
 97
        0
 92
        1
 93
        1
 72
     4
 94
        3
 73
     0
 74
     1
 95
       32
 96
       28
 40
0.0
 40
0.0
 40
0.0
 40
0.0
 40
1.0
 40
1.0
 40
1.0
 40
2.0
 40
2.0
 40
2.0
 40
3.0
 40
3.0
 40
3.0
 40
4.0
 40
4.0
 40
4.0
 40
5.0
 40
5.0
 40
5.0
 40
6.0
 40
6.0
 40
6.0
 40
7.0
 40
7.0
 40
7.0
 40
8.0
 40
8.0
 40
8.0
 40
9.0
 40
9.0
 40
9.0
 40
9.0
 10
13.36843532986111
 20
11.43937174479167
 10
13.37089029947917
 20
11.43901909722222
 10
13.37334526909722
 20
11.43866644965278
 10
13.37577311197917
 20
11.43831380208333
 10
13.43665907118056
 20
11.563720703125
 10
13.48385959201389
 20
11.69399685329861
 10
13.51359049479167
 20
11.83048502604167
 10
13.5250244140625
 20
11.88297526041667
 10
13.53005642361111
 20
11.93599446614583
 10
13.52665201822917
 20
11.98971896701389
 10
13.52537706163194
 20
12.00986056857639
 10
13.52176920572917
 20
12.02936469184028
 10
13.51410590277778
 20
12.04816351996528
 10
13.50853135850694
 20
12.061767578125
 10
13.50210232204861
 20
12.06144205729167
 10
13.49220106336806
 20
12.05192057291667
 10
13.47412109375
 20
12.03457302517361
 10
13.46207682291667
 20
12.01346842447917
 10
13.45209418402778
 20
11.99099392361111
 10
13.43154568142361
 20
11.94481065538194
 10
13.42289225260417
 20
11.89543999565972
 10
13.41366916232639
 20
11.84621853298611
 10
13.39499240451389
 20
11.74656846788194
 10
13.38353135850694
 20
11.64596896701389
 10
13.37422688802083
 20
11.54512532552083
 10
13.37101236979167
 20
11.50998263888889
 10
13.37030707465278
 20
11.47462293836806
 10
13.36843532986111
 20
11.43937174479167
 97
        0
 92
        1
 93
        1
 72
     4
 94
        3
 73
     0
 74
     1
 95
       32
 96
       28
 40
0.0
 40
0.0
 40
0.0
 40
0.0
 40
1.0
 40
1.0
 40
1.0
 40
2.0
 40
2.0
 40
2.0
 40
3.0
 40
3.0
 40
3.0
 40
4.0
 40
4.0
 40
4.0
 40
5.0
 40
5.0
 40
5.0
 40
6.0
 40
6.0
 40
6.0
 40
7.0
 40
7.0
 40
7.0
 40
8.0
 40
8.0
 40
8.0
 40
9.0
 40
9.0
 40
9.0
 40
9.0
 10
12.16421169704861
 20
11.34187825520833
 10
12.16719563802083
 20
11.34686957465278
 10
12.16925726996528
 20
11.34944661458333
 10
12.17036946614583
 20
11.35238986545139
 10
12.21888563368056
 20
11.48000759548611
 10
12.24237738715278
 20
11.61176215277778
 10
12.23414442274306
 20
11.74848090277778
 10
12.23247612847222
 20
11.77628580729167
 10
12.22748480902778
 20
11.80373806423611
 10
12.21873643663194
 20
11.83037651909722
 10
12.212646484375
 20
11.848876953125
 10
12.20240614149306
 20
11.86458333333333
 10
12.18735080295139
 20
11.87676323784722
 10
12.17451985677083
 20
11.88713921440972
 10
12.16855197482639
 20
11.8858642578125
 10
12.16255696614583
 20
11.87040201822917
 10
12.1519775390625
 20
11.84319390190972
 10
12.14784071180556
 20
11.81454806857639
 10
12.1458740234375
 20
11.78549533420139
 10
12.14194064670139
 20
11.72762044270833
 10
12.14306640625
 20
11.66975911458333
 10
12.14569769965278
 20
11.61187065972222
 10
12.14927842881944
 20
11.53403049045139
 10
12.15273708767361
 20
11.45619032118056
 10
12.15626356336806
 20
11.37836371527778
 10
12.15680609809028
 20
11.36646864149306
 10
12.15869140625
 20
11.35493977864583
 10
12.16421169704861
 20
11.34187825520833
 97
        0
 92
        1
 93
        1
 72
     4
 94
        3
 73
     0
 74
     1
 95
       26
 96
       22
 40
0.0
 40
0.0
 40
0.0
 40
0.0
 40
1.0
 40
1.0
 40
1.0
 40
2.0
 40
2.0
 40
2.0
 40
3.0
 40
3.0
 40
3.0
 40
4.0
 40
4.0
 40
4.0
 40
5.0
 40
5.0
 40
5.0
 40
6.0
 40
6.0
 40
6.0
 40
7.0
 40
7.0
 40
7.0
 40
7.0
 10
11.20601399739583
 20
11.57316080729167
 10
11.21309407552083
 20
11.57737901475694
 10
11.21247016059028
 20
11.58213975694444
 10
11.21237521701389
 20
11.5863037109375
 10
11.21124945746528
 20
11.63864474826389
 10
11.20631239149306
 20
11.69051106770833
 10
11.19295247395833
 20
11.74131944444444
 10
11.18617078993056
 20
11.76710340711806
 10
11.17966037326389
 20
11.79299587673611
 10
11.16567654079861
 20
11.816162109375
 10
11.15585666232639
 20
11.83238389756944
 10
11.14499240451389
 20
11.85340711805556
 10
11.12437608506944
 20
11.84811740451389
 10
11.10602484809028
 20
11.84339735243056
 10
11.10526529947917
 20
11.82036675347222
 10
11.10377332899306
 20
11.80266655815972
 10
11.09723578559028
 20
11.72401258680556
 10
11.12440321180556
 20
11.65654839409722
 10
11.17331271701389
 20
11.59663899739583
 10
11.18240017361111
 20
11.58548990885417
 10
11.19352213541667
 20
11.57670084635417
 10
11.20601399739583
 20
11.57316080729167
 97
        0
 75
     2
 76
     1
 98
        0
  0
SPLINE
  5
46
330
3C
100
AcDbEntity
  8
Calque 1
370
     0
100
AcDbSpline
210
0.0
220
0.0
230
1.0
 70
    11
 71
     3
 72
   101
 73
    97
 74
     0
 42
0.0000000001
 43
0.0000000001
 40
0.0
 40
0.0
 40
0.0
 40
0.0
 40
1.0
 40
1.0
 40
1.0
 40
2.0
 40
2.0
 40
2.0
 40
3.0
 40
3.0
 40
3.0
 40
4.0
 40
4.0
 40
4.0
 40
5.0
 40
5.0
 40
5.0
 40
6.0
 40
6.0
 40
6.0
 40
7.0
 40
7.0
 40
7.0
 40
8.0
 40
8.0
 40
8.0
 40
9.0
 40
9.0
 40
9.0
 40
10.0
 40
10.0
 40
10.0
 40
11.0
 40
11.0
 40
11.0
 40
12.0
 40
12.0
 40
12.0
 40
13.0
 40
13.0
 40
13.0
 40
14.0
 40
14.0
 40
14.0
 40
15.0
 40
15.0
 40
15.0
 40
16.0
 40
16.0
 40
16.0
 40
17.0
 40
17.0
 40
17.0
 40
18.0
 40
18.0
 40
18.0
 40
19.0
 40
19.0
 40
19.0
 40
20.0
 40
20.0
 40
20.0
 40
21.0
 40
21.0
 40
21.0
 40
22.0
 40
22.0
 40
22.0
 40
23.0
 40
23.0
 40
23.0
 40
24.0
 40
24.0
 40
24.0
 40
25.0
 40
25.0
 40
25.0
 40
26.0
 40
26.0
 40
26.0
 40
27.0
 40
27.0
 40
27.0
 40
28.0
 40
28.0
 40
28.0
 40
29.0
 40
29.0
 40
29.0
 40
30.0
 40
30.0
 40
30.0
 40
31.0
 40
31.0
 40
31.0
 40
32.0
 40
32.0
 40
32.0
 40
32.0
 10
12.14325629340278
 20
12.38164605034722
 30
0.0
 10
12.14253743489583
 20
12.40996636284722
 30
0.0
 10
12.14271375868056
 20
12.43108452690972
 30
0.0
 10
12.14638943142361
 20
12.45209418402778
 30
0.0
 10
12.14817979600694
 20
12.46242947048611
 30
0.0
 10
12.15171983506944
 20
12.47144911024306
 30
0.0
 10
12.15996636284722
 20
12.47804090711806
 30
0.0
 10
12.16940646701389
 20
12.48556857638889
 30
0.0
 10
12.17991807725694
 20
12.48879665798611
 30
0.0
 10
12.19060601128472
 20
12.48111979166667
 30
0.0
 10
12.20109049479167
 20
12.47359212239583
 30
0.0
 10
12.20358615451389
 20
12.46347384982639
 30
0.0
 10
12.19681803385417
 20
12.451904296875
 30
0.0
 10
12.19345431857639
 20
12.44613986545139
 30
0.0
 10
12.18973795572917
 20
12.44060601128472
 30
0.0
 10
12.19003634982639
 20
12.43344455295139
 30
0.0
 10
12.19247775607639
 20
12.37558322482639
 30
0.0
 10
12.19291178385417
 20
12.31742350260417
 30
0.0
 10
12.21759711371528
 20
12.26312934027778
 30
0.0
 10
12.23512098524306
 20
12.224609375
 30
0.0
 10
12.25919596354167
 20
12.194091796875
 30
0.0
 10
12.30555555555556
 20
12.19124348958333
 30
0.0
 10
12.35350206163194
 20
12.18830023871528
 30
0.0
 10
12.38911946614583
 20
12.21019151475694
 30
0.0
 10
12.415771484375
 20
12.24830457899306
 30
0.0
 10
12.43631998697917
 20
12.27764214409722
 30
0.0
 10
12.43637424045139
 20
12.31085883246528
 30
0.0
 10
12.43161349826389
 20
12.34453667534722
 30
0.0
 10
12.42110188802083
 20
12.41849772135417
 30
0.0
 10
12.38894314236111
 20
12.48448350694444
 30
0.0
 10
12.35592990451389
 20
12.55021158854167
 30
0.0
 10
12.31643337673611
 20
12.62883843315972
 30
0.0
 10
12.27217610677083
 20
12.70484754774306
 30
0.0
 10
12.229248046875
 20
12.78160264756944
 30
0.0
 10
12.20315212673611
 20
12.82827419704861
 30
0.0
 10
12.18687608506944
 20
12.87904188368056
 30
0.0
 10
12.17275661892361
 20
12.93094889322917
 30
0.0
 10
12.16122775607639
 20
12.97340223524306
 30
0.0
 10
12.15437825520833
 20
13.01516384548611
 30
0.0
 10
12.15447319878472
 20
13.05904134114583
 30
0.0
 10
12.15462239583333
 20
13.15261501736111
 30
0.0
 10
12.18687608506944
 20
13.23301866319444
 30
0.0
 10
12.25029839409722
 20
13.30088975694444
 30
0.0
 10
12.28218587239583
 20
13.33500162760417
 30
0.0
 10
12.31993272569444
 20
13.35917154947917
 30
0.0
 10
12.3687744140625
 20
13.36223687065972
 30
0.0
 10
12.41887749565972
 20
13.36537000868056
 30
0.0
 10
12.45738389756944
 20
13.34262424045139
 30
0.0
 10
12.48928493923611
 20
13.3079833984375
 30
0.0
 10
12.54380967881944
 20
13.24876573350694
 30
0.0
 10
12.57076009114583
 20
13.17620171440972
 30
0.0
 10
12.58493381076389
 20
13.09818522135417
 30
0.0
 10
12.59319390190972
 20
13.05281575520833
 30
0.0
 10
12.59574381510417
 20
13.00752766927083
 30
0.0
 10
12.58317057291667
 20
12.96248372395833
 30
0.0
 10
12.58051215277778
 20
12.95286729600694
 30
0.0
 10
12.57722981770833
 20
12.94322374131944
 30
0.0
 10
12.57268608940972
 20
12.93439398871528
 30
0.0
 10
12.56430392795139
 20
12.91806369357639
 30
0.0
 10
12.55084906684028
 20
12.91141764322917
 30
0.0
 10
12.53778754340278
 20
12.91562228732639
 30
0.0
 10
12.52400716145833
 20
12.92008463541667
 30
0.0
 10
12.51692708333333
 20
12.93204752604167
 30
0.0
 10
12.52030436197917
 20
12.95077853732639
 30
0.0
 10
12.52628580729167
 20
12.98404947916667
 30
0.0
 10
12.52596028645833
 20
13.01737467447917
 30
0.0
 10
12.52237955729167
 20
13.05060492621528
 30
0.0
 10
12.51637098524306
 20
13.106689453125
 30
0.0
 10
12.50035264756944
 20
13.1595458984375
 30
0.0
 10
12.4678955078125
 20
13.20655653211806
 30
0.0
 10
12.45635308159722
 20
13.22322591145833
 30
0.0
 10
12.44266764322917
 20
13.23779296875
 30
0.0
 10
12.42552354600694
 20
13.2486572265625
 30
0.0
 10
12.4061279296875
 20
13.26099989149306
 30
0.0
 10
12.39554850260417
 20
13.2596435546875
 30
0.0
 10
12.38377549913194
 20
13.24024793836806
 30
0.0
 10
12.36075846354167
 20
13.20225694444444
 30
0.0
 10
12.35078938802083
 20
13.16023763020833
 30
0.0
 10
12.35262044270833
 20
13.11600748697917
 30
0.0
 10
12.35666232638889
 20
13.01909722222222
 30
0.0
 10
12.39427354600694
 20
12.93263075086806
 30
0.0
 10
12.43755425347222
 20
12.84800889756944
 30
0.0
 10
12.48569064670139
 20
12.75387912326389
 30
0.0
 10
12.53582085503472
 20
12.66060384114583
 30
0.0
 10
12.57355414496528
 20
12.5616455078125
 30
0.0
 10
12.59663899739583
 20
12.5010986328125
 30
0.0
 10
12.61214192708333
 20
12.43825954861111
 30
0.0
 10
12.60690646701389
 20
12.37263997395833
 30
0.0
 10
12.5958251953125
 20
12.23331705729167
 30
0.0
 10
12.50467936197917
 20
12.13339572482639
 30
0.0
 10
12.37791612413194
 20
12.11504448784722
 30
0.0
 10
12.26734754774306
 20
12.09902615017361
 30
0.0
 10
12.17747667100694
 20
12.16232638888889
 30
0.0
 10
12.15492078993056
 20
12.27259657118056
 30
0.0
 10
12.14706759982639
 20
12.31094021267361
 30
0.0
 10
12.14529079861111
 20
12.34986707899306
 30
0.0
 10
12.14325629340278
 20
12.38164605034722
 30
0.0
  0
HATCH
  5
47
330
3C
100
AcDbEntity
  8
Calque 1
 62
     7
420
 16777215
100
AcDbHatch
 10
0.0
 20
0.0
 30
0.0
210
0.0
220
0.0
230
1.0
  2
SOLID
 70
     1
 71
     0
 91
        1
 92
        1
 93
        1
 72
     4
 94
        3
 73
     0
 74
     1
 95
      101
 96
       97
 40
0.0
 40
0.0
 40
0.0
 40
0.0
 40
1.0
 40
1.0
 40
1.0
 40
2.0
 40
2.0
 40
2.0
 40
3.0
 40
3.0
 40
3.0
 40
4.0
 40
4.0
 40
4.0
 40
5.0
 40
5.0
 40
5.0
 40
6.0
 40
6.0
 40
6.0
 40
7.0
 40
7.0
 40
7.0
 40
8.0
 40
8.0
 40
8.0
 40
9.0
 40
9.0
 40
9.0
 40
10.0
 40
10.0
 40
10.0
 40
11.0
 40
11.0
 40
11.0
 40
12.0
 40
12.0
 40
12.0
 40
13.0
 40
13.0
 40
13.0
 40
14.0
 40
14.0
 40
14.0
 40
15.0
 40
15.0
 40
15.0
 40
16.0
 40
16.0
 40
16.0
 40
17.0
 40
17.0
 40
17.0
 40
18.0
 40
18.0
 40
18.0
 40
19.0
 40
19.0
 40
19.0
 40
20.0
 40
20.0
 40
20.0
 40
21.0
 40
21.0
 40
21.0
 40
22.0
 40
22.0
 40
22.0
 40
23.0
 40
23.0
 40
23.0
 40
24.0
 40
24.0
 40
24.0
 40
25.0
 40
25.0
 40
25.0
 40
26.0
 40
26.0
 40
26.0
 40
27.0
 40
27.0
 40
27.0
 40
28.0
 40
28.0
 40
28.0
 40
29.0
 40
29.0
 40
29.0
 40
30.0
 40
30.0
 40
30.0
 40
31.0
 40
31.0
 40
31.0
 40
32.0
 40
32.0
 40
32.0
 40
32.0
 10
12.14325629340278
 20
12.38164605034722
 10
12.14253743489583
 20
12.40996636284722
 10
12.14271375868056
 20
12.43108452690972
 10
12.14638943142361
 20
12.45209418402778
 10
12.14817979600694
 20
12.46242947048611
 10
12.15171983506944
 20
12.47144911024306
 10
12.15996636284722
 20
12.47804090711806
 10
12.16940646701389
 20
12.48556857638889
 10
12.17991807725694
 20
12.48879665798611
 10
12.19060601128472
 20
12.48111979166667
 10
12.20109049479167
 20
12.47359212239583
 10
12.20358615451389
 20
12.46347384982639
 10
12.19681803385417
 20
12.451904296875
 10
12.19345431857639
 20
12.44613986545139
 10
12.18973795572917
 20
12.44060601128472
 10
12.19003634982639
 20
12.43344455295139
 10
12.19247775607639
 20
12.37558322482639
 10
12.19291178385417
 20
12.31742350260417
 10
12.21759711371528
 20
12.26312934027778
 10
12.23512098524306
 20
12.224609375
 10
12.25919596354167
 20
12.194091796875
 10
12.30555555555556
 20
12.19124348958333
 10
12.35350206163194
 20
12.18830023871528
 10
12.38911946614583
 20
12.21019151475694
 10
12.415771484375
 20
12.24830457899306
 10
12.43631998697917
 20
12.27764214409722
 10
12.43637424045139
 20
12.31085883246528
 10
12.43161349826389
 20
12.34453667534722
 10
12.42110188802083
 20
12.41849772135417
 10
12.38894314236111
 20
12.48448350694444
 10
12.35592990451389
 20
12.55021158854167
 10
12.31643337673611
 20
12.62883843315972
 10
12.27217610677083
 20
12.70484754774306
 10
12.229248046875
 20
12.78160264756944
 10
12.20315212673611
 20
12.82827419704861
 10
12.18687608506944
 20
12.87904188368056
 10
12.17275661892361
 20
12.93094889322917
 10
12.16122775607639
 20
12.97340223524306
 10
12.15437825520833
 20
13.01516384548611
 10
12.15447319878472
 20
13.05904134114583
 10
12.15462239583333
 20
13.15261501736111
 10
12.18687608506944
 20
13.23301866319444
 10
12.25029839409722
 20
13.30088975694444
 10
12.28218587239583
 20
13.33500162760417
 10
12.31993272569444
 20
13.35917154947917
 10
12.3687744140625
 20
13.36223687065972
 10
12.41887749565972
 20
13.36537000868056
 10
12.45738389756944
 20
13.34262424045139
 10
12.48928493923611
 20
13.3079833984375
 10
12.54380967881944
 20
13.24876573350694
 10
12.57076009114583
 20
13.17620171440972
 10
12.58493381076389
 20
13.09818522135417
 10
12.59319390190972
 20
13.05281575520833
 10
12.59574381510417
 20
13.00752766927083
 10
12.58317057291667
 20
12.96248372395833
 10
12.58051215277778
 20
12.95286729600694
 10
12.57722981770833
 20
12.94322374131944
 10
12.57268608940972
 20
12.93439398871528
 10
12.56430392795139
 20
12.91806369357639
 10
12.55084906684028
 20
12.91141764322917
 10
12.53778754340278
 20
12.91562228732639
 10
12.52400716145833
 20
12.92008463541667
 10
12.51692708333333
 20
12.93204752604167
 10
12.52030436197917
 20
12.95077853732639
 10
12.52628580729167
 20
12.98404947916667
 10
12.52596028645833
 20
13.01737467447917
 10
12.52237955729167
 20
13.05060492621528
 10
12.51637098524306
 20
13.106689453125
 10
12.50035264756944
 20
13.1595458984375
 10
12.4678955078125
 20
13.20655653211806
 10
12.45635308159722
 20
13.22322591145833
 10
12.44266764322917
 20
13.23779296875
 10
12.42552354600694
 20
13.2486572265625
 10
12.4061279296875
 20
13.26099989149306
 10
12.39554850260417
 20
13.2596435546875
 10
12.38377549913194
 20
13.24024793836806
 10
12.36075846354167
 20
13.20225694444444
 10
12.35078938802083
 20
13.16023763020833
 10
12.35262044270833
 20
13.11600748697917
 10
12.35666232638889
 20
13.01909722222222
 10
12.39427354600694
 20
12.93263075086806
 10
12.43755425347222
 20
12.84800889756944
 10
12.48569064670139
 20
12.75387912326389
 10
12.53582085503472
 20
12.66060384114583
 10
12.57355414496528
 20
12.5616455078125
 10
12.59663899739583
 20
12.5010986328125
 10
12.61214192708333
 20
12.43825954861111
 10
12.60690646701389
 20
12.37263997395833
 10
12.5958251953125
 20
12.23331705729167
 10
12.50467936197917
 20
12.13339572482639
 10
12.37791612413194
 20
12.11504448784722
 10
12.26734754774306
 20
12.09902615017361
 10
12.17747667100694
 20
12.16232638888889
 10
12.15492078993056
 20
12.27259657118056
 10
12.14706759982639
 20
12.31094021267361
 10
12.14529079861111
 20
12.34986707899306
 10
12.14325629340278
 20
12.38164605034722
 97
        0
 75
     2
 76
     1
 98
        0
  0
SPLINE
  5
48
330
3C
100
AcDbEntity
  8
Calque 1
370
     0
100
AcDbSpline
210
0.0
220
0.0
230
1.0
 70
    11
 71
     3
 72
   119
 73
   115
 74
     0
 42
0.0000000001
 43
0.0000000001
 40
0.0
 40
0.0
 40
0.0
 40
0.0
 40
1.0
 40
1.0
 40
1.0
 40
2.0
 40
2.0
 40
2.0
 40
3.0
 40
3.0
 40
3.0
 40
4.0
 40
4.0
 40
4.0
 40
5.0
 40
5.0
 40
5.0
 40
6.0
 40
6.0
 40
6.0
 40
7.0
 40
7.0
 40
7.0
 40
8.0
 40
8.0
 40
8.0
 40
9.0
 40
9.0
 40
9.0
 40
10.0
 40
10.0
 40
10.0
 40
11.0
 40
11.0
 40
11.0
 40
12.0
 40
12.0
 40
12.0
 40
13.0
 40
13.0
 40
13.0
 40
14.0
 40
14.0
 40
14.0
 40
15.0
 40
15.0
 40
15.0
 40
16.0
 40
16.0
 40
16.0
 40
17.0
 40
17.0
 40
17.0
 40
18.0
 40
18.0
 40
18.0
 40
19.0
 40
19.0
 40
19.0
 40
20.0
 40
20.0
 40
20.0
 40
21.0
 40
21.0
 40
21.0
 40
22.0
 40
22.0
 40
22.0
 40
23.0
 40
23.0
 40
23.0
 40
24.0
 40
24.0
 40
24.0
 40
25.0
 40
25.0
 40
25.0
 40
26.0
 40
26.0
 40
26.0
 40
27.0
 40
27.0
 40
27.0
 40
28.0
 40
28.0
 40
28.0
 40
29.0
 40
29.0
 40
29.0
 40
30.0
 40
30.0
 40
30.0
 40
31.0
 40
31.0
 40
31.0
 40
32.0
 40
32.0
 40
32.0
 40
33.0
 40
33.0
 40
33.0
 40
34.0
 40
34.0
 40
34.0
 40
35.0
 40
35.0
 40
35.0
 40
36.0
 40
36.0
 40
36.0
 40
37.0
 40
37.0
 40
37.0
 40
38.0
 40
38.0
 40
38.0
 40
38.0
 10
13.3394775390625
 20
12.58730740017361
 30
0.0
 10
13.32964409722222
 20
12.59427897135417
 30
0.0
 10
13.32046169704861
 20
12.59205457899306
 30
0.0
 10
13.31174045138889
 20
12.59208170572917
 30
0.0
 10
13.29942491319444
 20
12.59212239583333
 30
0.0
 10
13.28728569878472
 20
12.5928955078125
 30
0.0
 10
13.27525499131944
 20
12.59575737847222
 30
0.0
 10
13.25094943576389
 20
12.60154893663194
 30
0.0
 10
13.23920355902778
 20
12.61263020833333
 30
0.0
 10
13.24024793836806
 20
12.62923177083333
 30
0.0
 10
13.2412109375
 20
12.64466688368056
 30
0.0
 10
13.25272623697917
 20
12.65481228298611
 30
0.0
 10
13.27518717447917
 20
12.65926106770833
 30
0.0
 10
13.33155653211806
 20
12.67043728298611
 30
0.0
 10
13.38848198784722
 20
12.66570366753472
 30
0.0
 10
13.44523111979167
 20
12.66423882378472
 30
0.0
 10
13.46048990885417
 20
12.66385904947917
 30
0.0
 10
13.47379557291667
 20
12.65687391493056
 30
0.0
 10
13.47634548611111
 20
12.639404296875
 30
0.0
 10
13.47846137152778
 20
12.6248779296875
 30
0.0
 10
13.46823459201389
 20
12.61561414930556
 30
0.0
 10
13.44600423177083
 20
12.61048719618056
 30
0.0
 10
13.44383409288194
 20
12.6099853515625
 30
0.0
 10
13.44156901041667
 20
12.60978190104167
 30
0.0
 10
13.43948025173611
 20
12.60903591579861
 30
0.0
 10
13.42503526475694
 20
12.60377332899306
 30
0.0
 10
13.4044189453125
 20
12.61359320746528
 30
0.0
 10
13.39586046006944
 20
12.59902615017361
 30
0.0
 10
13.38859049479167
 20
12.58657497829861
 30
0.0
 10
13.3905029296875
 20
12.56880696614583
 30
0.0
 10
13.38814290364583
 20
12.55342610677083
 30
0.0
 10
13.37769911024306
 20
12.48518880208333
 30
0.0
 10
13.37570529513889
 20
12.41566297743056
 30
0.0
 10
13.35845269097222
 20
12.3485107421875
 30
0.0
 10
13.34566243489583
 20
12.29876030815972
 30
0.0
 10
13.32935926649306
 20
12.25032552083333
 30
0.0
 10
13.29608832465278
 20
12.20941840277778
 30
0.0
 10
13.24673122829861
 20
12.14870876736111
 30
0.0
 10
13.18094889322917
 20
12.14169650607639
 30
0.0
 10
13.12075466579861
 20
12.19125705295139
 30
0.0
 10
13.06932237413194
 20
12.23361545138889
 30
0.0
 10
13.02811686197917
 20
12.28361002604167
 30
0.0
 10
12.99952528211806
 20
12.34444173177083
 30
0.0
 10
12.97630479600694
 20
12.39383951822917
 30
0.0
 10
12.95075141059028
 20
12.44219292534722
 30
0.0
 10
12.93326822916667
 20
12.49403211805556
 30
0.0
 10
12.91213650173611
 20
12.55674913194444
 30
0.0
 10
12.90348307291667
 20
12.62236870659722
 30
0.0
 10
12.89884440104167
 20
12.6876220703125
 30
0.0
 10
12.89211697048611
 20
12.78192816840278
 30
0.0
 10
12.88925509982639
 20
12.87689887152778
 30
0.0
 10
12.90376790364583
 20
12.97098795572917
 30
0.0
 10
12.91794162326389
 20
13.06268988715278
 30
0.0
 10
12.93653700086806
 20
13.15341525607639
 30
0.0
 10
12.9925537109375
 20
13.23078070746528
 30
0.0
 10
13.0284423828125
 20
13.2803955078125
 30
0.0
 10
13.07175021701389
 20
13.32032606336806
 30
0.0
 10
13.13338216145833
 20
13.33706325954861
 30
0.0
 10
13.17366536458333
 20
13.3480224609375
 30
0.0
 10
13.21240234375
 20
13.34418402777778
 30
0.0
 10
13.24613444010417
 20
13.32283528645833
 30
0.0
 10
13.33610026041667
 20
13.26585557725694
 30
0.0
 10
13.3873291015625
 20
13.18302408854167
 30
0.0
 10
13.39950900607639
 20
13.07675509982639
 30
0.0
 10
13.4002685546875
 20
13.07014973958333
 30
0.0
 10
13.40017361111111
 20
13.06331380208333
 30
0.0
 10
13.39935980902778
 20
13.05673556857639
 30
0.0
 10
13.39713541666667
 20
13.03892686631944
 30
0.0
 10
13.38726128472222
 20
13.02804904513889
 30
0.0
 10
13.37287055121528
 20
13.02728949652778
 30
0.0
 10
13.35700141059028
 20
13.02644856770833
 30
0.0
 10
13.34847005208333
 20
13.03561740451389
 30
0.0
 10
13.34346516927083
 20
13.04954698350694
 30
0.0
 10
13.33744303385417
 20
13.0662841796875
 30
0.0
 10
13.33193630642361
 20
13.08330620659722
 30
0.0
 10
13.32474772135417
 20
13.09954155815972
 30
0.0
 10
13.31298828125
 20
13.12603081597222
 30
0.0
 10
13.29984537760417
 20
13.15189615885417
 30
0.0
 10
13.28143988715278
 20
13.17461480034722
 30
0.0
 10
13.2708740234375
 20
13.18766276041667
 30
0.0
 10
13.25953504774306
 20
13.20004611545139
 30
0.0
 10
13.24506293402778
 20
13.20876736111111
 30
0.0
 10
13.22181532118056
 20
13.22280544704861
 30
0.0
 10
13.21042209201389
 20
13.22054036458333
 30
0.0
 10
13.19376627604167
 20
13.19877115885417
 30
0.0
 10
13.17655436197917
 20
13.17629665798611
 30
0.0
 10
13.16729058159722
 20
13.14988878038194
 30
0.0
 10
13.15870496961806
 20
13.12342664930556
 30
0.0
 10
13.12113444010417
 20
13.00766330295139
 30
0.0
 10
13.10812717013889
 20
12.88812934027778
 30
0.0
 10
13.11246744791667
 20
12.76734754774306
 30
0.0
 10
13.11454264322917
 20
12.7098388671875
 30
0.0
 10
13.12185329861111
 20
12.65214029947917
 30
0.0
 10
13.13009982638889
 20
12.59476725260417
 30
0.0
 10
13.13738335503472
 20
12.54412163628472
 30
0.0
 10
13.13899739583333
 20
12.49264865451389
 30
0.0
 10
13.14472113715278
 20
12.44173177083333
 30
0.0
 10
13.15030924479167
 20
12.39187282986111
 30
0.0
 10
13.16216362847222
 20
12.34312608506944
 30
0.0
 10
13.17506239149306
 20
12.29469129774306
 30
0.0
 10
13.17884657118056
 20
12.28049045138889
 30
0.0
 10
13.18539767795139
 20
12.2677001953125
 30
0.0
 10
13.19516330295139
 20
12.256591796875
 30
0.0
 10
13.21310763888889
 20
12.23616536458333
 30
0.0
 10
13.22214084201389
 20
12.23569064670139
 30
0.0
 10
13.24141438802083
 20
12.25566948784722
 30
0.0
 10
13.25307888454861
 20
12.26776801215278
 30
0.0
 10
13.26181369357639
 20
12.28203667534722
 30
0.0
 10
13.26896158854167
 20
12.29729546440972
 30
0.0
 10
13.29857042100694
 20
12.36051432291667
 30
0.0
 10
13.31148274739583
 20
12.42845323350694
 30
0.0
 10
13.32501898871528
 20
12.49613444010417
 30
0.0
 10
13.33110894097222
 20
12.526611328125
 30
0.0
 10
13.33482530381944
 20
12.55753580729167
 30
0.0
 10
13.3394775390625
 20
12.58730740017361
 30
0.0
  0
HATCH
  5
49
330
3C
100
AcDbEntity
  8
Calque 1
 62
     7
420
 16777215
100
AcDbHatch
 10
0.0
 20
0.0
 30
0.0
210
0.0
220
0.0
230
1.0
  2
SOLID
 70
     1
 71
     0
 91
        1
 92
        1
 93
        1
 72
     4
 94
        3
 73
     0
 74
     1
 95
      119
 96
      115
 40
0.0
 40
0.0
 40
0.0
 40
0.0
 40
1.0
 40
1.0
 40
1.0
 40
2.0
 40
2.0
 40
2.0
 40
3.0
 40
3.0
 40
3.0
 40
4.0
 40
4.0
 40
4.0
 40
5.0
 40
5.0
 40
5.0
 40
6.0
 40
6.0
 40
6.0
 40
7.0
 40
7.0
 40
7.0
 40
8.0
 40
8.0
 40
8.0
 40
9.0
 40
9.0
 40
9.0
 40
10.0
 40
10.0
 40
10.0
 40
11.0
 40
11.0
 40
11.0
 40
12.0
 40
12.0
 40
12.0
 40
13.0
 40
13.0
 40
13.0
 40
14.0
 40
14.0
 40
14.0
 40
15.0
 40
15.0
 40
15.0
 40
16.0
 40
16.0
 40
16.0
 40
17.0
 40
17.0
 40
17.0
 40
18.0
 40
18.0
 40
18.0
 40
19.0
 40
19.0
 40
19.0
 40
20.0
 40
20.0
 40
20.0
 40
21.0
 40
21.0
 40
21.0
 40
22.0
 40
22.0
 40
22.0
 40
23.0
 40
23.0
 40
23.0
 40
24.0
 40
24.0
 40
24.0
 40
25.0
 40
25.0
 40
25.0
 40
26.0
 40
26.0
 40
26.0
 40
27.0
 40
27.0
 40
27.0
 40
28.0
 40
28.0
 40
28.0
 40
29.0
 40
29.0
 40
29.0
 40
30.0
 40
30.0
 40
30.0
 40
31.0
 40
31.0
 40
31.0
 40
32.0
 40
32.0
 40
32.0
 40
33.0
 40
33.0
 40
33.0
 40
34.0
 40
34.0
 40
34.0
 40
35.0
 40
35.0
 40
35.0
 40
36.0
 40
36.0
 40
36.0
 40
37.0
 40
37.0
 40
37.0
 40
38.0
 40
38.0
 40
38.0
 40
38.0
 10
13.3394775390625
 20
12.58730740017361
 10
13.32964409722222
 20
12.59427897135417
 10
13.32046169704861
 20
12.59205457899306
 10
13.31174045138889
 20
12.59208170572917
 10
13.29942491319444
 20
12.59212239583333
 10
13.28728569878472
 20
12.5928955078125
 10
13.27525499131944
 20
12.59575737847222
 10
13.25094943576389
 20
12.60154893663194
 10
13.23920355902778
 20
12.61263020833333
 10
13.24024793836806
 20
12.62923177083333
 10
13.2412109375
 20
12.64466688368056
 10
13.25272623697917
 20
12.65481228298611
 10
13.27518717447917
 20
12.65926106770833
 10
13.33155653211806
 20
12.67043728298611
 10
13.38848198784722
 20
12.66570366753472
 10
13.44523111979167
 20
12.66423882378472
 10
13.46048990885417
 20
12.66385904947917
 10
13.47379557291667
 20
12.65687391493056
 10
13.47634548611111
 20
12.639404296875
 10
13.47846137152778
 20
12.6248779296875
 10
13.46823459201389
 20
12.61561414930556
 10
13.44600423177083
 20
12.61048719618056
 10
13.44383409288194
 20
12.6099853515625
 10
13.44156901041667
 20
12.60978190104167
 10
13.43948025173611
 20
12.60903591579861
 10
13.42503526475694
 20
12.60377332899306
 10
13.4044189453125
 20
12.61359320746528
 10
13.39586046006944
 20
12.59902615017361
 10
13.38859049479167
 20
12.58657497829861
 10
13.3905029296875
 20
12.56880696614583
 10
13.38814290364583
 20
12.55342610677083
 10
13.37769911024306
 20
12.48518880208333
 10
13.37570529513889
 20
12.41566297743056
 10
13.35845269097222
 20
12.3485107421875
 10
13.34566243489583
 20
12.29876030815972
 10
13.32935926649306
 20
12.25032552083333
 10
13.29608832465278
 20
12.20941840277778
 10
13.24673122829861
 20
12.14870876736111
 10
13.18094889322917
 20
12.14169650607639
 10
13.12075466579861
 20
12.19125705295139
 10
13.06932237413194
 20
12.23361545138889
 10
13.02811686197917
 20
12.28361002604167
 10
12.99952528211806
 20
12.34444173177083
 10
12.97630479600694
 20
12.39383951822917
 10
12.95075141059028
 20
12.44219292534722
 10
12.93326822916667
 20
12.49403211805556
 10
12.91213650173611
 20
12.55674913194444
 10
12.90348307291667
 20
12.62236870659722
 10
12.89884440104167
 20
12.6876220703125
 10
12.89211697048611
 20
12.78192816840278
 10
12.88925509982639
 20
12.87689887152778
 10
12.90376790364583
 20
12.97098795572917
 10
12.91794162326389
 20
13.06268988715278
 10
12.93653700086806
 20
13.15341525607639
 10
12.9925537109375
 20
13.23078070746528
 10
13.0284423828125
 20
13.2803955078125
 10
13.07175021701389
 20
13.32032606336806
 10
13.13338216145833
 20
13.33706325954861
 10
13.17366536458333
 20
13.3480224609375
 10
13.21240234375
 20
13.34418402777778
 10
13.24613444010417
 20
13.32283528645833
 10
13.33610026041667
 20
13.26585557725694
 10
13.3873291015625
 20
13.18302408854167
 10
13.39950900607639
 20
13.07675509982639
 10
13.4002685546875
 20
13.07014973958333
 10
13.40017361111111
 20
13.06331380208333
 10
13.39935980902778
 20
13.05673556857639
 10
13.39713541666667
 20
13.03892686631944
 10
13.38726128472222
 20
13.02804904513889
 10
13.37287055121528
 20
13.02728949652778
 10
13.35700141059028
 20
13.02644856770833
 10
13.34847005208333
 20
13.03561740451389
 10
13.34346516927083
 20
13.04954698350694
 10
13.33744303385417
 20
13.0662841796875
 10
13.33193630642361
 20
13.08330620659722
 10
13.32474772135417
 20
13.09954155815972
 10
13.31298828125
 20
13.12603081597222
 10
13.29984537760417
 20
13.15189615885417
 10
13.28143988715278
 20
13.17461480034722
 10
13.2708740234375
 20
13.18766276041667
 10
13.25953504774306
 20
13.20004611545139
 10
13.24506293402778
 20
13.20876736111111
 10
13.22181532118056
 20
13.22280544704861
 10
13.21042209201389
 20
13.22054036458333
 10
13.19376627604167
 20
13.19877115885417
 10
13.17655436197917
 20
13.17629665798611
 10
13.16729058159722
 20
13.14988878038194
 10
13.15870496961806
 20
13.12342664930556
 10
13.12113444010417
 20
13.00766330295139
 10
13.10812717013889
 20
12.88812934027778
 10
13.11246744791667
 20
12.76734754774306
 10
13.11454264322917
 20
12.7098388671875
 10
13.12185329861111
 20
12.65214029947917
 10
13.13009982638889
 20
12.59476725260417
 10
13.13738335503472
 20
12.54412163628472
 10
13.13899739583333
 20
12.49264865451389
 10
13.14472113715278
 20
12.44173177083333
 10
13.15030924479167
 20
12.39187282986111
 10
13.16216362847222
 20
12.34312608506944
 10
13.17506239149306
 20
12.29469129774306
 10
13.17884657118056
 20
12.28049045138889
 10
13.18539767795139
 20
12.2677001953125
 10
13.19516330295139
 20
12.256591796875
 10
13.21310763888889
 20
12.23616536458333
 10
13.22214084201389
 20
12.23569064670139
 10
13.24141438802083
 20
12.25566948784722
 10
13.25307888454861
 20
12.26776801215278
 10
13.26181369357639
 20
12.28203667534722
 10
13.26896158854167
 20
12.29729546440972
 10
13.29857042100694
 20
12.36051432291667
 10
13.31148274739583
 20
12.42845323350694
 10
13.32501898871528
 20
12.49613444010417
 10
13.33110894097222
 20
12.526611328125
 10
13.33482530381944
 20
12.55753580729167
 10
13.3394775390625
 20
12.58730740017361
 97
        0
 75
     2
 76
     1
 98
        0
  0
SPLINE
  5
4A
330
3C
100
AcDbEntity
  8
Calque 1
370
     0
100
AcDbSpline
210
0.0
220
0.0
230
1.0
 70
    11
 71
     3
 72
    44
 73
    40
 74
     0
 42
0.0000000001
 43
0.0000000001
 40
0.0
 40
0.0
 40
0.0
 40
0.0
 40
1.0
 40
1.0
 40
1.0
 40
2.0
 40
2.0
 40
2.0
 40
3.0
 40
3.0
 40
3.0
 40
4.0
 40
4.0
 40
4.0
 40
5.0
 40
5.0
 40
5.0
 40
6.0
 40
6.0
 40
6.0
 40
7.0
 40
7.0
 40
7.0
 40
8.0
 40
8.0
 40
8.0
 40
9.0
 40
9.0
 40
9.0
 40
10.0
 40
10.0
 40
10.0
 40
11.0
 40
11.0
 40
11.0
 40
12.0
 40
12.0
 40
12.0
 40
13.0
 40
13.0
 40
13.0
 40
13.0
 10
14.09304470486111
 20
12.76946343315972
 30
0.0
 10
14.09358723958333
 20
12.63491482204861
 30
0.0
 10
14.07622612847222
 20
12.50313313802083
 30
0.0
 10
14.028076171875
 20
12.37665473090278
 30
0.0
 10
14.00934516059028
 20
12.32746039496528
 30
0.0
 10
13.98383246527778
 20
12.28192816840278
 30
0.0
 10
13.94695366753472
 20
12.24343532986111
 30
0.0
 10
13.88720703125
 20
12.18111165364583
 30
0.0
 10
13.801513671875
 20
12.17477756076389
 30
0.0
 10
13.73731825086806
 20
12.23253038194444
 30
0.0
 10
13.66133626302083
 20
12.30088975694444
 30
0.0
 10
13.6064453125
 20
12.38374837239583
 30
0.0
 10
13.58059353298611
 20
12.48398166232639
 30
0.0
 10
13.5733642578125
 20
12.51193576388889
 30
0.0
 10
13.56416829427083
 20
12.53922526041667
 30
0.0
 10
13.55830891927083
 20
12.56770833333333
 30
0.0
 10
13.53328450520833
 20
12.68892415364583
 30
0.0
 10
13.54024251302083
 20
12.80855305989583
 30
0.0
 10
13.56991916232639
 20
12.92796495225694
 30
0.0
 10
13.58097330729167
 20
12.97247992621528
 30
0.0
 10
13.59571668836806
 20
13.01543511284722
 30
0.0
 10
13.61477322048611
 20
13.05696614583333
 30
0.0
 10
13.64398871527778
 20
13.12064615885417
 30
0.0
 10
13.68296983506944
 20
13.17719184027778
 30
0.0
 10
13.74202473958333
 20
13.21676974826389
 30
0.0
 10
13.78134494357639
 20
13.24310980902778
 30
0.0
 10
13.82467990451389
 20
13.25360785590278
 30
0.0
 10
13.87249077690972
 20
13.24260796440972
 30
0.0
 10
13.90134006076389
 20
13.2359619140625
 30
0.0
 10
13.923583984375
 20
13.22153049045139
 30
0.0
 10
13.93980577256944
 20
13.19736056857639
 30
0.0
 10
13.94536675347222
 20
13.18904622395833
 30
0.0
 10
13.95026312934028
 20
13.1806640625
 30
0.0
 10
13.95856391059028
 20
13.17426215277778
 30
0.0
 10
14.02596028645833
 20
13.12223307291667
 30
0.0
 10
14.05782063802083
 20
13.04927571614583
 30
0.0
 10
14.07274034288194
 20
12.96889919704861
 30
0.0
 10
14.08487955729167
 20
12.90329318576389
 30
0.0
 10
14.09141710069444
 20
12.83656141493056
 30
0.0
 10
14.09304470486111
 20
12.76946343315972
 30
0.0
  0
SPLINE
  5
4B
330
3C
100
AcDbEntity
  8
Calque 1
370
     0
100
AcDbSpline
210
0.0
220
0.0
230
1.0
 70
    11
 71
     3
 72
    44
 73
    40
 74
     0
 42
0.0000000001
 43
0.0000000001
 40
0.0
 40
0.0
 40
0.0
 40
0.0
 40
1.0
 40
1.0
 40
1.0
 40
2.0
 40
2.0
 40
2.0
 40
3.0
 40
3.0
 40
3.0
 40
4.0
 40
4.0
 40
4.0
 40
5.0
 40
5.0
 40
5.0
 40
6.0
 40
6.0
 40
6.0
 40
7.0
 40
7.0
 40
7.0
 40
8.0
 40
8.0
 40
8.0
 40
9.0
 40
9.0
 40
9.0
 40
10.0
 40
10.0
 40
10.0
 40
11.0
 40
11.0
 40
11.0
 40
12.0
 40
12.0
 40
12.0
 40
13.0
 40
13.0
 40
13.0
 40
13.0
 10
14.01715766059028
 20
12.71222601996528
 30
0.0
 10
14.02228461371528
 20
12.78309461805556
 30
0.0
 10
14.01807996961806
 20
12.84320746527778
 30
0.0
 10
14.01268174913194
 20
12.90310329861111
 30
0.0
 10
14.00819227430556
 20
12.953125
 30
0.0
 10
13.99831814236111
 20
13.00204806857639
 30
0.0
 10
13.9776611328125
 20
13.04862467447917
 30
0.0
 10
13.961669921875
 20
13.08466254340278
 30
0.0
 10
13.93104383680556
 20
13.10759819878472
 30
0.0
 10
13.90593804253472
 20
13.13556586371528
 30
0.0
 10
13.90070258246528
 20
13.14139811197917
 30
0.0
 10
13.8941650390625
 20
13.14078776041667
 30
0.0
 10
13.88743760850694
 20
13.14024522569444
 30
0.0
 10
13.86958821614583
 20
13.13880750868056
 30
0.0
 10
13.85579427083333
 20
13.1297607421875
 30
0.0
 10
13.84495713975694
 20
13.11630588107639
 30
0.0
 10
13.82743326822917
 20
13.09457736545139
 30
0.0
 10
13.81233723958333
 20
13.071533203125
 30
0.0
 10
13.80244954427083
 20
13.04493543836806
 30
0.0
 10
13.78645833333333
 20
13.00187174479167
 30
0.0
 10
13.77724880642361
 20
12.95728895399306
 30
0.0
 10
13.76995171440972
 20
12.91220431857639
 30
0.0
 10
13.7550048828125
 20
12.81971571180556
 30
0.0
 10
13.74716525607639
 20
12.72675238715278
 30
0.0
 10
13.74983723958333
 20
12.63288031684028
 30
0.0
 10
13.75176323784722
 20
12.56593153211806
 30
0.0
 10
13.760009765625
 20
12.49971516927083
 30
0.0
 10
13.76966688368056
 20
12.43362087673611
 30
0.0
 10
13.77528211805556
 20
12.39503309461806
 30
0.0
 10
13.78145345052083
 20
12.35629611545139
 30
0.0
 10
13.80013020833333
 20
12.32130262586806
 30
0.0
 10
13.82891167534722
 20
12.26744249131944
 30
0.0
 10
13.86368815104167
 20
12.26333279079861
 30
0.0
 10
13.90383572048611
 20
12.30826822916667
 30
0.0
 10
13.93492296006944
 20
12.34304470486111
 30
0.0
 10
13.95298936631944
 20
12.38487413194444
 30
0.0
 10
13.96907552083333
 20
12.42780219184028
 30
0.0
 10
14.00470648871528
 20
12.52293565538194
 30
0.0
 10
14.01953125
 20
12.62154134114583
 30
0.0
 10
14.01715766059028
 20
12.71222601996528
 30
0.0
  0
HATCH
  5
4C
330
3C
100
AcDbEntity
  8
Calque 1
 62
     7
420
 16777215
100
AcDbHatch
 10
0.0
 20
0.0
 30
0.0
210
0.0
220
0.0
230
1.0
  2
SOLID
 70
     1
 71
     0
 91
        2
 92
        1
 93
        1
 72
     4
 94
        3
 73
     0
 74
     1
 95
       44
 96
       40
 40
0.0
 40
0.0
 40
0.0
 40
0.0
 40
1.0
 40
1.0
 40
1.0
 40
2.0
 40
2.0
 40
2.0
 40
3.0
 40
3.0
 40
3.0
 40
4.0
 40
4.0
 40
4.0
 40
5.0
 40
5.0
 40
5.0
 40
6.0
 40
6.0
 40
6.0
 40
7.0
 40
7.0
 40
7.0
 40
8.0
 40
8.0
 40
8.0
 40
9.0
 40
9.0
 40
9.0
 40
10.0
 40
10.0
 40
10.0
 40
11.0
 40
11.0
 40
11.0
 40
12.0
 40
12.0
 40
12.0
 40
13.0
 40
13.0
 40
13.0
 40
13.0
 10
14.09304470486111
 20
12.76946343315972
 10
14.09358723958333
 20
12.63491482204861
 10
14.07622612847222
 20
12.50313313802083
 10
14.028076171875
 20
12.37665473090278
 10
14.00934516059028
 20
12.32746039496528
 10
13.98383246527778
 20
12.28192816840278
 10
13.94695366753472
 20
12.24343532986111
 10
13.88720703125
 20
12.18111165364583
 10
13.801513671875
 20
12.17477756076389
 10
13.73731825086806
 20
12.23253038194444
 10
13.66133626302083
 20
12.30088975694444
 10
13.6064453125
 20
12.38374837239583
 10
13.58059353298611
 20
12.48398166232639
 10
13.5733642578125
 20
12.51193576388889
 10
13.56416829427083
 20
12.53922526041667
 10
13.55830891927083
 20
12.56770833333333
 10
13.53328450520833
 20
12.68892415364583
 10
13.54024251302083
 20
12.80855305989583
 10
13.56991916232639
 20
12.92796495225694
 10
13.58097330729167
 20
12.97247992621528
 10
13.59571668836806
 20
13.01543511284722
 10
13.61477322048611
 20
13.05696614583333
 10
13.64398871527778
 20
13.12064615885417
 10
13.68296983506944
 20
13.17719184027778
 10
13.74202473958333
 20
13.21676974826389
 10
13.78134494357639
 20
13.24310980902778
 10
13.82467990451389
 20
13.25360785590278
 10
13.87249077690972
 20
13.24260796440972
 10
13.90134006076389
 20
13.2359619140625
 10
13.923583984375
 20
13.22153049045139
 10
13.93980577256944
 20
13.19736056857639
 10
13.94536675347222
 20
13.18904622395833
 10
13.95026312934028
 20
13.1806640625
 10
13.95856391059028
 20
13.17426215277778
 10
14.02596028645833
 20
13.12223307291667
 10
14.05782063802083
 20
13.04927571614583
 10
14.07274034288194
 20
12.96889919704861
 10
14.08487955729167
 20
12.90329318576389
 10
14.09141710069444
 20
12.83656141493056
 10
14.09304470486111
 20
12.76946343315972
 97
        0
 92
        1
 93
        1
 72
     4
 94
        3
 73
     0
 74
     1
 95
       44
 96
       40
 40
0.0
 40
0.0
 40
0.0
 40
0.0
 40
1.0
 40
1.0
 40
1.0
 40
2.0
 40
2.0
 40
2.0
 40
3.0
 40
3.0
 40
3.0
 40
4.0
 40
4.0
 40
4.0
 40
5.0
 40
5.0
 40
5.0
 40
6.0
 40
6.0
 40
6.0
 40
7.0
 40
7.0
 40
7.0
 40
8.0
 40
8.0
 40
8.0
 40
9.0
 40
9.0
 40
9.0
 40
10.0
 40
10.0
 40
10.0
 40
11.0
 40
11.0
 40
11.0
 40
12.0
 40
12.0
 40
12.0
 40
13.0
 40
13.0
 40
13.0
 40
13.0
 10
14.01715766059028
 20
12.71222601996528
 10
14.02228461371528
 20
12.78309461805556
 10
14.01807996961806
 20
12.84320746527778
 10
14.01268174913194
 20
12.90310329861111
 10
14.00819227430556
 20
12.953125
 10
13.99831814236111
 20
13.00204806857639
 10
13.9776611328125
 20
13.04862467447917
 10
13.961669921875
 20
13.08466254340278
 10
13.93104383680556
 20
13.10759819878472
 10
13.90593804253472
 20
13.13556586371528
 10
13.90070258246528
 20
13.14139811197917
 10
13.8941650390625
 20
13.14078776041667
 10
13.88743760850694
 20
13.14024522569444
 10
13.86958821614583
 20
13.13880750868056
 10
13.85579427083333
 20
13.1297607421875
 10
13.84495713975694
 20
13.11630588107639
 10
13.82743326822917
 20
13.09457736545139
 10
13.81233723958333
 20
13.071533203125
 10
13.80244954427083
 20
13.04493543836806
 10
13.78645833333333
 20
13.00187174479167
 10
13.77724880642361
 20
12.95728895399306
 10
13.76995171440972
 20
12.91220431857639
 10
13.7550048828125
 20
12.81971571180556
 10
13.74716525607639
 20
12.72675238715278
 10
13.74983723958333
 20
12.63288031684028
 10
13.75176323784722
 20
12.56593153211806
 10
13.760009765625
 20
12.49971516927083
 10
13.76966688368056
 20
12.43362087673611
 10
13.77528211805556
 20
12.39503309461806
 10
13.78145345052083
 20
12.35629611545139
 10
13.80013020833333
 20
12.32130262586806
 10
13.82891167534722
 20
12.26744249131944
 10
13.86368815104167
 20
12.26333279079861
 10
13.90383572048611
 20
12.30826822916667
 10
13.93492296006944
 20
12.34304470486111
 10
13.95298936631944
 20
12.38487413194444
 10
13.96907552083333
 20
12.42780219184028
 10
14.00470648871528
 20
12.52293565538194
 10
14.01953125
 20
12.62154134114583
 10
14.01715766059028
 20
12.71222601996528
 97
        0
 75
     2
 76
     1
 98
        0
  0
SPLINE
  5
4D
330
3C
100
AcDbEntity
  8
Calque 1
370
     0
100
AcDbSpline
210
0.0
220
0.0
230
1.0
 70
    11
 71
     3
 72
   113
 73
   109
 74
     0
 42
0.0000000001
 43
0.0000000001
 40
0.0
 40
0.0
 40
0.0
 40
0.0
 40
1.0
 40
1.0
 40
1.0
 40
2.0
 40
2.0
 40
2.0
 40
3.0
 40
3.0
 40
3.0
 40
4.0
 40
4.0
 40
4.0
 40
5.0
 40
5.0
 40
5.0
 40
6.0
 40
6.0
 40
6.0
 40
7.0
 40
7.0
 40
7.0
 40
8.0
 40
8.0
 40
8.0
 40
9.0
 40
9.0
 40
9.0
 40
10.0
 40
10.0
 40
10.0
 40
11.0
 40
11.0
 40
11.0
 40
12.0
 40
12.0
 40
12.0
 40
13.0
 40
13.0
 40
13.0
 40
14.0
 40
14.0
 40
14.0
 40
15.0
 40
15.0
 40
15.0
 40
16.0
 40
16.0
 40
16.0
 40
17.0
 40
17.0
 40
17.0
 40
18.0
 40
18.0
 40
18.0
 40
19.0
 40
19.0
 40
19.0
 40
20.0
 40
20.0
 40
20.0
 40
21.0
 40
21.0
 40
21.0
 40
22.0
 40
22.0
 40
22.0
 40
23.0
 40
23.0
 40
23.0
 40
24.0
 40
24.0
 40
24.0
 40
25.0
 40
25.0
 40
25.0
 40
26.0
 40
26.0
 40
26.0
 40
27.0
 40
27.0
 40
27.0
 40
28.0
 40
28.0
 40
28.0
 40
29.0
 40
29.0
 40
29.0
 40
30.0
 40
30.0
 40
30.0
 40
31.0
 40
31.0
 40
31.0
 40
32.0
 40
32.0
 40
32.0
 40
33.0
 40
33.0
 40
33.0
 40
34.0
 40
34.0
 40
34.0
 40
35.0
 40
35.0
 40
35.0
 40
36.0
 40
36.0
 40
36.0
 40
36.0
 10
11.66289605034722
 20
12.26536729600694
 30
0.0
 10
11.68159993489583
 20
12.27372233072917
 30
0.0
 10
11.69189453125
 20
12.28715006510417
 30
0.0
 10
11.70091417100694
 20
12.30075412326389
 30
0.0
 10
11.76136610243056
 20
12.39211697048611
 30
0.0
 10
11.81519911024306
 20
12.48680284288194
 30
0.0
 10
11.8426513671875
 20
12.59414333767361
 30
0.0
 10
11.84959581163194
 20
12.62129720052083
 30
0.0
 10
11.85679796006944
 20
12.62948947482639
 30
0.0
 10
11.87205674913194
 20
12.62749565972222
 30
0.0
 10
11.88825141059028
 20
12.62539333767361
 30
0.0
 10
11.89409722222222
 20
12.61219618055556
 30
0.0
 10
11.89115397135417
 20
12.58416069878472
 30
0.0
 10
11.88713921440972
 20
12.54591200086806
 30
0.0
 10
11.87285698784722
 20
12.51082356770833
 30
0.0
 10
11.85776095920139
 20
12.47601996527778
 30
0.0
 10
11.83021375868056
 20
12.41257052951389
 30
0.0
 10
11.7977294921875
 20
12.35160319010417
 30
0.0
 10
11.76307508680556
 20
12.29182942708333
 30
0.0
 10
11.74796549479167
 20
12.26576063368056
 30
0.0
 10
11.73055013020833
 20
12.24114312065972
 30
0.0
 10
11.70840115017361
 20
12.2203369140625
 30
0.0
 10
11.67408582899306
 20
12.18812391493056
 30
0.0
 10
11.63308376736111
 20
12.18745930989583
 30
0.0
 10
11.59747992621528
 20
12.218505859375
 30
0.0
 10
11.58561197916667
 20
12.22885470920139
 30
0.0
 10
11.57621256510417
 20
12.24122450086806
 30
0.0
 10
11.56795247395833
 20
12.25459798177083
 30
0.0
 10
11.52701822916667
 20
12.32074652777778
 30
0.0
 10
11.50093587239583
 20
12.39271375868056
 30
0.0
 10
11.48593478732639
 20
12.46861436631944
 30
0.0
 10
11.47408040364583
 20
12.52865939670139
 30
0.0
 10
11.46261935763889
 20
12.58888075086806
 30
0.0
 10
11.45439995659722
 20
12.64950900607639
 30
0.0
 10
11.44784884982639
 20
12.69791666666667
 30
0.0
 10
11.44552951388889
 20
12.74701605902778
 30
0.0
 10
11.44318305121528
 20
12.79587131076389
 30
0.0
 10
11.44211154513889
 20
12.818115234375
 30
0.0
 10
11.43931749131944
 20
12.82611762152778
 30
0.0
 10
11.41362847222222
 20
12.8206787109375
 30
0.0
 10
11.38104926215278
 20
12.81378851996528
 30
0.0
 10
11.34760199652778
 20
12.81022135416667
 30
0.0
 10
11.31399197048611
 20
12.81148274739583
 30
0.0
 10
11.30620659722222
 20
12.811767578125
 30
0.0
 10
11.29832628038194
 20
12.81183539496528
 30
0.0
 10
11.2906494140625
 20
12.81306966145833
 30
0.0
 10
11.27220323350694
 20
12.81605360243056
 30
0.0
 10
11.26033528645833
 20
12.82835557725694
 30
0.0
 10
11.26057942708333
 20
12.84332953559028
 30
0.0
 10
11.26083713107639
 20
12.85834418402778
 30
0.0
 10
11.27303059895833
 20
12.87080891927083
 30
0.0
 10
11.29139539930556
 20
12.87307400173611
 30
0.0
 10
11.31240505642361
 20
12.87566460503472
 30
0.0
 10
11.33353678385417
 20
12.876953125
 30
0.0
 10
11.35460069444444
 20
12.87905544704861
 30
0.0
 10
11.37345377604167
 20
12.88092719184028
 30
0.0
 10
11.39227973090278
 20
12.88307020399306
 30
0.0
 10
11.41110568576389
 20
12.88514539930556
 30
0.0
 10
11.43980577256944
 20
12.88833279079861
 30
0.0
 10
11.44143337673611
 20
12.88841417100694
 30
0.0
 10
11.44032118055556
 20
12.91730414496528
 30
0.0
 10
11.43756781684028
 20
12.98872884114583
 30
0.0
 10
11.44239637586806
 20
13.05982801649306
 30
0.0
 10
11.44656032986111
 20
13.13099500868056
 30
0.0
 10
11.449951171875
 20
13.18886990017361
 30
0.0
 10
11.45553927951389
 20
13.24635145399306
 30
0.0
 10
11.47332085503472
 20
13.30204264322917
 30
0.0
 10
11.48092990451389
 20
13.32588704427083
 30
0.0
 10
11.49249945746528
 20
13.34719509548611
 30
0.0
 10
11.50994194878472
 20
13.36496310763889
 30
0.0
 10
11.53915744357639
 20
13.394775390625
 30
0.0
 10
11.57957628038194
 20
13.39246961805556
 30
0.0
 10
11.60576714409722
 20
13.35968695746528
 30
0.0
 10
11.63273111979167
 20
13.32595486111111
 30
0.0
 10
11.63884819878472
 20
13.28487141927083
 30
0.0
 10
11.6448974609375
 20
13.24408637152778
 30
0.0
 10
11.65639919704861
 20
13.16669379340278
 30
0.0
 10
11.65348307291667
 20
13.0885009765625
 30
0.0
 10
11.65615505642361
 20
13.0106201171875
 30
0.0
 10
11.65709092881944
 20
12.98288302951389
 30
0.0
 10
11.65889485677083
 20
12.955078125
 30
0.0
 10
11.65604654947917
 20
12.92715115017361
 30
0.0
 10
11.65402560763889
 20
12.90717230902778
 30
0.0
 10
11.65756564670139
 20
12.90488009982639
 30
0.0
 10
11.67900933159722
 20
12.90604654947917
 30
0.0
 10
11.69224717881944
 20
12.90677897135417
 30
0.0
 10
11.70567491319444
 20
12.90638563368056
 30
0.0
 10
11.71786838107639
 20
12.91368272569444
 30
0.0
 10
11.73050944010417
 20
12.92123752170139
 30
0.0
 10
11.74159071180556
 20
12.91836208767361
 30
0.0
 10
11.74936252170139
 20
12.90591091579861
 30
0.0
 10
11.75627983940972
 20
12.89480251736111
 30
0.0
 10
11.75240071614583
 20
12.87980143229167
 30
0.0
 10
11.74031575520833
 20
12.87037489149306
 30
0.0
 10
11.72649468315972
 20
12.85959201388889
 30
0.0
 10
11.70929633246528
 20
12.85842556423611
 30
0.0
 10
11.69297960069444
 20
12.85542805989583
 30
0.0
 10
11.65847439236111
 20
12.84909396701389
 30
0.0
 10
11.65810818142361
 20
12.84941948784722
 30
0.0
 10
11.65715874565972
 20
12.81441243489583
 30
0.0
 10
11.65549045138889
 20
12.75208875868056
 30
0.0
 10
11.65498860677083
 20
12.68973795572917
 30
0.0
 10
11.65264214409722
 20
12.62745496961806
 30
0.0
 10
11.64914279513889
 20
12.53394911024306
 30
0.0
 10
11.6494140625
 20
12.44040256076389
 30
0.0
 10
11.64883083767361
 20
12.34688313802083
 30
0.0
 10
11.64866807725694
 20
12.32012261284722
 30
0.0
 10
11.65040418836806
 20
12.29356553819444
 30
0.0
 10
11.66289605034722
 20
12.26536729600694
 30
0.0
  0
HATCH
  5
4E
330
3C
100
AcDbEntity
  8
Calque 1
 62
     7
420
 16777215
100
AcDbHatch
 10
0.0
 20
0.0
 30
0.0
210
0.0
220
0.0
230
1.0
  2
SOLID
 70
     1
 71
     0
 91
        1
 92
        1
 93
        1
 72
     4
 94
        3
 73
     0
 74
     1
 95
      113
 96
      109
 40
0.0
 40
0.0
 40
0.0
 40
0.0
 40
1.0
 40
1.0
 40
1.0
 40
2.0
 40
2.0
 40
2.0
 40
3.0
 40
3.0
 40
3.0
 40
4.0
 40
4.0
 40
4.0
 40
5.0
 40
5.0
 40
5.0
 40
6.0
 40
6.0
 40
6.0
 40
7.0
 40
7.0
 40
7.0
 40
8.0
 40
8.0
 40
8.0
 40
9.0
 40
9.0
 40
9.0
 40
10.0
 40
10.0
 40
10.0
 40
11.0
 40
11.0
 40
11.0
 40
12.0
 40
12.0
 40
12.0
 40
13.0
 40
13.0
 40
13.0
 40
14.0
 40
14.0
 40
14.0
 40
15.0
 40
15.0
 40
15.0
 40
16.0
 40
16.0
 40
16.0
 40
17.0
 40
17.0
 40
17.0
 40
18.0
 40
18.0
 40
18.0
 40
19.0
 40
19.0
 40
19.0
 40
20.0
 40
20.0
 40
20.0
 40
21.0
 40
21.0
 40
21.0
 40
22.0
 40
22.0
 40
22.0
 40
23.0
 40
23.0
 40
23.0
 40
24.0
 40
24.0
 40
24.0
 40
25.0
 40
25.0
 40
25.0
 40
26.0
 40
26.0
 40
26.0
 40
27.0
 40
27.0
 40
27.0
 40
28.0
 40
28.0
 40
28.0
 40
29.0
 40
29.0
 40
29.0
 40
30.0
 40
30.0
 40
30.0
 40
31.0
 40
31.0
 40
31.0
 40
32.0
 40
32.0
 40
32.0
 40
33.0
 40
33.0
 40
33.0
 40
34.0
 40
34.0
 40
34.0
 40
35.0
 40
35.0
 40
35.0
 40
36.0
 40
36.0
 40
36.0
 40
36.0
 10
11.66289605034722
 20
12.26536729600694
 10
11.68159993489583
 20
12.27372233072917
 10
11.69189453125
 20
12.28715006510417
 10
11.70091417100694
 20
12.30075412326389
 10
11.76136610243056
 20
12.39211697048611
 10
11.81519911024306
 20
12.48680284288194
 10
11.8426513671875
 20
12.59414333767361
 10
11.84959581163194
 20
12.62129720052083
 10
11.85679796006944
 20
12.62948947482639
 10
11.87205674913194
 20
12.62749565972222
 10
11.88825141059028
 20
12.62539333767361
 10
11.89409722222222
 20
12.61219618055556
 10
11.89115397135417
 20
12.58416069878472
 10
11.88713921440972
 20
12.54591200086806
 10
11.87285698784722
 20
12.51082356770833
 10
11.85776095920139
 20
12.47601996527778
 10
11.83021375868056
 20
12.41257052951389
 10
11.7977294921875
 20
12.35160319010417
 10
11.76307508680556
 20
12.29182942708333
 10
11.74796549479167
 20
12.26576063368056
 10
11.73055013020833
 20
12.24114312065972
 10
11.70840115017361
 20
12.2203369140625
 10
11.67408582899306
 20
12.18812391493056
 10
11.63308376736111
 20
12.18745930989583
 10
11.59747992621528
 20
12.218505859375
 10
11.58561197916667
 20
12.22885470920139
 10
11.57621256510417
 20
12.24122450086806
 10
11.56795247395833
 20
12.25459798177083
 10
11.52701822916667
 20
12.32074652777778
 10
11.50093587239583
 20
12.39271375868056
 10
11.48593478732639
 20
12.46861436631944
 10
11.47408040364583
 20
12.52865939670139
 10
11.46261935763889
 20
12.58888075086806
 10
11.45439995659722
 20
12.64950900607639
 10
11.44784884982639
 20
12.69791666666667
 10
11.44552951388889
 20
12.74701605902778
 10
11.44318305121528
 20
12.79587131076389
 10
11.44211154513889
 20
12.818115234375
 10
11.43931749131944
 20
12.82611762152778
 10
11.41362847222222
 20
12.8206787109375
 10
11.38104926215278
 20
12.81378851996528
 10
11.34760199652778
 20
12.81022135416667
 10
11.31399197048611
 20
12.81148274739583
 10
11.30620659722222
 20
12.811767578125
 10
11.29832628038194
 20
12.81183539496528
 10
11.2906494140625
 20
12.81306966145833
 10
11.27220323350694
 20
12.81605360243056
 10
11.26033528645833
 20
12.82835557725694
 10
11.26057942708333
 20
12.84332953559028
 10
11.26083713107639
 20
12.85834418402778
 10
11.27303059895833
 20
12.87080891927083
 10
11.29139539930556
 20
12.87307400173611
 10
11.31240505642361
 20
12.87566460503472
 10
11.33353678385417
 20
12.876953125
 10
11.35460069444444
 20
12.87905544704861
 10
11.37345377604167
 20
12.88092719184028
 10
11.39227973090278
 20
12.88307020399306
 10
11.41110568576389
 20
12.88514539930556
 10
11.43980577256944
 20
12.88833279079861
 10
11.44143337673611
 20
12.88841417100694
 10
11.44032118055556
 20
12.91730414496528
 10
11.43756781684028
 20
12.98872884114583
 10
11.44239637586806
 20
13.05982801649306
 10
11.44656032986111
 20
13.13099500868056
 10
11.449951171875
 20
13.18886990017361
 10
11.45553927951389
 20
13.24635145399306
 10
11.47332085503472
 20
13.30204264322917
 10
11.48092990451389
 20
13.32588704427083
 10
11.49249945746528
 20
13.34719509548611
 10
11.50994194878472
 20
13.36496310763889
 10
11.53915744357639
 20
13.394775390625
 10
11.57957628038194
 20
13.39246961805556
 10
11.60576714409722
 20
13.35968695746528
 10
11.63273111979167
 20
13.32595486111111
 10
11.63884819878472
 20
13.28487141927083
 10
11.6448974609375
 20
13.24408637152778
 10
11.65639919704861
 20
13.16669379340278
 10
11.65348307291667
 20
13.0885009765625
 10
11.65615505642361
 20
13.0106201171875
 10
11.65709092881944
 20
12.98288302951389
 10
11.65889485677083
 20
12.955078125
 10
11.65604654947917
 20
12.92715115017361
 10
11.65402560763889
 20
12.90717230902778
 10
11.65756564670139
 20
12.90488009982639
 10
11.67900933159722
 20
12.90604654947917
 10
11.69224717881944
 20
12.90677897135417
 10
11.70567491319444
 20
12.90638563368056
 10
11.71786838107639
 20
12.91368272569444
 10
11.73050944010417
 20
12.92123752170139
 10
11.74159071180556
 20
12.91836208767361
 10
11.74936252170139
 20
12.90591091579861
 10
11.75627983940972
 20
12.89480251736111
 10
11.75240071614583
 20
12.87980143229167
 10
11.74031575520833
 20
12.87037489149306
 10
11.72649468315972
 20
12.85959201388889
 10
11.70929633246528
 20
12.85842556423611
 10
11.69297960069444
 20
12.85542805989583
 10
11.65847439236111
 20
12.84909396701389
 10
11.65810818142361
 20
12.84941948784722
 10
11.65715874565972
 20
12.81441243489583
 10
11.65549045138889
 20
12.75208875868056
 10
11.65498860677083
 20
12.68973795572917
 10
11.65264214409722
 20
12.62745496961806
 10
11.64914279513889
 20
12.53394911024306
 10
11.6494140625
 20
12.44040256076389
 10
11.64883083767361
 20
12.34688313802083
 10
11.64866807725694
 20
12.32012261284722
 10
11.65040418836806
 20
12.29356553819444
 10
11.66289605034722
 20
12.26536729600694
 97
        0
 75
     2
 76
     1
 98
        0
  0
SPLINE
  5
4F
330
3C
100
AcDbEntity
  8
Calque 1
370
     0
100
AcDbSpline
210
0.0
220
0.0
230
1.0
 70
    11
 71
     3
 72
    89
 73
    85
 74
     0
 42
0.0000000001
 43
0.0000000001
 40
0.0
 40
0.0
 40
0.0
 40
0.0
 40
1.0
 40
1.0
 40
1.0
 40
2.0
 40
2.0
 40
2.0
 40
3.0
 40
3.0
 40
3.0
 40
4.0
 40
4.0
 40
4.0
 40
5.0
 40
5.0
 40
5.0
 40
6.0
 40
6.0
 40
6.0
 40
7.0
 40
7.0
 40
7.0
 40
8.0
 40
8.0
 40
8.0
 40
9.0
 40
9.0
 40
9.0
 40
10.0
 40
10.0
 40
10.0
 40
11.0
 40
11.0
 40
11.0
 40
12.0
 40
12.0
 40
12.0
 40
13.0
 40
13.0
 40
13.0
 40
14.0
 40
14.0
 40
14.0
 40
15.0
 40
15.0
 40
15.0
 40
16.0
 40
16.0
 40
16.0
 40
17.0
 40
17.0
 40
17.0
 40
18.0
 40
18.0
 40
18.0
 40
19.0
 40
19.0
 40
19.0
 40
20.0
 40
20.0
 40
20.0
 40
21.0
 40
21.0
 40
21.0
 40
22.0
 40
22.0
 40
22.0
 40
23.0
 40
23.0
 40
23.0
 40
24.0
 40
24.0
 40
24.0
 40
25.0
 40
25.0
 40
25.0
 40
26.0
 40
26.0
 40
26.0
 40
27.0
 40
27.0
 40
27.0
 40
28.0
 40
28.0
 40
28.0
 40
28.0
 10
11.03202311197917
 20
13.19284396701389
 30
0.0
 10
11.04389105902778
 20
13.14579264322917
 30
0.0
 10
11.05150010850694
 20
13.09988064236111
 30
0.0
 10
11.05305989583333
 20
13.05320909288194
 30
0.0
 10
11.05711534288194
 20
12.93189832899306
 30
0.0
 10
11.06452094184028
 20
12.81058756510417
 30
0.0
 10
11.05305989583333
 20
12.68929036458333
 30
0.0
 10
11.05044216579861
 20
12.66143120659722
 30
0.0
 10
11.05078125
 20
12.66102430555556
 30
0.0
 10
11.07878960503472
 20
12.66091579861111
 30
0.0
 10
11.09426540798611
 20
12.66086154513889
 30
0.0
 10
11.10975477430556
 20
12.65983072916667
 30
0.0
 10
11.12502712673611
 20
12.66547309027778
 30
0.0
 10
11.13654242621528
 20
12.66973198784722
 30
0.0
 10
11.14718967013889
 20
12.66621907552083
 30
0.0
 10
11.15351019965278
 20
12.65463595920139
 30
0.0
 10
11.16079372829861
 20
12.64128960503472
 30
0.0
 10
11.15444607204861
 20
12.63058810763889
 30
0.0
 10
11.14511447482639
 20
12.62190755208333
 30
0.0
 10
11.1331787109375
 20
12.61078559027778
 30
0.0
 10
11.11768934461806
 20
12.60801866319444
 30
0.0
 10
11.10188802083333
 20
12.60640462239583
 30
0.0
 10
11.04595269097222
 20
12.60061306423611
 30
0.0
 10
11.04638671875
 20
12.60043674045139
 30
0.0
 10
11.03956434461806
 20
12.54653591579861
 30
0.0
 10
11.03396267361111
 20
12.50233289930556
 30
0.0
 10
11.02720811631944
 20
12.45827907986111
 30
0.0
 10
11.02095540364583
 20
12.41414388020833
 30
0.0
 10
11.02016872829861
 20
12.40863715277778
 30
0.0
 10
11.01901584201389
 20
12.40314398871528
 30
0.0
 10
11.01852756076389
 20
12.39762369791667
 30
0.0
 10
11.01614040798611
 20
12.37045627170139
 30
0.0
 10
11.01807996961806
 20
12.36800130208333
 30
0.0
 10
11.04425726996528
 20
12.3690185546875
 30
0.0
 10
11.13225640190972
 20
12.37249077690972
 30
0.0
 10
11.22020128038194
 20
12.37654622395833
 30
0.0
 10
11.30470106336806
 20
12.40536838107639
 30
0.0
 10
11.31490071614583
 20
12.40885416666667
 30
0.0
 10
11.32467990451389
 20
12.40813530815972
 30
0.0
 10
11.33177354600694
 20
12.39873589409722
 30
0.0
 10
11.3397216796875
 20
12.38822428385417
 30
0.0
 10
11.33757866753472
 20
12.37787543402778
 30
0.0
 10
11.33037651909722
 20
12.36793348524306
 30
0.0
 10
11.32271321614583
 20
12.35739474826389
 30
0.0
 10
11.3115234375
 20
12.35268825954861
 30
0.0
 10
11.29946560329861
 20
12.34943305121528
 30
0.0
 10
11.20775010850694
 20
12.32451714409722
 30
0.0
 10
11.11456976996528
 20
12.30878363715278
 30
0.0
 10
11.01950412326389
 20
12.30470106336806
 30
0.0
 10
10.97885470920139
 20
12.30296495225694
 30
0.0
 10
10.95199924045139
 20
12.32246907552083
 30
0.0
 10
10.93499077690972
 20
12.35801866319444
 30
0.0
 10
10.89812554253472
 20
12.43512641059028
 30
0.0
 10
10.878662109375
 20
12.51710340711806
 30
0.0
 10
10.86400010850694
 20
12.60084364149306
 30
0.0
 10
10.83747016059028
 20
12.7523193359375
 30
0.0
 10
10.84114583333333
 20
12.90488009982639
 30
0.0
 10
10.8448486328125
 20
13.05748155381944
 30
0.0
 10
10.84571668836806
 20
13.09303114149306
 30
0.0
 10
10.85012478298611
 20
13.12848578559028
 30
0.0
 10
10.85808648003472
 20
13.16331651475694
 30
0.0
 10
10.86286078559028
 20
13.18410915798611
 30
0.0
 10
10.86998155381944
 20
13.20406087239583
 30
0.0
 10
10.88121202256944
 20
13.22220865885417
 30
0.0
 10
10.90022786458333
 20
13.2529296875
 30
0.0
 10
10.92588975694444
 20
13.27212185329861
 30
0.0
 10
10.96427408854167
 20
13.26515028211806
 30
0.0
 10
10.97702365451389
 20
13.26283094618056
 30
0.0
 10
10.98879665798611
 20
13.26657443576389
 30
0.0
 10
11.00050184461806
 20
13.26901584201389
 30
0.0
 10
11.07314724392361
 20
13.28413899739583
 30
0.0
 10
11.1468505859375
 20
13.28195529513889
 30
0.0
 10
11.22030978732639
 20
13.2833251953125
 30
0.0
 10
11.24282497829861
 20
13.28374565972222
 30
0.0
 10
11.25527615017361
 20
13.27293565538194
 30
0.0
 10
11.25652398003472
 20
13.25670030381944
 30
0.0
 10
11.25775824652778
 20
13.24089898003472
 30
0.0
 10
11.24678548177083
 20
13.22763400607639
 30
0.0
 10
11.22509765625
 20
13.22386338975694
 30
0.0
 10
11.17905002170139
 20
13.2158203125
 30
0.0
 10
11.13270399305556
 20
13.20951334635417
 30
0.0
 10
11.08650716145833
 20
13.2022705078125
 30
0.0
 10
11.06901041666667
 20
13.19957139756944
 30
0.0
 10
11.05162217881944
 20
13.19626193576389
 30
0.0
 10
11.03202311197917
 20
13.19284396701389
 30
0.0
  0
HATCH
  5
50
330
3C
100
AcDbEntity
  8
Calque 1
 62
     7
420
 16777215
100
AcDbHatch
 10
0.0
 20
0.0
 30
0.0
210
0.0
220
0.0
230
1.0
  2
SOLID
 70
     1
 71
     0
 91
        1
 92
        1
 93
        1
 72
     4
 94
        3
 73
     0
 74
     1
 95
       89
 96
       85
 40
0.0
 40
0.0
 40
0.0
 40
0.0
 40
1.0
 40
1.0
 40
1.0
 40
2.0
 40
2.0
 40
2.0
 40
3.0
 40
3.0
 40
3.0
 40
4.0
 40
4.0
 40
4.0
 40
5.0
 40
5.0
 40
5.0
 40
6.0
 40
6.0
 40
6.0
 40
7.0
 40
7.0
 40
7.0
 40
8.0
 40
8.0
 40
8.0
 40
9.0
 40
9.0
 40
9.0
 40
10.0
 40
10.0
 40
10.0
 40
11.0
 40
11.0
 40
11.0
 40
12.0
 40
12.0
 40
12.0
 40
13.0
 40
13.0
 40
13.0
 40
14.0
 40
14.0
 40
14.0
 40
15.0
 40
15.0
 40
15.0
 40
16.0
 40
16.0
 40
16.0
 40
17.0
 40
17.0
 40
17.0
 40
18.0
 40
18.0
 40
18.0
 40
19.0
 40
19.0
 40
19.0
 40
20.0
 40
20.0
 40
20.0
 40
21.0
 40
21.0
 40
21.0
 40
22.0
 40
22.0
 40
22.0
 40
23.0
 40
23.0
 40
23.0
 40
24.0
 40
24.0
 40
24.0
 40
25.0
 40
25.0
 40
25.0
 40
26.0
 40
26.0
 40
26.0
 40
27.0
 40
27.0
 40
27.0
 40
28.0
 40
28.0
 40
28.0
 40
28.0
 10
11.03202311197917
 20
13.19284396701389
 10
11.04389105902778
 20
13.14579264322917
 10
11.05150010850694
 20
13.09988064236111
 10
11.05305989583333
 20
13.05320909288194
 10
11.05711534288194
 20
12.93189832899306
 10
11.06452094184028
 20
12.81058756510417
 10
11.05305989583333
 20
12.68929036458333
 10
11.05044216579861
 20
12.66143120659722
 10
11.05078125
 20
12.66102430555556
 10
11.07878960503472
 20
12.66091579861111
 10
11.09426540798611
 20
12.66086154513889
 10
11.10975477430556
 20
12.65983072916667
 10
11.12502712673611
 20
12.66547309027778
 10
11.13654242621528
 20
12.66973198784722
 10
11.14718967013889
 20
12.66621907552083
 10
11.15351019965278
 20
12.65463595920139
 10
11.16079372829861
 20
12.64128960503472
 10
11.15444607204861
 20
12.63058810763889
 10
11.14511447482639
 20
12.62190755208333
 10
11.1331787109375
 20
12.61078559027778
 10
11.11768934461806
 20
12.60801866319444
 10
11.10188802083333
 20
12.60640462239583
 10
11.04595269097222
 20
12.60061306423611
 10
11.04638671875
 20
12.60043674045139
 10
11.03956434461806
 20
12.54653591579861
 10
11.03396267361111
 20
12.50233289930556
 10
11.02720811631944
 20
12.45827907986111
 10
11.02095540364583
 20
12.41414388020833
 10
11.02016872829861
 20
12.40863715277778
 10
11.01901584201389
 20
12.40314398871528
 10
11.01852756076389
 20
12.39762369791667
 10
11.01614040798611
 20
12.37045627170139
 10
11.01807996961806
 20
12.36800130208333
 10
11.04425726996528
 20
12.3690185546875
 10
11.13225640190972
 20
12.37249077690972
 10
11.22020128038194
 20
12.37654622395833
 10
11.30470106336806
 20
12.40536838107639
 10
11.31490071614583
 20
12.40885416666667
 10
11.32467990451389
 20
12.40813530815972
 10
11.33177354600694
 20
12.39873589409722
 10
11.3397216796875
 20
12.38822428385417
 10
11.33757866753472
 20
12.37787543402778
 10
11.33037651909722
 20
12.36793348524306
 10
11.32271321614583
 20
12.35739474826389
 10
11.3115234375
 20
12.35268825954861
 10
11.29946560329861
 20
12.34943305121528
 10
11.20775010850694
 20
12.32451714409722
 10
11.11456976996528
 20
12.30878363715278
 10
11.01950412326389
 20
12.30470106336806
 10
10.97885470920139
 20
12.30296495225694
 10
10.95199924045139
 20
12.32246907552083
 10
10.93499077690972
 20
12.35801866319444
 10
10.89812554253472
 20
12.43512641059028
 10
10.878662109375
 20
12.51710340711806
 10
10.86400010850694
 20
12.60084364149306
 10
10.83747016059028
 20
12.7523193359375
 10
10.84114583333333
 20
12.90488009982639
 10
10.8448486328125
 20
13.05748155381944
 10
10.84571668836806
 20
13.09303114149306
 10
10.85012478298611
 20
13.12848578559028
 10
10.85808648003472
 20
13.16331651475694
 10
10.86286078559028
 20
13.18410915798611
 10
10.86998155381944
 20
13.20406087239583
 10
10.88121202256944
 20
13.22220865885417
 10
10.90022786458333
 20
13.2529296875
 10
10.92588975694444
 20
13.27212185329861
 10
10.96427408854167
 20
13.26515028211806
 10
10.97702365451389
 20
13.26283094618056
 10
10.98879665798611
 20
13.26657443576389
 10
11.00050184461806
 20
13.26901584201389
 10
11.07314724392361
 20
13.28413899739583
 10
11.1468505859375
 20
13.28195529513889
 10
11.22030978732639
 20
13.2833251953125
 10
11.24282497829861
 20
13.28374565972222
 10
11.25527615017361
 20
13.27293565538194
 10
11.25652398003472
 20
13.25670030381944
 10
11.25775824652778
 20
13.24089898003472
 10
11.24678548177083
 20
13.22763400607639
 10
11.22509765625
 20
13.22386338975694
 10
11.17905002170139
 20
13.2158203125
 10
11.13270399305556
 20
13.20951334635417
 10
11.08650716145833
 20
13.2022705078125
 10
11.06901041666667
 20
13.19957139756944
 10
11.05162217881944
 20
13.19626193576389
 10
11.03202311197917
 20
13.19284396701389
 97
        0
 75
     2
 76
     1
 98
        0
  0
SPLINE
  5
51
330
3C
100
AcDbEntity
  8
Calque 1
370
     0
100
AcDbSpline
210
0.0
220
0.0
230
1.0
 70
    11
 71
     3
 72
    74
 73
    70
 74
     0
 42
0.0000000001
 43
0.0000000001
 40
0.0
 40
0.0
 40
0.0
 40
0.0
 40
1.0
 40
1.0
 40
1.0
 40
2.0
 40
2.0
 40
2.0
 40
3.0
 40
3.0
 40
3.0
 40
4.0
 40
4.0
 40
4.0
 40
5.0
 40
5.0
 40
5.0
 40
6.0
 40
6.0
 40
6.0
 40
7.0
 40
7.0
 40
7.0
 40
8.0
 40
8.0
 40
8.0
 40
9.0
 40
9.0
 40
9.0
 40
10.0
 40
10.0
 40
10.0
 40
11.0
 40
11.0
 40
11.0
 40
12.0
 40
12.0
 40
12.0
 40
13.0
 40
13.0
 40
13.0
 40
14.0
 40
14.0
 40
14.0
 40
15.0
 40
15.0
 40
15.0
 40
16.0
 40
16.0
 40
16.0
 40
17.0
 40
17.0
 40
17.0
 40
18.0
 40
18.0
 40
18.0
 40
19.0
 40
19.0
 40
19.0
 40
20.0
 40
20.0
 40
20.0
 40
21.0
 40
21.0
 40
21.0
 40
22.0
 40
22.0
 40
22.0
 40
23.0
 40
23.0
 40
23.0
 40
23.0
 10
10.48573133680556
 20
12.98455132378472
 30
0.0
 10
10.48391384548611
 20
12.90535481770833
 30
0.0
 10
10.485107421875
 20
12.83498806423611
 30
0.0
 10
10.47996690538194
 20
12.76508246527778
 30
0.0
 10
10.4737548828125
 20
12.68079969618056
 30
0.0
 10
10.46253797743056
 20
12.59686957465278
 30
0.0
 10
10.45277235243056
 20
12.51287163628472
 30
0.0
 10
10.4476318359375
 20
12.46858723958333
 30
0.0
 10
10.44204372829861
 20
12.42438422309028
 30
0.0
 10
10.44137912326389
 20
12.37974717881944
 30
0.0
 10
10.44090440538194
 20
12.34688313802083
 30
0.0
 10
10.44479709201389
 20
12.34147135416667
 30
0.0
 10
10.47740342881944
 20
12.33502875434028
 30
0.0
 10
10.51387532552083
 20
12.32781304253472
 30
0.0
 10
10.55076768663194
 20
12.33165147569444
 30
0.0
 10
10.58744303385417
 20
12.33342827690972
 30
0.0
 10
10.62528483072917
 20
12.33525933159722
 30
0.0
 10
10.66303168402778
 20
12.33873155381944
 30
0.0
 10
10.70085991753472
 20
12.34132215711806
 30
0.0
 10
10.70860460069444
 20
12.34186469184028
 30
0.0
 10
10.71651204427083
 20
12.34259711371528
 30
0.0
 10
10.72417534722222
 20
12.34168836805556
 30
0.0
 10
10.73745388454861
 20
12.34012858072917
 30
0.0
 10
10.7479248046875
 20
12.33372667100694
 30
0.0
 10
10.7491455078125
 20
12.31914605034722
 30
0.0
 10
10.75029839409722
 20
12.30516221788194
 30
0.0
 10
10.7423095703125
 20
12.29608832465278
 30
0.0
 10
10.72974989149306
 20
12.29117838541667
 30
0.0
 10
10.71287706163194
 20
12.28455946180556
 30
0.0
 10
10.69468858506944
 20
12.28514268663194
 30
0.0
 10
10.6771240234375
 20
12.28237575954861
 30
0.0
 10
10.63201226128472
 20
12.27525499131944
 30
0.0
 10
10.5869140625
 20
12.26807996961806
 30
0.0
 10
10.54169379340278
 20
12.26178656684028
 30
0.0
 10
10.52407497829861
 20
12.25934516059028
 30
0.0
 10
10.50613064236111
 20
12.25807020399306
 30
0.0
 10
10.48837619357639
 20
12.25826009114583
 30
0.0
 10
10.41175672743056
 20
12.25908745659722
 30
0.0
 10
10.36550564236111
 20
12.29177517361111
 30
0.0
 10
10.33812120225694
 20
12.36298285590278
 30
0.0
 10
10.32687717013889
 20
12.39222547743056
 30
0.0
 10
10.32158745659722
 20
12.42302788628472
 30
0.0
 10
10.31382921006944
 20
12.45320638020833
 30
0.0
 10
10.28800455729167
 20
12.55379231770833
 30
0.0
 10
10.27237955729167
 20
12.65601942274306
 30
0.0
 10
10.26675075954861
 20
12.75950792100694
 30
0.0
 10
10.26171875
 20
12.85183376736111
 30
0.0
 10
10.26717122395833
 20
12.94425455729167
 30
0.0
 10
10.27057562934028
 20
13.03658040364583
 30
0.0
 10
10.27255588107639
 20
13.08999294704861
 30
0.0
 10
10.27316623263889
 20
13.14348687065972
 30
0.0
 10
10.2802734375
 20
13.19661458333333
 30
0.0
 10
10.28339301215278
 20
13.21995713975694
 30
0.0
 10
10.289306640625
 20
13.24252658420139
 30
0.0
 10
10.29637315538194
 20
13.26482476128472
 30
0.0
 10
10.30288357204861
 20
13.28541395399306
 30
0.0
 10
10.31439887152778
 20
13.30311414930556
 30
0.0
 10
10.3304443359375
 20
13.317626953125
 30
0.0
 10
10.36368815104167
 20
13.34769694010417
 30
0.0
 10
10.41105143229167
 20
13.34483506944444
 30
0.0
 10
10.44060601128472
 20
13.31095377604167
 30
0.0
 10
10.45477973090278
 20
13.29471842447917
 30
0.0
 10
10.46344672309028
 20
13.27572970920139
 30
0.0
 10
10.46903483072917
 20
13.25485568576389
 30
0.0
 10
10.4859619140625
 20
13.19159613715278
 30
0.0
 10
10.48476833767361
 20
13.12685818142361
 30
0.0
 10
10.48567708333333
 20
13.06229654947917
 30
0.0
 10
10.486083984375
 20
13.03336588541667
 30
0.0
 10
10.48573133680556
 20
13.00443522135417
 30
0.0
 10
10.48573133680556
 20
12.98455132378472
 30
0.0
  0
HATCH
  5
52
330
3C
100
AcDbEntity
  8
Calque 1
 62
     7
420
 16777215
100
AcDbHatch
 10
0.0
 20
0.0
 30
0.0
210
0.0
220
0.0
230
1.0
  2
SOLID
 70
     1
 71
     0
 91
        1
 92
        1
 93
        1
 72
     4
 94
        3
 73
     0
 74
     1
 95
       74
 96
       70
 40
0.0
 40
0.0
 40
0.0
 40
0.0
 40
1.0
 40
1.0
 40
1.0
 40
2.0
 40
2.0
 40
2.0
 40
3.0
 40
3.0
 40
3.0
 40
4.0
 40
4.0
 40
4.0
 40
5.0
 40
5.0
 40
5.0
 40
6.0
 40
6.0
 40
6.0
 40
7.0
 40
7.0
 40
7.0
 40
8.0
 40
8.0
 40
8.0
 40
9.0
 40
9.0
 40
9.0
 40
10.0
 40
10.0
 40
10.0
 40
11.0
 40
11.0
 40
11.0
 40
12.0
 40
12.0
 40
12.0
 40
13.0
 40
13.0
 40
13.0
 40
14.0
 40
14.0
 40
14.0
 40
15.0
 40
15.0
 40
15.0
 40
16.0
 40
16.0
 40
16.0
 40
17.0
 40
17.0
 40
17.0
 40
18.0
 40
18.0
 40
18.0
 40
19.0
 40
19.0
 40
19.0
 40
20.0
 40
20.0
 40
20.0
 40
21.0
 40
21.0
 40
21.0
 40
22.0
 40
22.0
 40
22.0
 40
23.0
 40
23.0
 40
23.0
 40
23.0
 10
10.48573133680556
 20
12.98455132378472
 10
10.48391384548611
 20
12.90535481770833
 10
10.485107421875
 20
12.83498806423611
 10
10.47996690538194
 20
12.76508246527778
 10
10.4737548828125
 20
12.68079969618056
 10
10.46253797743056
 20
12.59686957465278
 10
10.45277235243056
 20
12.51287163628472
 10
10.4476318359375
 20
12.46858723958333
 10
10.44204372829861
 20
12.42438422309028
 10
10.44137912326389
 20
12.37974717881944
 10
10.44090440538194
 20
12.34688313802083
 10
10.44479709201389
 20
12.34147135416667
 10
10.47740342881944
 20
12.33502875434028
 10
10.51387532552083
 20
12.32781304253472
 10
10.55076768663194
 20
12.33165147569444
 10
10.58744303385417
 20
12.33342827690972
 10
10.62528483072917
 20
12.33525933159722
 10
10.66303168402778
 20
12.33873155381944
 10
10.70085991753472
 20
12.34132215711806
 10
10.70860460069444
 20
12.34186469184028
 10
10.71651204427083
 20
12.34259711371528
 10
10.72417534722222
 20
12.34168836805556
 10
10.73745388454861
 20
12.34012858072917
 10
10.7479248046875
 20
12.33372667100694
 10
10.7491455078125
 20
12.31914605034722
 10
10.75029839409722
 20
12.30516221788194
 10
10.7423095703125
 20
12.29608832465278
 10
10.72974989149306
 20
12.29117838541667
 10
10.71287706163194
 20
12.28455946180556
 10
10.69468858506944
 20
12.28514268663194
 10
10.6771240234375
 20
12.28237575954861
 10
10.63201226128472
 20
12.27525499131944
 10
10.5869140625
 20
12.26807996961806
 10
10.54169379340278
 20
12.26178656684028
 10
10.52407497829861
 20
12.25934516059028
 10
10.50613064236111
 20
12.25807020399306
 10
10.48837619357639
 20
12.25826009114583
 10
10.41175672743056
 20
12.25908745659722
 10
10.36550564236111
 20
12.29177517361111
 10
10.33812120225694
 20
12.36298285590278
 10
10.32687717013889
 20
12.39222547743056
 10
10.32158745659722
 20
12.42302788628472
 10
10.31382921006944
 20
12.45320638020833
 10
10.28800455729167
 20
12.55379231770833
 10
10.27237955729167
 20
12.65601942274306
 10
10.26675075954861
 20
12.75950792100694
 10
10.26171875
 20
12.85183376736111
 10
10.26717122395833
 20
12.94425455729167
 10
10.27057562934028
 20
13.03658040364583
 10
10.27255588107639
 20
13.08999294704861
 10
10.27316623263889
 20
13.14348687065972
 10
10.2802734375
 20
13.19661458333333
 10
10.28339301215278
 20
13.21995713975694
 10
10.289306640625
 20
13.24252658420139
 10
10.29637315538194
 20
13.26482476128472
 10
10.30288357204861
 20
13.28541395399306
 10
10.31439887152778
 20
13.30311414930556
 10
10.3304443359375
 20
13.317626953125
 10
10.36368815104167
 20
13.34769694010417
 10
10.41105143229167
 20
13.34483506944444
 10
10.44060601128472
 20
13.31095377604167
 10
10.45477973090278
 20
13.29471842447917
 10
10.46344672309028
 20
13.27572970920139
 10
10.46903483072917
 20
13.25485568576389
 10
10.4859619140625
 20
13.19159613715278
 10
10.48476833767361
 20
13.12685818142361
 10
10.48567708333333
 20
13.06229654947917
 10
10.486083984375
 20
13.03336588541667
 10
10.48573133680556
 20
13.00443522135417
 10
10.48573133680556
 20
12.98455132378472
 97
        0
 75
     2
 76
     1
 98
        0
  0
SPLINE
  5
53
330
3C
100
AcDbEntity
  8
Calque 1
370
     0
100
AcDbSpline
210
0.0
220
0.0
230
1.0
 70
    11
 71
     3
 72
    32
 73
    28
 74
     0
 42
0.0000000001
 43
0.0000000001
 40
0.0
 40
0.0
 40
0.0
 40
0.0
 40
1.0
 40
1.0
 40
1.0
 40
2.0
 40
2.0
 40
2.0
 40
3.0
 40
3.0
 40
3.0
 40
4.0
 40
4.0
 40
4.0
 40
5.0
 40
5.0
 40
5.0
 40
6.0
 40
6.0
 40
6.0
 40
7.0
 40
7.0
 40
7.0
 40
8.0
 40
8.0
 40
8.0
 40
9.0
 40
9.0
 40
9.0
 40
9.0
 10
12.08634440104167
 20
13.10599772135417
 30
0.0
 10
12.08597819010417
 20
13.07733832465278
 30
0.0
 10
12.05839029947917
 20
13.06056043836806
 30
0.0
 10
12.03350151909722
 20
13.07142469618056
 30
0.0
 10
12.01833767361111
 20
13.07807074652778
 30
0.0
 10
12.008056640625
 20
13.09018283420139
 30
0.0
 10
12.00248209635417
 20
13.10484483506944
 30
0.0
 10
11.98041449652778
 20
13.16292317708333
 30
0.0
 10
11.95612250434028
 20
13.22025553385417
 30
0.0
 10
11.94000922309028
 20
13.28047688802083
 30
0.0
 10
11.93625217013889
 20
13.29454210069444
 30
0.0
 10
11.93409559461806
 20
13.308837890625
 30
0.0
 10
11.93476019965278
 20
13.32335069444444
 30
0.0
 10
11.93576388888889
 20
13.34488932291667
 30
0.0
 10
11.947998046875
 20
13.36062282986111
 30
0.0
 10
11.96649848090278
 20
13.3653564453125
 30
0.0
 10
11.98456488715278
 20
13.3699951171875
 30
0.0
 10
12.0028076171875
 20
13.36155870225694
 30
0.0
 10
12.01284450954861
 20
13.34144422743056
 30
0.0
 10
12.02522786458333
 20
13.31663682725694
 30
0.0
 10
12.03702799479167
 20
13.29143608940972
 30
0.0
 10
12.04413519965278
 20
13.264404296875
 30
0.0
 10
12.05683051215278
 20
13.21609157986111
 30
0.0
 10
12.06968858506944
 20
13.1678466796875
 30
0.0
 10
12.08249240451389
 20
13.11956108940972
 30
0.0
 10
12.08391655815972
 20
13.11424424913194
 30
0.0
 10
12.08550347222222
 20
13.10896809895833
 30
0.0
 10
12.08634440104167
 20
13.10599772135417
 30
0.0
  0
HATCH
  5
54
330
3C
100
AcDbEntity
  8
Calque 1
 62
     7
420
 16777215
100
AcDbHatch
 10
0.0
 20
0.0
 30
0.0
210
0.0
220
0.0
230
1.0
  2
SOLID
 70
     1
 71
     0
 91
        1
 92
        1
 93
        1
 72
     4
 94
        3
 73
     0
 74
     1
 95
       32
 96
       28
 40
0.0
 40
0.0
 40
0.0
 40
0.0
 40
1.0
 40
1.0
 40
1.0
 40
2.0
 40
2.0
 40
2.0
 40
3.0
 40
3.0
 40
3.0
 40
4.0
 40
4.0
 40
4.0
 40
5.0
 40
5.0
 40
5.0
 40
6.0
 40
6.0
 40
6.0
 40
7.0
 40
7.0
 40
7.0
 40
8.0
 40
8.0
 40
8.0
 40
9.0
 40
9.0
 40
9.0
 40
9.0
 10
12.08634440104167
 20
13.10599772135417
 10
12.08597819010417
 20
13.07733832465278
 10
12.05839029947917
 20
13.06056043836806
 10
12.03350151909722
 20
13.07142469618056
 10
12.01833767361111
 20
13.07807074652778
 10
12.008056640625
 20
13.09018283420139
 10
12.00248209635417
 20
13.10484483506944
 10
11.98041449652778
 20
13.16292317708333
 10
11.95612250434028
 20
13.22025553385417
 10
11.94000922309028
 20
13.28047688802083
 10
11.93625217013889
 20
13.29454210069444
 10
11.93409559461806
 20
13.308837890625
 10
11.93476019965278
 20
13.32335069444444
 10
11.93576388888889
 20
13.34488932291667
 10
11.947998046875
 20
13.36062282986111
 10
11.96649848090278
 20
13.3653564453125
 10
11.98456488715278
 20
13.3699951171875
 10
12.0028076171875
 20
13.36155870225694
 10
12.01284450954861
 20
13.34144422743056
 10
12.02522786458333
 20
13.31663682725694
 10
12.03702799479167
 20
13.29143608940972
 10
12.04413519965278
 20
13.264404296875
 10
12.05683051215278
 20
13.21609157986111
 10
12.06968858506944
 20
13.1678466796875
 10
12.08249240451389
 20
13.11956108940972
 10
12.08391655815972
 20
13.11424424913194
 10
12.08550347222222
 20
13.10896809895833
 10
12.08634440104167
 20
13.10599772135417
 97
        0
 75
     2
 76
     1
 98
        0
  0
SPLINE
  5
55
330
3C
100
AcDbEntity
  8
Calque 1
370
     0
100
AcDbSpline
210
0.0
220
0.0
230
1.0
 70
    11
 71
     3
 72
    17
 73
    13
 74
     0
 42
0.0000000001
 43
0.0000000001
 40
0.0
 40
0.0
 40
0.0
 40
0.0
 40
1.0
 40
1.0
 40
1.0
 40
2.0
 40
2.0
 40
2.0
 40
3.0
 40
3.0
 40
3.0
 40
4.0
 40
4.0
 40
4.0
 40
4.0
 10
11.64902072482639
 20
11.88825141059028
 30
0.0
 10
11.64748806423611
 20
11.84737141927083
 30
0.0
 10
11.63035753038194
 20
11.83015950520833
 30
0.0
 10
11.59270562065972
 20
11.83169216579861
 30
0.0
 10
11.55244954427083
 20
11.83333333333333
 30
0.0
 10
11.52613661024306
 20
11.85884602864583
 30
0.0
 10
11.52680121527778
 20
11.89557562934028
 30
0.0
 10
11.52745225694444
 20
11.9320068359375
 30
0.0
 10
11.55856662326389
 20
11.96278211805556
 30
0.0
 10
11.59303114149306
 20
11.96021864149306
 30
0.0
 10
11.63380262586806
 20
11.95718044704861
 30
0.0
 10
11.65530056423611
 20
11.92157660590278
 30
0.0
 10
11.64902072482639
 20
11.88825141059028
 30
0.0
  0
HATCH
  5
56
330
3C
100
AcDbEntity
  8
Calque 1
 62
     7
420
 16777215
100
AcDbHatch
 10
0.0
 20
0.0
 30
0.0
210
0.0
220
0.0
230
1.0
  2
SOLID
 70
     1
 71
     0
 91
        1
 92
        1
 93
        1
 72
     4
 94
        3
 73
     0
 74
     1
 95
       17
 96
       13
 40
0.0
 40
0.0
 40
0.0
 40
0.0
 40
1.0
 40
1.0
 40
1.0
 40
2.0
 40
2.0
 40
2.0
 40
3.0
 40
3.0
 40
3.0
 40
4.0
 40
4.0
 40
4.0
 40
4.0
 10
11.64902072482639
 20
11.88825141059028
 10
11.64748806423611
 20
11.84737141927083
 10
11.63035753038194
 20
11.83015950520833
 10
11.59270562065972
 20
11.83169216579861
 10
11.55244954427083
 20
11.83333333333333
 10
11.52613661024306
 20
11.85884602864583
 10
11.52680121527778
 20
11.89557562934028
 10
11.52745225694444
 20
11.9320068359375
 10
11.55856662326389
 20
11.96278211805556
 10
11.59303114149306
 20
11.96021864149306
 10
11.63380262586806
 20
11.95718044704861
 10
11.65530056423611
 20
11.92157660590278
 10
11.64902072482639
 20
11.88825141059028
 97
        0
 75
     2
 76
     1
 98
        0
  0
ENDBLK
  5
3F
330
3C
100
AcDbEntity
  8
0
100
AcDbBlockEnd
  0
ENDSEC
  0
SECTION
  2
ENTITIES
  0
INSERT
  5
3D
330
1F
100
AcDbEntity
  8
Calque 1
100
AcDbBlockReference
  2
block 2
 10
0.0
 20
0.0
 30
0.0
  0
ENDSEC
  0
SECTION
  2
OBJECTS
  0
DICTIONARY
  5
C
330
0
100
AcDbDictionary
281
     1
  3
ACAD_GROUP
350
D
  3
ACAD_LAYOUT
350
1A
  3
ACAD_MLINESTYLE
350
17
  3
ACAD_PLOTSETTINGS
350
19
  3
ACAD_PLOTSTYLENAME
350
E
  3
ACAD_TABLESTYLE
350
57
  3
ACAD_VISUALSTYLE
350
2A
  0
DICTIONARY
  5
D
102
{ACAD_REACTORS
330
C
102
}
330
C
100
AcDbDictionary
281
     1
  0
DICTIONARY
  5
1A
102
{ACAD_REACTORS
330
C
102
}
330
C
100
AcDbDictionary
281
     1
  3
Layout1
350
1E
  3
Layout2
350
26
  3
Model
350
22
  0
DICTIONARY
  5
17
102
{ACAD_REACTORS
330
C
102
}
330
C
100
AcDbDictionary
281
     1
  3
Standard
350
18
  0
DICTIONARY
  5
19
102
{ACAD_REACTORS
330
C
102
}
330
C
100
AcDbDictionary
281
     1
  0
ACDBDICTIONARYWDFLT
  5
E
102
{ACAD_REACTORS
330
C
102
}
330
C
100
AcDbDictionary
281
     1
  3
Normal
350
F
100
AcDbDictionaryWithDefault
340
F
  0
DICTIONARY
  5
57
102
{ACAD_REACTORS
330
C
102
}
330
C
100
AcDbDictionary
281
     1
  0
DICTIONARY
  5
2A
102
{ACAD_REACTORS
330
C
102
}
330
C
100
AcDbDictionary
281
     1
  3
2dWireframe
350
2F
  3
3D Hidden
350
31
  3
3dWireframe
350
30
  3
Basic
350
32
  3
Brighten
350
36
  3
ColorChange
350
3A
  3
Conceptual
350
34
  3
Dim
350
35
  3
Facepattern
350
39
  3
Flat
350
2B
  3
FlatWithEdges
350
2C
  3
Gouraud
350
2D
  3
GouraudWithEdges
350
2E
  3
Linepattern
350
38
  3
Realistic
350
33
  3
Thicken
350
37
  0
LAYOUT
  5
1E
102
{ACAD_REACTORS
330
1A
102
}
330
1A
100
AcDbPlotSettings
  1

  2
none_device
  4

  6

 40
0.0
 41
0.0
 42
0.0
 43
0.0
 44
0.0
 45
0.0
 46
0.0
 47
0.0
 48
0.0
 49
0.0
140
0.0
141
0.0
142
1.0
143
1.0
 70
   688
 72
     0
 73
     0
 74
     5
  7

 75
    16
 76
     0
 77
     2
 78
   300
147
1.0
148
0.0
149
0.0
100
AcDbLayout
  1
Layout1
 70
     1
 71
     1
 10
0.0
 20
0.0
 11
12.0
 21
9.0
 12
0.0
 22
0.0
 32
0.0
 14
1.000000000000000E+20
 24
1.000000000000000E+20
 34
1.000000000000000E+20
 15
-1.000000000000000E+20
 25
-1.000000000000000E+20
 35
-1.000000000000000E+20
146
0.0
 13
0.0
 23
0.0
 33
0.0
 16
1.0
 26
0.0
 36
0.0
 17
0.0
 27
1.0
 37
0.0
 76
     0
330
1B
  0
LAYOUT
  5
26
102
{ACAD_REACTORS
330
1A
102
}
330
1A
100
AcDbPlotSettings
  1

  2
none_device
  4

  6

 40
0.0
 41
0.0
 42
0.0
 43
0.0
 44
0.0
 45
0.0
 46
0.0
 47
0.0
 48
0.0
 49
0.0
140
0.0
141
0.0
142
1.0
143
1.0
 70
   688
 72
     0
 73
     0
 74
     5
  7

 75
    16
 76
     0
 77
     2
 78
   300
147
1.0
148
0.0
149
0.0
100
AcDbLayout
  1
Layout2
 70
     1
 71
     2
 10
0.0
 20
0.0
 11
0.0
 21
0.0
 12
0.0
 22
0.0
 32
0.0
 14
0.0
 24
0.0
 34
0.0
 15
0.0
 25
0.0
 35
0.0
146
0.0
 13
0.0
 23
0.0
 33
0.0
 16
1.0
 26
0.0
 36
0.0
 17
0.0
 27
1.0
 37
0.0
 76
     0
330
23
  0
LAYOUT
  5
22
102
{ACAD_REACTORS
330
1A
102
}
330
1A
100
AcDbPlotSettings
  1

  2
none_device
  4

  6

 40
0.0
 41
0.0
 42
0.0
 43
0.0
 44
0.0
 45
0.0
 46
0.0
 47
0.0
 48
0.0
 49
0.0
140
0.0
141
0.0
142
1.0
143
1.0
 70
  1712
 72
     0
 73
     0
 74
     0
  7

 75
     0
 76
     0
 77
     2
 78
   300
147
1.0
148
0.0
149
0.0
100
AcDbLayout
  1
Model
 70
     1
 71
     0
 10
0.0
 20
0.0
 11
12.0
 21
9.0
 12
0.0
 22
0.0
 32
0.0
 14
1.000000000000000E+20
 24
1.000000000000000E+20
 34
1.000000000000000E+20
 15
-1.000000000000000E+20
 25
-1.000000000000000E+20
 35
-1.000000000000000E+20
146
0.0
 13
0.0
 23
0.0
 33
0.0
 16
1.0
 26
0.0
 36
0.0
 17
0.0
 27
1.0
 37
0.0
 76
     0
330
1F
331
29
  0
MLINESTYLE
  5
18
102
{ACAD_REACTORS
330
17
102
}
330
17
100
AcDbMlineStyle
  2
Standard
 70
     0
  3

 62
   256
 51
90.0
 52
90.0
 71
     2
 49
0.5
 62
   256
  6
BYLAYER
 49
-0.5
 62
   256
  6
BYLAYER
  0
ACDBPLACEHOLDER
  5
F
102
{ACAD_REACTORS
330
E
102
}
330
E
  0
VISUALSTYLE
  5
2F
102
{ACAD_REACTORS
330
2A
102
}
330
2A
100
AcDbVisualStyle
  2
2dWireframe
 70
     4
 71
     0
 72
     2
 73
     0
 90
        0
 40
-0.6
 41
-30.0
 62
     5
 63
     7
421
 16777215
 74
     1
 91
        4
 64
     7
 65
   257
 75
     1
175
     1
 42
1.0
 92
        0
 66
   257
 43
1.0
 76
     1
 77
     6
 78
     2
 67
     7
 79
     5
170
     0
171
     0
290
     0
174
     0
 93
        1
 44
0.0
173
     0
291
     0
 45
0.0
1001
ACAD
1000
AcDbSavedByObjectVersion
1070
     0
  0
VISUALSTYLE
  5
31
102
{ACAD_REACTORS
330
2A
102
}
330
2A
100
AcDbVisualStyle
  2
3D Hidden
 70
     6
 71
     1
 72
     2
 73
     2
 90
        0
 40
-0.6
 41
-30.0
 62
     5
 63
     7
421
 16777215
 74
     2
 91
        2
 64
     7
 65
   257
 75
     2
175
     1
 42
40.0
 92
        0
 66
   257
 43
1.0
 76
     1
 77
     6
 78
     2
 67
     7
 79
     3
170
     0
171
     0
290
     0
174
     0
 93
        1
 44
0.0
173
     0
291
     0
 45
0.0
1001
ACAD
1000
AcDbSavedByObjectVersion
1070
     0
  0
VISUALSTYLE
  5
30
102
{ACAD_REACTORS
330
2A
102
}
330
2A
100
AcDbVisualStyle
  2
3dWireframe
 70
     5
 71
     0
 72
     2
 73
     0
 90
        0
 40
-0.6
 41
-30.0
 62
     5
 63
     7
421
 16777215
 74
     1
 91
        4
 64
     7
 65
   257
 75
     1
175
     1
 42
1.0
 92
        0
 66
   257
 43
1.0
 76
     1
 77
     6
 78
     2
 67
     7
 79
     5
170
     0
171
     0
290
     0
174
     0
 93
        1
 44
0.0
173
     0
291
     0
 45
0.0
1001
ACAD
1000
AcDbSavedByObjectVersion
1070
     0
  0
VISUALSTYLE
  5
32
102
{ACAD_REACTORS
330
2A
102
}
330
2A
100
AcDbVisualStyle
  2
Basic
 70
     7
 71
     1
 72
     0
 73
     1
 90
        0
 40
-0.6
 41
-30.0
 62
     5
 63
     7
421
 16777215
 74
     0
 91
        4
 64
     7
 65
   257
 75
     1
175
     1
 42
1.0
 92
        8
 66
     7
 43
1.0
 76
     1
 77
     6
 78
     2
 67
     7
 79
     5
170
     0
171
     0
290
     0
174
     0
 93
        1
 44
0.0
173
     0
291
     1
 45
0.0
1001
ACAD
1000
AcDbSavedByObjectVersion
1070
     0
  0
VISUALSTYLE
  5
36
102
{ACAD_REACTORS
330
2A
102
}
330
2A
100
AcDbVisualStyle
  2
Brighten
 70
    12
 71
     2
 72
     2
 73
     0
 90
        0
 40
-0.6
 41
-30.0
 62
     5
 63
     7
421
 16777215
 74
     1
 91
        4
 64
     7
 65
   257
 75
     1
175
     1
 42
1.0
 92
        8
 66
     7
 43
1.0
 76
     1
 77
     6
 78
     2
 67
     7
 79
     5
170
     0
171
     0
290
     0
174
     0
 93
        1
 44
50.0
173
     0
291
     1
 45
0.0
1001
ACAD
1000
AcDbSavedByObjectVersion
1070
     0
  0
VISUALSTYLE
  5
3A
102
{ACAD_REACTORS
330
2A
102
}
330
2A
100
AcDbVisualStyle
  2
ColorChange
 70
    16
 71
     2
 72
     2
 73
     3
 90
        0
 40
-0.6
 41
-30.0
 62
     5
 63
     8
421
  8421504
 74
     1
 91
        4
 64
     7
 65
   257
 75
     1
175
     1
 42
1.0
 92
        8
 66
     8
424
  8421504
 43
1.0
 76
     1
 77
     6
 78
     2
 67
     7
 79
     5
170
     0
171
     0
290
     0
174
     0
 93
        1
 44
0.0
173
     0
291
     1
 45
0.0
1001
ACAD
1000
AcDbSavedByObjectVersion
1070
     0
  0
VISUALSTYLE
  5
34
102
{ACAD_REACTORS
330
2A
102
}
330
2A
100
AcDbVisualStyle
  2
Conceptual
 70
     9
 71
     3
 72
     2
 73
     0
 90
        0
 40
-0.6
 41
-30.0
 62
     5
 63
     7
421
 16777215
 74
     2
 91
        2
 64
     7
 65
   257
 75
     1
175
     1
 42
40.0
 92
        8
 66
     7
 43
1.0
 76
     1
 77
     6
 78
     2
 67
     7
 79
     3
170
     0
171
     0
290
     0
174
     0
 93
        1
 44
0.0
173
     0
291
     0
 45
0.0
1001
ACAD
1000
AcDbSavedByObjectVersion
1070
     0
  0
VISUALSTYLE
  5
35
102
{ACAD_REACTORS
330
2A
102
}
330
2A
100
AcDbVisualStyle
  2
Dim
 70
    11
 71
     2
 72
     2
 73
     0
 90
        0
 40
-0.6
 41
-30.0
 62
     5
 63
     7
421
 16777215
 74
     1
 91
        4
 64
     7
 65
   257
 75
     1
175
     1
 42
1.0
 92
        8
 66
     7
 43
1.0
 76
     1
 77
     6
 78
     2
 67
     7
 79
     5
170
     0
171
     0
290
     0
174
     0
 93
        1
 44
-50.0
173
     0
291
     1
 45
0.0
1001
ACAD
1000
AcDbSavedByObjectVersion
1070
     0
  0
VISUALSTYLE
  5
39
102
{ACAD_REACTORS
330
2A
102
}
330
2A
100
AcDbVisualStyle
  2
Facepattern
 70
    15
 71
     2
 72
     2
 73
     0
 90
        0
 40
-0.6
 41
-30.0
 62
     5
 63
     7
421
 16777215
 74
     1
 91
        4
 64
     7
 65
   257
 75
     1
175
     1
 42
1.0
 92
        8
 66
     7
 43
1.0
 76
     1
 77
     6
 78
     2
 67
     7
 79
     5
170
     0
171
     0
290
     0
174
     0
 93
        1
 44
0.0
173
     0
291
     1
 45
0.0
1001
ACAD
1000
AcDbSavedByObjectVersion
1070
     0
  0
VISUALSTYLE
  5
2B
102
{ACAD_REACTORS
330
2A
102
}
330
2A
100
AcDbVisualStyle
  2
Flat
 70
     0
 71
     2
 72
     1
 73
     1
 90
        2
 40
-0.6
 41
30.0
 62
     5
 63
     7
421
 16777215
 74
     0
 91
        4
 64
     7
 65
   257
 75
     1
175
     1
 42
1.0
 92
        8
 66
     7
 43
1.0
 76
     1
 77
     6
 78
     2
 67
     7
 79
     5
170
     0
171
     0
290
     0
174
     0
 93
       13
 44
0.0
173
     0
291
     1
 45
0.0
1001
ACAD
1000
AcDbSavedByObjectVersion
1070
     0
  0
VISUALSTYLE
  5
2C
102
{ACAD_REACTORS
330
2A
102
}
330
2A
100
AcDbVisualStyle
  2
FlatWithEdges
 70
     1
 71
     2
 72
     1
 73
     1
 90
        2
 40
-0.6
 41
30.0
 62
     5
 63
     7
421
 16777215
 74
     1
 91
        4
 64
     7
 65
   257
 75
     1
175
     1
 42
1.0
 92
        0
 66
   257
 43
1.0
 76
     1
 77
     6
 78
     2
 67
     7
 79
     5
170
     0
171
     0
290
     0
174
     0
 93
       13
 44
0.0
173
     0
291
     1
 45
0.0
1001
ACAD
1000
AcDbSavedByObjectVersion
1070
     0
  0
VISUALSTYLE
  5
2D
102
{ACAD_REACTORS
330
2A
102
}
330
2A
100
AcDbVisualStyle
  2
Gouraud
 70
     2
 71
     2
 72
     2
 73
     1
 90
        2
 40
-0.6
 41
30.0
 62
     5
 63
     7
421
 16777215
 74
     0
 91
        4
 64
     7
 65
   257
 75
     1
175
     1
 42
1.0
 92
        0
 66
     7
 43
1.0
 76
     1
 77
     6
 78
     2
 67
     7
 79
     5
170
     0
171
     0
290
     0
174
     0
 93
       13
 44
0.0
173
     0
291
     1
 45
0.0
1001
ACAD
1000
AcDbSavedByObjectVersion
1070
     0
  0
VISUALSTYLE
  5
2E
102
{ACAD_REACTORS
330
2A
102
}
330
2A
100
AcDbVisualStyle
  2
GouraudWithEdges
 70
     3
 71
     2
 72
     2
 73
     1
 90
        2
 40
-0.6
 41
30.0
 62
     5
 63
     7
421
 16777215
 74
     1
 91
        4
 64
     7
 65
   257
 75
     1
175
     1
 42
1.0
 92
        0
 66
   257
 43
1.0
 76
     1
 77
     6
 78
     2
 67
     7
 79
     5
170
     0
171
     0
290
     0
174
     0
 93
       13
 44
0.0
173
     0
291
     1
 45
0.0
1001
ACAD
1000
AcDbSavedByObjectVersion
1070
     0
  0
VISUALSTYLE
  5
38
102
{ACAD_REACTORS
330
2A
102
}
330
2A
100
AcDbVisualStyle
  2
Linepattern
 70
    14
 71
     2
 72
     2
 73
     0
 90
        0
 40
-0.6
 41
-30.0
 62
     5
 63
     7
421
 16777215
 74
     1
 91
        4
 64
     7
 65
   257
 75
     7
175
     7
 42
1.0
 92
        8
 66
     7
 43
1.0
 76
     1
 77
     6
 78
     2
 67
     7
 79
     5
170
     0
171
     0
290
     0
174
     0
 93
        1
 44
0.0
173
     0
291
     1
 45
0.0
1001
ACAD
1000
AcDbSavedByObjectVersion
1070
     0
  0
VISUALSTYLE
  5
33
102
{ACAD_REACTORS
330
2A
102
}
330
2A
100
AcDbVisualStyle
  2
Realistic
 70
     8
 71
     2
 72
     2
 73
     0
 90
        0
 40
-0.6
 41
-30.0
 62
     5
 63
     7
421
 16777215
 74
     1
 91
        0
 64
     7
 65
   257
 75
     1
175
     1
 42
1.0
 92
        8
 66
     8
424
  7895160
 43
1.0
 76
     1
 77
     6
 78
     2
 67
     7
 79
     5
170
     0
171
     0
290
     0
174
     0
 93
       13
 44
0.0
173
     0
291
     0
 45
0.0
1001
ACAD
1000
AcDbSavedByObjectVersion
1070
     0
  0
VISUALSTYLE
  5
37
102
{ACAD_REACTORS
330
2A
102
}
330
2A
100
AcDbVisualStyle
  2
Thicken
 70
    13
 71
     2
 72
     2
 73
     0
 90
        0
 40
-0.6
 41
-30.0
 62
     5
 63
     7
421
 16777215
 74
     1
 91
        4
 64
     7
 65
   257
 75
     1
175
     1
 42
1.0
 92
       12
 66
     7
 43
1.0
 76
     1
 77
     6
 78
     2
 67
     7
 79
     5
170
     0
171
     0
290
     0
174
     0
 93
        1
 44
0.0
173
     0
291
     1
 45
0.0
1001
ACAD
1000
AcDbSavedByObjectVersion
1070
     0
  0
ENDSEC
  0
EOF
